<svg width="24" height="24" viewBox="0 0 24 24" fill="none" xmlns="http://www.w3.org/2000/svg">
<path d="M17.125 6.5C17.125 6.98325 17.5168 7.375 18 7.375C18.4832 7.375 18.875 6.98325 18.875 6.5H17.125ZM18 5H18.875C18.875 4.51675 18.4832 4.125 18 4.125V5ZM4 5V4.125C3.51675 4.125 3.125 4.51675 3.125 5H4ZM4 9H3.125C3.125 9.2348 3.21936 9.45974 3.38688 9.62427L4 9ZM9.09091 14H9.96591C9.96591 13.7652 9.87154 13.5403 9.70403 13.3757L9.09091 14ZM9.09091 20H8.21591C8.21591 20.4832 8.60766 20.875 9.09091 20.875V20ZM12.9091 20V20.875C13.3923 20.875 13.7841 20.4832 13.7841 20H12.9091ZM13.7841 19C13.7841 18.5168 13.3923 18.125 12.9091 18.125C12.4258 18.125 12.0341 18.5168 12.0341 19H13.7841ZM12.3813 15.3813C12.0396 15.723 12.0396 16.277 12.3813 16.6187C12.723 16.9604 13.277 16.9604 13.6187 16.6187L12.3813 15.3813ZM20.6187 9.61872C20.9604 9.27701 20.9604 8.72299 20.6187 8.38128C20.277 8.03957 19.723 8.03957 19.3813 8.38128L20.6187 9.61872ZM19.3813 16.6187C19.723 16.9604 20.277 16.9604 20.6187 16.6187C20.9604 16.277 20.9604 15.723 20.6187 15.3813L19.3813 16.6187ZM13.6187 8.38128C13.277 8.03957 12.723 8.03957 12.3813 8.38128C12.0396 8.72299 12.0396 9.27701 12.3813 9.61872L13.6187 8.38128ZM18.875 6.5V5H17.125V6.5H18.875ZM18 4.125H4V5.875H18V4.125ZM3.125 5V9H4.875V5H3.125ZM3.38688 9.62427L8.47779 14.6243L9.70403 13.3757L4.61312 8.37573L3.38688 9.62427ZM8.21591 14V20H9.96591V14H8.21591ZM9.09091 20.875H12.9091V19.125H9.09091V20.875ZM13.7841 20V19H12.0341V20H13.7841ZM13.6187 16.6187L17.1187 13.1187L15.8813 11.8813L12.3813 15.3813L13.6187 16.6187ZM17.1187 13.1187L20.6187 9.61872L19.3813 8.38128L15.8813 11.8813L17.1187 13.1187ZM20.6187 15.3813L17.1187 11.8813L15.8813 13.1187L19.3813 16.6187L20.6187 15.3813ZM17.1187 11.8813L13.6187 8.38128L12.3813 9.61872L15.8813 13.1187L17.1187 11.8813Z" fill="#1351B4"/>
</svg>
