<svg width="384" height="301" viewBox="0 0 384 301" fill="none" xmlns="http://www.w3.org/2000/svg">
<path d="M319.676 169.03C319.676 167.097 321.243 165.53 323.176 165.53H380.001C381.934 165.53 383.501 167.097 383.501 169.03V288.927C383.501 290.86 381.934 292.427 380.001 292.427H323.176C321.243 292.427 319.676 290.86 319.676 288.927V169.03Z" fill="#F7A600"/>
<path d="M319.676 169.03C319.676 167.097 321.243 165.53 323.176 165.53H380.001C381.934 165.53 383.501 167.097 383.501 169.03V288.927C383.501 290.86 381.934 292.427 380.001 292.427H323.176C321.243 292.427 319.676 290.86 319.676 288.927V169.03Z" stroke="white"/>
<path d="M331.474 230.627C332.566 230.627 333.378 230.935 333.896 231.537C334.414 232.139 334.68 232.881 334.68 233.763C334.68 234.673 334.4 235.457 333.84 236.101C333.28 236.745 332.468 237.067 331.404 237.067C330.746 237.067 330.186 236.955 329.71 236.703C329.234 236.465 328.856 236.129 328.604 235.695C328.352 235.261 328.156 234.785 328.044 234.281C327.932 233.777 327.876 233.203 327.876 232.587C327.876 229.045 329.164 227.267 331.768 227.267C332.608 227.267 333.434 227.491 334.26 227.911V229.129C333.42 228.625 332.594 228.359 331.81 228.359C331.096 228.359 330.55 228.597 330.172 229.073C329.794 229.549 329.556 230.235 329.444 231.159C330.2 230.809 330.872 230.627 331.474 230.627ZM331.404 235.975C332.034 235.975 332.496 235.779 332.776 235.359C333.056 234.939 333.21 234.407 333.21 233.763C333.21 233.119 333.056 232.601 332.748 232.237C332.44 231.873 331.894 231.691 331.138 231.691C330.606 231.691 330.018 231.845 329.374 232.139L329.36 232.615C329.36 234.855 330.032 235.975 331.404 235.975ZM337.117 236.927V228.569H335.717V227.687L337.831 227.337H338.517V236.927H337.117ZM347.393 236.017L346.539 236.745C346.203 236.969 345.783 237.067 345.293 237.067C344.733 237.067 344.257 236.913 343.893 236.591C343.515 236.269 343.333 235.835 343.333 235.303C343.333 234.715 343.529 234.267 343.921 233.973C344.313 233.679 344.845 233.469 345.517 233.329L347.393 232.937V232.097C347.393 231.691 347.295 231.369 347.099 231.131C346.903 230.893 346.525 230.767 345.965 230.767C345.307 230.767 344.635 230.921 343.963 231.215L343.837 231.061L344.201 230.081C344.915 229.885 345.601 229.787 346.245 229.787C347.001 229.787 347.603 229.955 348.051 230.291C348.499 230.627 348.723 231.089 348.723 231.677V235.513C348.723 235.905 348.863 236.101 349.171 236.101C349.311 236.101 349.451 236.073 349.619 236.003V236.773C349.311 236.969 348.961 237.067 348.569 237.067C347.883 237.067 347.491 236.717 347.393 236.017ZM347.393 233.623L345.489 234.113C344.943 234.253 344.677 234.603 344.677 235.135C344.677 235.443 344.775 235.681 344.971 235.835C345.167 235.989 345.419 236.059 345.741 236.059C346.371 236.059 346.917 235.807 347.393 235.275V233.623ZM331.824 247.985V248.055C332.468 248.139 333 248.391 333.434 248.783C333.854 249.175 334.078 249.707 334.078 250.351C334.078 251.219 333.756 251.877 333.14 252.353C332.524 252.829 331.698 253.067 330.662 253.067C329.766 253.067 328.842 252.857 327.862 252.423V251.191C328.786 251.723 329.682 251.975 330.55 251.975C331.194 251.975 331.712 251.835 332.104 251.541C332.482 251.261 332.678 250.841 332.678 250.309C332.678 249.749 332.426 249.329 331.936 249.049C331.446 248.769 330.802 248.629 330.004 248.629H329.136V247.565H330.004C330.396 247.565 330.774 247.523 331.11 247.439C331.446 247.355 331.768 247.187 332.048 246.907C332.328 246.627 332.482 246.277 332.482 245.829C332.482 245.353 332.3 244.989 331.95 244.737C331.586 244.485 331.152 244.359 330.62 244.359C330.172 244.359 329.78 244.415 329.416 244.527C329.052 244.639 328.604 244.821 328.072 245.073V243.841C328.996 243.463 329.906 243.267 330.788 243.267C331.712 243.267 332.454 243.491 333.028 243.939C333.588 244.387 333.882 244.947 333.882 245.647C333.882 246.319 333.686 246.851 333.322 247.243C332.944 247.635 332.44 247.887 331.824 247.985ZM339.075 246.627C340.167 246.627 340.979 246.935 341.497 247.537C342.015 248.139 342.281 248.881 342.281 249.763C342.281 250.673 342.001 251.457 341.441 252.101C340.881 252.745 340.069 253.067 339.005 253.067C338.347 253.067 337.787 252.955 337.311 252.703C336.835 252.465 336.457 252.129 336.205 251.695C335.953 251.261 335.757 250.785 335.645 250.281C335.533 249.777 335.477 249.203 335.477 248.587C335.477 245.045 336.765 243.267 339.369 243.267C340.209 243.267 341.035 243.491 341.861 243.911V245.129C341.021 244.625 340.195 244.359 339.411 244.359C338.697 244.359 338.151 244.597 337.773 245.073C337.395 245.549 337.157 246.235 337.045 247.159C337.801 246.809 338.473 246.627 339.075 246.627ZM339.005 251.975C339.635 251.975 340.097 251.779 340.377 251.359C340.657 250.939 340.811 250.407 340.811 249.763C340.811 249.119 340.657 248.601 340.349 248.237C340.041 247.873 339.495 247.691 338.739 247.691C338.207 247.691 337.619 247.845 336.975 248.139L336.961 248.615C336.961 250.855 337.633 251.975 339.005 251.975ZM345.041 244.569V246.977C345.419 246.893 345.811 246.851 346.203 246.851C347.211 246.851 348.051 247.103 348.723 247.607C349.381 248.111 349.717 248.909 349.717 250.001C349.717 250.981 349.395 251.737 348.779 252.269C348.163 252.801 347.337 253.067 346.329 253.067C345.419 253.067 344.509 252.857 343.599 252.423V251.191C344.579 251.723 345.461 251.975 346.217 251.975C347.561 251.975 348.247 251.317 348.247 249.973C348.247 249.231 348.037 248.713 347.617 248.419C347.197 248.125 346.595 247.971 345.839 247.971C345.307 247.971 344.677 248.055 343.949 248.223V243.407H349.367V244.569H345.041ZM333.742 258.847V268.927H332.482L332.412 268.017L331.572 268.745C331.222 268.969 330.802 269.067 330.312 269.067C329.514 269.067 328.898 268.731 328.464 268.059C328.016 267.387 327.806 266.505 327.806 265.427C327.806 264.293 328.058 263.397 328.59 262.753C329.108 262.109 329.808 261.787 330.676 261.787C331.306 261.787 331.88 261.969 332.412 262.333V259.407L333.42 258.847H333.742ZM330.942 268.073C331.39 268.073 331.88 267.821 332.412 267.317V263.173C331.936 262.865 331.446 262.711 330.942 262.711C329.738 262.711 329.136 263.621 329.136 265.427C329.136 266.365 329.276 267.037 329.584 267.457C329.878 267.877 330.326 268.073 330.942 268.073ZM335.577 260.065C335.577 259.869 335.647 259.701 335.787 259.561C335.927 259.421 336.123 259.351 336.347 259.351C336.557 259.351 336.739 259.421 336.879 259.561C337.019 259.701 337.103 259.869 337.103 260.065C337.103 260.261 337.033 260.429 336.893 260.569C336.753 260.709 336.571 260.779 336.347 260.779C336.123 260.779 335.927 260.709 335.787 260.569C335.647 260.429 335.577 260.261 335.577 260.065ZM337.005 261.927V268.927H335.689V261.927H337.005ZM342.512 268.017L341.658 268.745C341.322 268.969 340.902 269.067 340.412 269.067C339.852 269.067 339.376 268.913 339.012 268.591C338.634 268.269 338.452 267.835 338.452 267.303C338.452 266.715 338.648 266.267 339.04 265.973C339.432 265.679 339.964 265.469 340.636 265.329L342.512 264.937V264.097C342.512 263.691 342.414 263.369 342.218 263.131C342.022 262.893 341.644 262.767 341.084 262.767C340.426 262.767 339.754 262.921 339.082 263.215L338.956 263.061L339.32 262.081C340.034 261.885 340.72 261.787 341.364 261.787C342.12 261.787 342.722 261.955 343.17 262.291C343.618 262.627 343.842 263.089 343.842 263.677V267.513C343.842 267.905 343.982 268.101 344.29 268.101C344.43 268.101 344.57 268.073 344.738 268.003V268.773C344.43 268.969 344.08 269.067 343.688 269.067C343.002 269.067 342.61 268.717 342.512 268.017ZM342.512 265.623L340.608 266.113C340.062 266.253 339.796 266.603 339.796 267.135C339.796 267.443 339.894 267.681 340.09 267.835C340.286 267.989 340.538 268.059 340.86 268.059C341.49 268.059 342.036 267.807 342.512 267.275V265.623ZM348.196 262.781C347.79 262.781 347.496 262.865 347.3 263.019C347.104 263.187 347.006 263.383 347.006 263.635C347.006 263.887 347.118 264.111 347.37 264.293C347.622 264.489 347.916 264.643 348.266 264.783C348.616 264.923 348.966 265.063 349.316 265.217C349.666 265.385 349.96 265.609 350.212 265.903C350.464 266.211 350.59 266.561 350.59 266.967C350.59 267.611 350.352 268.129 349.904 268.507C349.442 268.885 348.84 269.067 348.112 269.067C347.244 269.067 346.46 268.913 345.774 268.577L345.62 267.443C346.404 267.863 347.202 268.073 348.014 268.073C348.434 268.073 348.756 267.989 348.952 267.793C349.148 267.597 349.26 267.373 349.26 267.093C349.26 266.841 349.134 266.617 348.882 266.421C348.63 266.239 348.336 266.085 348 265.945C347.65 265.805 347.3 265.665 346.95 265.497C346.6 265.329 346.306 265.091 346.054 264.783C345.802 264.475 345.69 264.097 345.69 263.649C345.69 263.047 345.914 262.585 346.39 262.263C346.866 261.955 347.454 261.787 348.168 261.787C348.882 261.787 349.596 261.913 350.31 262.165L350.072 263.047L349.904 263.173C349.316 262.921 348.756 262.781 348.196 262.781ZM331.474 284.927H328.772C328.772 283.611 329.08 282.295 329.724 280.965C330.368 279.635 331.264 278.403 332.44 277.269H327.526V275.407H334.386V277.031C333.434 278.179 332.706 279.453 332.216 280.839C331.712 282.239 331.474 283.597 331.474 284.927ZM334.547 286.761L335.289 285.067C335.093 285.067 334.911 284.983 334.743 284.815C334.575 284.647 334.491 284.423 334.491 284.115C334.491 283.849 334.575 283.625 334.771 283.429C334.953 283.247 335.191 283.149 335.485 283.149C335.821 283.149 336.073 283.275 336.255 283.499C336.437 283.723 336.535 284.003 336.535 284.311C336.535 284.913 336.157 285.725 335.429 286.761H334.547ZM344.478 283.065L344.338 284.927H337.702V283.065C339.102 282.211 340.18 281.427 340.936 280.727C341.692 280.027 342.07 279.327 342.07 278.627C342.07 277.591 341.524 277.059 340.446 277.059C339.662 277.059 338.822 277.325 337.898 277.829V275.939C338.836 275.491 339.83 275.267 340.894 275.267C341.972 275.267 342.826 275.533 343.47 276.051C344.1 276.569 344.422 277.381 344.422 278.473C344.422 278.823 344.366 279.159 344.268 279.467C344.17 279.789 344.058 280.069 343.918 280.307C343.778 280.559 343.596 280.797 343.344 281.035C343.092 281.287 342.882 281.483 342.686 281.637C342.49 281.805 342.224 281.973 341.902 282.169C341.566 282.365 341.314 282.519 341.118 282.617C340.922 282.715 340.67 282.841 340.334 283.009V283.065H344.478ZM347.383 280.489C346.683 280.489 346.193 280.265 345.899 279.817C345.605 279.369 345.465 278.725 345.465 277.871C345.465 277.031 345.605 276.401 345.899 275.981C346.193 275.561 346.683 275.337 347.383 275.337C348.069 275.337 348.559 275.561 348.867 275.981C349.161 276.401 349.315 277.031 349.315 277.871C349.315 278.725 349.161 279.369 348.867 279.817C348.559 280.265 348.069 280.489 347.383 280.489ZM352.633 275.407H354.369L350.939 279.957L350.085 279.677L352.633 275.407ZM347.383 276.233C347.075 276.233 346.879 276.359 346.767 276.597C346.655 276.849 346.599 277.269 346.599 277.871C346.599 278.487 346.655 278.935 346.767 279.201C346.879 279.467 347.075 279.593 347.383 279.593C347.677 279.593 347.887 279.467 347.999 279.201C348.111 278.949 348.167 278.501 348.167 277.871C348.167 277.269 348.111 276.849 347.999 276.597C347.887 276.359 347.677 276.233 347.383 276.233ZM353.249 284.997C352.549 284.997 352.059 284.773 351.765 284.325C351.471 283.877 351.331 283.233 351.331 282.379C351.331 281.539 351.471 280.909 351.765 280.489C352.059 280.069 352.549 279.845 353.249 279.845C353.935 279.845 354.425 280.069 354.719 280.489C355.013 280.909 355.167 281.539 355.167 282.379C355.167 283.233 355.013 283.877 354.719 284.325C354.425 284.773 353.935 284.997 353.249 284.997ZM347.943 284.927H346.207L349.721 280.237L350.575 280.517L347.943 284.927ZM353.249 280.741C352.941 280.741 352.745 280.867 352.633 281.105C352.521 281.357 352.465 281.777 352.465 282.379C352.465 282.995 352.521 283.443 352.633 283.709C352.745 283.975 352.941 284.101 353.249 284.101C353.543 284.101 353.753 283.975 353.865 283.709C353.977 283.457 354.033 283.009 354.033 282.379C354.033 281.777 353.977 281.357 353.865 281.105C353.753 280.867 353.543 280.741 353.249 280.741Z" fill="white"/>
<path d="M319.676 3.99999C319.676 2.067 321.243 0.5 323.176 0.5H380.001C381.934 0.5 383.501 2.067 383.501 4V160.854C383.501 162.787 381.934 164.354 380.001 164.354H323.176C321.243 164.354 319.676 162.787 319.676 160.854V3.99999Z" fill="#0083CA"/>
<path d="M319.676 3.99999C319.676 2.067 321.243 0.5 323.176 0.5H380.001C381.934 0.5 383.501 2.067 383.501 4V160.854C383.501 162.787 381.934 164.354 380.001 164.354H323.176C321.243 164.354 319.676 162.787 319.676 160.854V3.99999Z" stroke="white"/>
<path d="M331.824 119.912V119.982C332.468 120.066 333 120.318 333.434 120.71C333.854 121.102 334.078 121.634 334.078 122.278C334.078 123.146 333.756 123.804 333.14 124.28C332.524 124.756 331.698 124.994 330.662 124.994C329.766 124.994 328.842 124.784 327.862 124.35V123.118C328.786 123.65 329.682 123.902 330.55 123.902C331.194 123.902 331.712 123.762 332.104 123.468C332.482 123.188 332.678 122.768 332.678 122.236C332.678 121.676 332.426 121.256 331.936 120.976C331.446 120.696 330.802 120.556 330.004 120.556H329.136V119.492H330.004C330.396 119.492 330.774 119.45 331.11 119.366C331.446 119.282 331.768 119.114 332.048 118.834C332.328 118.554 332.482 118.204 332.482 117.756C332.482 117.28 332.3 116.916 331.95 116.664C331.586 116.412 331.152 116.286 330.62 116.286C330.172 116.286 329.78 116.342 329.416 116.454C329.052 116.566 328.604 116.748 328.072 117V115.768C328.996 115.39 329.906 115.194 330.788 115.194C331.712 115.194 332.454 115.418 333.028 115.866C333.588 116.314 333.882 116.874 333.882 117.574C333.882 118.246 333.686 118.778 333.322 119.17C332.944 119.562 332.44 119.814 331.824 119.912ZM336.611 124.854V116.496H335.211V115.614L337.325 115.264H338.011V124.854H336.611ZM346.887 123.944L346.033 124.672C345.697 124.896 345.277 124.994 344.787 124.994C344.227 124.994 343.751 124.84 343.387 124.518C343.009 124.196 342.827 123.762 342.827 123.23C342.827 122.642 343.023 122.194 343.415 121.9C343.807 121.606 344.339 121.396 345.011 121.256L346.887 120.864V120.024C346.887 119.618 346.789 119.296 346.593 119.058C346.397 118.82 346.019 118.694 345.459 118.694C344.801 118.694 344.129 118.848 343.457 119.142L343.331 118.988L343.695 118.008C344.409 117.812 345.095 117.714 345.739 117.714C346.495 117.714 347.097 117.882 347.545 118.218C347.993 118.554 348.217 119.016 348.217 119.604V123.44C348.217 123.832 348.357 124.028 348.665 124.028C348.805 124.028 348.945 124 349.113 123.93V124.7C348.805 124.896 348.455 124.994 348.063 124.994C347.377 124.994 346.985 124.644 346.887 123.944ZM346.887 121.55L344.983 122.04C344.437 122.18 344.171 122.53 344.171 123.062C344.171 123.37 344.269 123.608 344.465 123.762C344.661 123.916 344.913 123.986 345.235 123.986C345.865 123.986 346.411 123.734 346.887 123.202V121.55ZM356.644 118.554C357.736 118.554 358.548 118.862 359.066 119.464C359.584 120.066 359.85 120.808 359.85 121.69C359.85 122.6 359.57 123.384 359.01 124.028C358.45 124.672 357.638 124.994 356.574 124.994C355.916 124.994 355.356 124.882 354.88 124.63C354.404 124.392 354.026 124.056 353.774 123.622C353.522 123.188 353.326 122.712 353.214 122.208C353.102 121.704 353.046 121.13 353.046 120.514C353.046 116.972 354.334 115.194 356.938 115.194C357.778 115.194 358.604 115.418 359.43 115.838V117.056C358.59 116.552 357.764 116.286 356.98 116.286C356.266 116.286 355.72 116.524 355.342 117C354.964 117.476 354.726 118.162 354.614 119.086C355.37 118.736 356.042 118.554 356.644 118.554ZM356.574 123.902C357.204 123.902 357.666 123.706 357.946 123.286C358.226 122.866 358.38 122.334 358.38 121.69C358.38 121.046 358.226 120.528 357.918 120.164C357.61 119.8 357.064 119.618 356.308 119.618C355.776 119.618 355.188 119.772 354.544 120.066L354.53 120.542C354.53 122.782 355.202 123.902 356.574 123.902ZM364.737 124.994C363.421 124.994 362.511 124.574 361.979 123.72C361.447 122.88 361.181 121.648 361.181 120.024C361.181 118.428 361.433 117.224 361.965 116.412C362.497 115.6 363.421 115.194 364.737 115.194C366.039 115.194 366.963 115.614 367.495 116.426C368.027 117.238 368.293 118.442 368.293 120.024C368.293 121.634 368.027 122.866 367.495 123.72C366.963 124.574 366.039 124.994 364.737 124.994ZM364.737 116.286C363.939 116.286 363.393 116.58 363.099 117.154C362.791 117.742 362.651 118.694 362.651 120.024C362.651 121.368 362.791 122.362 363.099 122.978C363.407 123.594 363.953 123.902 364.737 123.902C365.521 123.902 366.053 123.594 366.361 122.978C366.669 122.362 366.823 121.368 366.823 120.024C366.823 118.694 366.669 117.742 366.375 117.154C366.067 116.58 365.521 116.286 364.737 116.286ZM333.742 130.774V140.854H332.482L332.412 139.944L331.572 140.672C331.222 140.896 330.802 140.994 330.312 140.994C329.514 140.994 328.898 140.658 328.464 139.986C328.016 139.314 327.806 138.432 327.806 137.354C327.806 136.22 328.058 135.324 328.59 134.68C329.108 134.036 329.808 133.714 330.676 133.714C331.306 133.714 331.88 133.896 332.412 134.26V131.334L333.42 130.774H333.742ZM330.942 140C331.39 140 331.88 139.748 332.412 139.244V135.1C331.936 134.792 331.446 134.638 330.942 134.638C329.738 134.638 329.136 135.548 329.136 137.354C329.136 138.292 329.276 138.964 329.584 139.384C329.878 139.804 330.326 140 330.942 140ZM335.577 131.992C335.577 131.796 335.647 131.628 335.787 131.488C335.927 131.348 336.123 131.278 336.347 131.278C336.557 131.278 336.739 131.348 336.879 131.488C337.019 131.628 337.103 131.796 337.103 131.992C337.103 132.188 337.033 132.356 336.893 132.496C336.753 132.636 336.571 132.706 336.347 132.706C336.123 132.706 335.927 132.636 335.787 132.496C335.647 132.356 335.577 132.188 335.577 131.992ZM337.005 133.854V140.854H335.689V133.854H337.005ZM342.512 139.944L341.658 140.672C341.322 140.896 340.902 140.994 340.412 140.994C339.852 140.994 339.376 140.84 339.012 140.518C338.634 140.196 338.452 139.762 338.452 139.23C338.452 138.642 338.648 138.194 339.04 137.9C339.432 137.606 339.964 137.396 340.636 137.256L342.512 136.864V136.024C342.512 135.618 342.414 135.296 342.218 135.058C342.022 134.82 341.644 134.694 341.084 134.694C340.426 134.694 339.754 134.848 339.082 135.142L338.956 134.988L339.32 134.008C340.034 133.812 340.72 133.714 341.364 133.714C342.12 133.714 342.722 133.882 343.17 134.218C343.618 134.554 343.842 135.016 343.842 135.604V139.44C343.842 139.832 343.982 140.028 344.29 140.028C344.43 140.028 344.57 140 344.738 139.93V140.7C344.43 140.896 344.08 140.994 343.688 140.994C343.002 140.994 342.61 140.644 342.512 139.944ZM342.512 137.55L340.608 138.04C340.062 138.18 339.796 138.53 339.796 139.062C339.796 139.37 339.894 139.608 340.09 139.762C340.286 139.916 340.538 139.986 340.86 139.986C341.49 139.986 342.036 139.734 342.512 139.202V137.55ZM348.196 134.708C347.79 134.708 347.496 134.792 347.3 134.946C347.104 135.114 347.006 135.31 347.006 135.562C347.006 135.814 347.118 136.038 347.37 136.22C347.622 136.416 347.916 136.57 348.266 136.71C348.616 136.85 348.966 136.99 349.316 137.144C349.666 137.312 349.96 137.536 350.212 137.83C350.464 138.138 350.59 138.488 350.59 138.894C350.59 139.538 350.352 140.056 349.904 140.434C349.442 140.812 348.84 140.994 348.112 140.994C347.244 140.994 346.46 140.84 345.774 140.504L345.62 139.37C346.404 139.79 347.202 140 348.014 140C348.434 140 348.756 139.916 348.952 139.72C349.148 139.524 349.26 139.3 349.26 139.02C349.26 138.768 349.134 138.544 348.882 138.348C348.63 138.166 348.336 138.012 348 137.872C347.65 137.732 347.3 137.592 346.95 137.424C346.6 137.256 346.306 137.018 346.054 136.71C345.802 136.402 345.69 136.024 345.69 135.576C345.69 134.974 345.914 134.512 346.39 134.19C346.866 133.882 347.454 133.714 348.168 133.714C348.882 133.714 349.596 133.84 350.31 134.092L350.072 134.974L349.904 135.1C349.316 134.848 348.756 134.708 348.196 134.708ZM331.264 147.194C333.7 147.194 334.932 148.692 334.932 151.674C334.932 155.23 333.546 156.994 330.802 156.994C329.752 156.994 328.842 156.77 328.086 156.308V154.432C328.842 154.95 329.64 155.202 330.48 155.202C331.068 155.202 331.516 155.048 331.824 154.74C332.132 154.432 332.342 153.942 332.454 153.256C331.866 153.508 331.278 153.634 330.718 153.634C329.766 153.634 329.01 153.354 328.478 152.794C327.932 152.234 327.666 151.492 327.666 150.54C327.666 149.574 327.974 148.776 328.618 148.146C329.262 147.516 330.144 147.194 331.264 147.194ZM331.432 152.108C331.824 152.108 332.202 152.038 332.566 151.884V151.45C332.566 150.638 332.468 150.022 332.272 149.602C332.076 149.196 331.712 148.986 331.208 148.986C330.774 148.986 330.466 149.14 330.27 149.434C330.074 149.728 329.976 150.092 329.976 150.54C329.976 151.072 330.088 151.478 330.312 151.73C330.536 151.982 330.9 152.108 331.432 152.108ZM335.983 158.688L336.725 156.994C336.529 156.994 336.347 156.91 336.179 156.742C336.011 156.574 335.927 156.35 335.927 156.042C335.927 155.776 336.011 155.552 336.207 155.356C336.389 155.174 336.627 155.076 336.921 155.076C337.257 155.076 337.509 155.202 337.691 155.426C337.873 155.65 337.971 155.93 337.971 156.238C337.971 156.84 337.593 157.652 336.865 158.688H335.983ZM341.224 149.196V150.638C341.546 150.582 341.896 150.54 342.274 150.54C342.75 150.54 343.198 150.596 343.618 150.708C344.038 150.82 344.416 151.002 344.766 151.226C345.102 151.464 345.382 151.786 345.578 152.206C345.774 152.626 345.872 153.102 345.872 153.648C345.872 154.726 345.536 155.552 344.878 156.126C344.22 156.714 343.338 156.994 342.246 156.994C341.098 156.994 340.062 156.77 339.138 156.308V154.376C340.104 154.936 340.972 155.202 341.728 155.202C342.946 155.202 343.562 154.74 343.562 153.802C343.562 153.298 343.394 152.92 343.058 152.696C342.722 152.472 342.204 152.36 341.518 152.36C340.986 152.36 340.3 152.458 339.488 152.64V147.334H345.522V149.196H341.224ZM348.64 152.416C347.94 152.416 347.45 152.192 347.156 151.744C346.862 151.296 346.722 150.652 346.722 149.798C346.722 148.958 346.862 148.328 347.156 147.908C347.45 147.488 347.94 147.264 348.64 147.264C349.326 147.264 349.816 147.488 350.124 147.908C350.418 148.328 350.572 148.958 350.572 149.798C350.572 150.652 350.418 151.296 350.124 151.744C349.816 152.192 349.326 152.416 348.64 152.416ZM353.89 147.334H355.626L352.196 151.884L351.342 151.604L353.89 147.334ZM348.64 148.16C348.332 148.16 348.136 148.286 348.024 148.524C347.912 148.776 347.856 149.196 347.856 149.798C347.856 150.414 347.912 150.862 348.024 151.128C348.136 151.394 348.332 151.52 348.64 151.52C348.934 151.52 349.144 151.394 349.256 151.128C349.368 150.876 349.424 150.428 349.424 149.798C349.424 149.196 349.368 148.776 349.256 148.524C349.144 148.286 348.934 148.16 348.64 148.16ZM354.506 156.924C353.806 156.924 353.316 156.7 353.022 156.252C352.728 155.804 352.588 155.16 352.588 154.306C352.588 153.466 352.728 152.836 353.022 152.416C353.316 151.996 353.806 151.772 354.506 151.772C355.192 151.772 355.682 151.996 355.976 152.416C356.27 152.836 356.424 153.466 356.424 154.306C356.424 155.16 356.27 155.804 355.976 156.252C355.682 156.7 355.192 156.924 354.506 156.924ZM349.2 156.854H347.464L350.978 152.164L351.832 152.444L349.2 156.854ZM354.506 152.668C354.198 152.668 354.002 152.794 353.89 153.032C353.778 153.284 353.722 153.704 353.722 154.306C353.722 154.922 353.778 155.37 353.89 155.636C354.002 155.902 354.198 156.028 354.506 156.028C354.8 156.028 355.01 155.902 355.122 155.636C355.234 155.384 355.29 154.936 355.29 154.306C355.29 153.704 355.234 153.284 355.122 153.032C355.01 152.794 354.8 152.668 354.506 152.668Z" fill="white"/>
<path d="M319.805 296.719C319.805 294.924 321.26 293.469 323.055 293.469H380.25C382.045 293.469 383.5 294.924 383.5 296.719C383.5 298.514 382.045 299.969 380.25 299.969H323.055C321.26 299.969 319.805 298.514 319.805 296.719Z" fill="#042B60"/>
<path d="M319.805 296.719C319.805 294.924 321.26 293.469 323.055 293.469H380.25C382.045 293.469 383.5 294.924 383.5 296.719C383.5 298.514 382.045 299.969 380.25 299.969H323.055C321.26 299.969 319.805 298.514 319.805 296.719Z" stroke="white"/>
<path d="M0.5 4C0.5 2.067 2.067 0.5 4 0.5H315.175C317.108 0.5 318.675 2.067 318.675 4V296C318.675 297.933 317.108 299.5 315.175 299.5H4C2.067 299.5 0.5 297.933 0.5 296V4Z" fill="#45A1BA"/>
<path d="M0.5 4C0.5 2.067 2.067 0.5 4 0.5H315.175C317.108 0.5 318.675 2.067 318.675 4V296C318.675 297.933 317.108 299.5 315.175 299.5H4C2.067 299.5 0.5 297.933 0.5 296V4Z" stroke="white"/>
<path d="M12.284 276.14C10.968 276.14 10.058 275.72 9.526 274.866C8.994 274.026 8.728 272.794 8.728 271.17C8.728 269.574 8.98 268.37 9.512 267.558C10.044 266.746 10.968 266.34 12.284 266.34C13.586 266.34 14.51 266.76 15.042 267.572C15.574 268.384 15.84 269.588 15.84 271.17C15.84 272.78 15.574 274.012 15.042 274.866C14.51 275.72 13.586 276.14 12.284 276.14ZM12.284 267.432C11.486 267.432 10.94 267.726 10.646 268.3C10.338 268.888 10.198 269.84 10.198 271.17C10.198 272.514 10.338 273.508 10.646 274.124C10.954 274.74 11.5 275.048 12.284 275.048C13.068 275.048 13.6 274.74 13.908 274.124C14.216 273.508 14.37 272.514 14.37 271.17C14.37 269.84 14.216 268.888 13.922 268.3C13.614 267.726 13.068 267.432 12.284 267.432ZM24.2251 275.09L23.3711 275.818C23.0351 276.042 22.6151 276.14 22.1251 276.14C21.5651 276.14 21.0891 275.986 20.7251 275.664C20.3471 275.342 20.1651 274.908 20.1651 274.376C20.1651 273.788 20.3611 273.34 20.7531 273.046C21.1451 272.752 21.6771 272.542 22.3491 272.402L24.2251 272.01V271.17C24.2251 270.764 24.1271 270.442 23.9311 270.204C23.7351 269.966 23.3571 269.84 22.7971 269.84C22.1391 269.84 21.4671 269.994 20.7951 270.288L20.6691 270.134L21.0331 269.154C21.7471 268.958 22.4331 268.86 23.0771 268.86C23.8331 268.86 24.4351 269.028 24.8831 269.364C25.3311 269.7 25.5551 270.162 25.5551 270.75V274.586C25.5551 274.978 25.6951 275.174 26.0031 275.174C26.1431 275.174 26.2831 275.146 26.4511 275.076V275.846C26.1431 276.042 25.7931 276.14 25.4011 276.14C24.7151 276.14 24.3231 275.79 24.2251 275.09ZM24.2251 272.696L22.3211 273.186C21.7751 273.326 21.5091 273.676 21.5091 274.208C21.5091 274.516 21.6071 274.754 21.8031 274.908C21.9991 275.062 22.2511 275.132 22.5731 275.132C23.2031 275.132 23.7491 274.88 24.2251 274.348V272.696ZM34.3316 271.058V271.128C34.9756 271.212 35.5076 271.464 35.9416 271.856C36.3616 272.248 36.5856 272.78 36.5856 273.424C36.5856 274.292 36.2636 274.95 35.6476 275.426C35.0316 275.902 34.2056 276.14 33.1696 276.14C32.2736 276.14 31.3496 275.93 30.3696 275.496V274.264C31.2936 274.796 32.1896 275.048 33.0576 275.048C33.7016 275.048 34.2196 274.908 34.6116 274.614C34.9896 274.334 35.1856 273.914 35.1856 273.382C35.1856 272.822 34.9336 272.402 34.4436 272.122C33.9536 271.842 33.3096 271.702 32.5116 271.702H31.6436V270.638H32.5116C32.9036 270.638 33.2816 270.596 33.6176 270.512C33.9536 270.428 34.2756 270.26 34.5556 269.98C34.8356 269.7 34.9896 269.35 34.9896 268.902C34.9896 268.426 34.8076 268.062 34.4576 267.81C34.0936 267.558 33.6596 267.432 33.1276 267.432C32.6796 267.432 32.2876 267.488 31.9236 267.6C31.5596 267.712 31.1116 267.894 30.5796 268.146V266.914C31.5036 266.536 32.4136 266.34 33.2956 266.34C34.2196 266.34 34.9616 266.564 35.5356 267.012C36.0956 267.46 36.3896 268.02 36.3896 268.72C36.3896 269.392 36.1936 269.924 35.8296 270.316C35.4516 270.708 34.9476 270.96 34.3316 271.058ZM41.5692 276.14C40.2532 276.14 39.3432 275.72 38.8112 274.866C38.2792 274.026 38.0132 272.794 38.0132 271.17C38.0132 269.574 38.2652 268.37 38.7972 267.558C39.3292 266.746 40.2532 266.34 41.5692 266.34C42.8712 266.34 43.7952 266.76 44.3272 267.572C44.8592 268.384 45.1252 269.588 45.1252 271.17C45.1252 272.78 44.8592 274.012 44.3272 274.866C43.7952 275.72 42.8712 276.14 41.5692 276.14ZM41.5692 267.432C40.7712 267.432 40.2252 267.726 39.9312 268.3C39.6232 268.888 39.4832 269.84 39.4832 271.17C39.4832 272.514 39.6232 273.508 39.9312 274.124C40.2392 274.74 40.7852 275.048 41.5692 275.048C42.3532 275.048 42.8852 274.74 43.1932 274.124C43.5012 273.508 43.6552 272.514 43.6552 271.17C43.6552 269.84 43.5012 268.888 43.2072 268.3C42.8992 267.726 42.3532 267.432 41.5692 267.432ZM55.5543 265.92V276H54.2943L54.2243 275.09L53.3843 275.818C53.0343 276.042 52.6143 276.14 52.1243 276.14C51.3263 276.14 50.7103 275.804 50.2763 275.132C49.8283 274.46 49.6183 273.578 49.6183 272.5C49.6183 271.366 49.8703 270.47 50.4023 269.826C50.9203 269.182 51.6203 268.86 52.4883 268.86C53.1183 268.86 53.6923 269.042 54.2243 269.406V266.48L55.2323 265.92H55.5543ZM52.7543 275.146C53.2023 275.146 53.6923 274.894 54.2243 274.39V270.246C53.7483 269.938 53.2583 269.784 52.7543 269.784C51.5503 269.784 50.9483 270.694 50.9483 272.5C50.9483 273.438 51.0883 274.11 51.3963 274.53C51.6903 274.95 52.1383 275.146 52.7543 275.146ZM57.3895 267.138C57.3895 266.942 57.4595 266.774 57.5995 266.634C57.7395 266.494 57.9355 266.424 58.1595 266.424C58.3695 266.424 58.5515 266.494 58.6915 266.634C58.8315 266.774 58.9155 266.942 58.9155 267.138C58.9155 267.334 58.8455 267.502 58.7055 267.642C58.5655 267.782 58.3835 267.852 58.1595 267.852C57.9355 267.852 57.7395 267.782 57.5995 267.642C57.4595 267.502 57.3895 267.334 57.3895 267.138ZM58.8175 269V276H57.5015V269H58.8175ZM64.3247 275.09L63.4707 275.818C63.1347 276.042 62.7147 276.14 62.2247 276.14C61.6647 276.14 61.1887 275.986 60.8247 275.664C60.4467 275.342 60.2647 274.908 60.2647 274.376C60.2647 273.788 60.4607 273.34 60.8527 273.046C61.2447 272.752 61.7767 272.542 62.4487 272.402L64.3247 272.01V271.17C64.3247 270.764 64.2267 270.442 64.0307 270.204C63.8347 269.966 63.4567 269.84 62.8967 269.84C62.2387 269.84 61.5667 269.994 60.8947 270.288L60.7687 270.134L61.1327 269.154C61.8467 268.958 62.5327 268.86 63.1767 268.86C63.9327 268.86 64.5347 269.028 64.9827 269.364C65.4307 269.7 65.6547 270.162 65.6547 270.75V274.586C65.6547 274.978 65.7947 275.174 66.1027 275.174C66.2427 275.174 66.3827 275.146 66.5507 275.076V275.846C66.2427 276.042 65.8927 276.14 65.5007 276.14C64.8147 276.14 64.4227 275.79 64.3247 275.09ZM64.3247 272.696L62.4207 273.186C61.8747 273.326 61.6087 273.676 61.6087 274.208C61.6087 274.516 61.7067 274.754 61.9027 274.908C62.0987 275.062 62.3507 275.132 62.6727 275.132C63.3027 275.132 63.8487 274.88 64.3247 274.348V272.696ZM70.0084 269.854C69.6024 269.854 69.3084 269.938 69.1124 270.092C68.9164 270.26 68.8184 270.456 68.8184 270.708C68.8184 270.96 68.9304 271.184 69.1824 271.366C69.4344 271.562 69.7284 271.716 70.0784 271.856C70.4284 271.996 70.7784 272.136 71.1284 272.29C71.4784 272.458 71.7724 272.682 72.0244 272.976C72.2764 273.284 72.4024 273.634 72.4024 274.04C72.4024 274.684 72.1644 275.202 71.7164 275.58C71.2544 275.958 70.6524 276.14 69.9244 276.14C69.0564 276.14 68.2724 275.986 67.5864 275.65L67.4324 274.516C68.2164 274.936 69.0144 275.146 69.8264 275.146C70.2464 275.146 70.5684 275.062 70.7644 274.866C70.9604 274.67 71.0724 274.446 71.0724 274.166C71.0724 273.914 70.9464 273.69 70.6944 273.494C70.4424 273.312 70.1484 273.158 69.8124 273.018C69.4624 272.878 69.1124 272.738 68.7624 272.57C68.4124 272.402 68.1184 272.164 67.8664 271.856C67.6144 271.548 67.5024 271.17 67.5024 270.722C67.5024 270.12 67.7264 269.658 68.2024 269.336C68.6784 269.028 69.2664 268.86 69.9804 268.86C70.6944 268.86 71.4084 268.986 72.1224 269.238L71.8844 270.12L71.7164 270.246C71.1284 269.994 70.5684 269.854 70.0084 269.854ZM14.3 286.974C15.392 287.548 15.952 288.318 15.952 289.284C15.952 290.152 15.588 290.838 14.888 291.356C14.174 291.888 13.278 292.14 12.186 292.14C10.982 292.14 10.072 291.916 9.456 291.454C8.84 290.992 8.532 290.376 8.532 289.606C8.532 289.158 8.658 288.724 8.924 288.304C9.176 287.898 9.54 287.562 9.988 287.31C9.12 286.75 8.7 286.022 8.7 285.126C8.7 284.3 9.022 283.628 9.68 283.11C10.338 282.606 11.206 282.34 12.284 282.34C13.432 282.34 14.3 282.578 14.888 283.026C15.476 283.488 15.77 284.048 15.77 284.692C15.77 285.714 15.28 286.47 14.3 286.974ZM12.452 284.076C12.088 284.076 11.794 284.16 11.598 284.328C11.402 284.496 11.304 284.72 11.304 284.986C11.304 285.294 11.43 285.546 11.71 285.742C11.99 285.938 12.396 286.148 12.956 286.372C13.376 285.98 13.586 285.546 13.586 285.042C13.586 284.762 13.474 284.524 13.278 284.342C13.082 284.174 12.802 284.076 12.452 284.076ZM12.074 290.404C12.452 290.404 12.76 290.32 12.998 290.138C13.222 289.956 13.348 289.704 13.348 289.382C13.348 289.312 13.334 289.242 13.32 289.186C13.292 289.13 13.264 289.06 13.208 289.004C13.152 288.948 13.11 288.892 13.068 288.836C13.012 288.794 12.942 288.738 12.858 288.682C12.76 288.626 12.676 288.584 12.62 288.542C12.564 288.514 12.466 288.458 12.34 288.402C12.214 288.346 12.116 288.304 12.046 288.276C11.962 288.248 11.85 288.206 11.71 288.136C11.556 288.08 11.444 288.024 11.374 287.996C10.982 288.514 10.8 288.99 10.8 289.41C10.8 289.704 10.912 289.942 11.15 290.124C11.374 290.32 11.682 290.404 12.074 290.404ZM21.7962 287.002V287.072C22.4962 287.198 23.0282 287.45 23.4202 287.842C23.8122 288.234 24.0082 288.696 24.0082 289.256C24.0082 290.208 23.6582 290.936 22.9722 291.412C22.2722 291.902 21.3622 292.14 20.2142 292.14C19.7102 292.14 19.1642 292.084 18.5762 291.958C17.9882 291.832 17.4702 291.664 17.0502 291.454V289.522C17.9462 290.082 18.8842 290.348 19.8782 290.348C20.4102 290.348 20.8582 290.25 21.1942 290.054C21.5302 289.858 21.7122 289.564 21.7122 289.158C21.7122 288.374 20.9842 287.982 19.5282 287.982H18.3802V286.358H19.5282C20.9142 286.358 21.6142 285.966 21.6142 285.182C21.6142 284.818 21.4322 284.552 21.0962 284.384C20.7602 284.216 20.3682 284.132 19.9482 284.132C19.1362 284.132 18.2402 284.384 17.2602 284.888V283.012C18.1562 282.564 19.1642 282.34 20.2982 282.34C21.3202 282.34 22.1742 282.564 22.8462 282.984C23.5182 283.418 23.8542 284.034 23.8542 284.832C23.8542 285.994 23.1682 286.722 21.7962 287.002ZM25.2286 293.834L25.9706 292.14C25.7746 292.14 25.5926 292.056 25.4246 291.888C25.2566 291.72 25.1726 291.496 25.1726 291.188C25.1726 290.922 25.2566 290.698 25.4526 290.502C25.6346 290.32 25.8726 290.222 26.1666 290.222C26.5026 290.222 26.7546 290.348 26.9366 290.572C27.1186 290.796 27.2166 291.076 27.2166 291.384C27.2166 291.986 26.8386 292.798 26.1106 293.834H25.2286ZM32.2345 292.14C30.8345 292.14 29.8265 291.72 29.2385 290.88C28.6505 290.04 28.3565 288.808 28.3565 287.17C28.3565 285.546 28.6505 284.342 29.2385 283.544C29.8265 282.746 30.8205 282.34 32.2345 282.34C33.6345 282.34 34.6425 282.746 35.2305 283.544C35.8185 284.342 36.1265 285.546 36.1265 287.17C36.1265 288.808 35.8185 290.04 35.2305 290.88C34.6285 291.72 33.6345 292.14 32.2345 292.14ZM32.2345 284.132C31.6185 284.132 31.2125 284.356 30.9885 284.79C30.7645 285.238 30.6665 286.022 30.6665 287.17C30.6665 288.346 30.7785 289.158 31.0025 289.634C31.2265 290.11 31.6325 290.348 32.2345 290.348C32.8365 290.348 33.2565 290.11 33.4805 289.634C33.7045 289.158 33.8165 288.346 33.8165 287.17C33.8165 286.022 33.7045 285.238 33.4805 284.79C33.2565 284.356 32.8505 284.132 32.2345 284.132ZM38.9939 287.562C38.2939 287.562 37.8039 287.338 37.5099 286.89C37.2159 286.442 37.0759 285.798 37.0759 284.944C37.0759 284.104 37.2159 283.474 37.5099 283.054C37.8039 282.634 38.2939 282.41 38.9939 282.41C39.6799 282.41 40.1699 282.634 40.4779 283.054C40.7719 283.474 40.9259 284.104 40.9259 284.944C40.9259 285.798 40.7719 286.442 40.4779 286.89C40.1699 287.338 39.6799 287.562 38.9939 287.562ZM44.2439 282.48H45.9799L42.5499 287.03L41.6959 286.75L44.2439 282.48ZM38.9939 283.306C38.6859 283.306 38.4899 283.432 38.3779 283.67C38.2659 283.922 38.2099 284.342 38.2099 284.944C38.2099 285.56 38.2659 286.008 38.3779 286.274C38.4899 286.54 38.6859 286.666 38.9939 286.666C39.2879 286.666 39.4979 286.54 39.6099 286.274C39.7219 286.022 39.7779 285.574 39.7779 284.944C39.7779 284.342 39.7219 283.922 39.6099 283.67C39.4979 283.432 39.2879 283.306 38.9939 283.306ZM44.8599 292.07C44.1599 292.07 43.6699 291.846 43.3759 291.398C43.0819 290.95 42.9419 290.306 42.9419 289.452C42.9419 288.612 43.0819 287.982 43.3759 287.562C43.6699 287.142 44.1599 286.918 44.8599 286.918C45.5459 286.918 46.0359 287.142 46.3299 287.562C46.6239 287.982 46.7779 288.612 46.7779 289.452C46.7779 290.306 46.6239 290.95 46.3299 291.398C46.0359 291.846 45.5459 292.07 44.8599 292.07ZM39.5539 292H37.8179L41.3319 287.31L42.1859 287.59L39.5539 292ZM44.8599 287.814C44.5519 287.814 44.3559 287.94 44.2439 288.178C44.1319 288.43 44.0759 288.85 44.0759 289.452C44.0759 290.068 44.1319 290.516 44.2439 290.782C44.3559 291.048 44.5519 291.174 44.8599 291.174C45.1539 291.174 45.3639 291.048 45.4759 290.782C45.5879 290.53 45.6439 290.082 45.6439 289.452C45.6439 288.85 45.5879 288.43 45.4759 288.178C45.3639 287.94 45.1539 287.814 44.8599 287.814Z" fill="white"/>
</svg>
