<svg width="1312" height="380" viewBox="0 0 1312 380" fill="none" xmlns="http://www.w3.org/2000/svg">
<g clip-path="url(#clip0_1606_48284)">
<path d="M33 6.06641H1304" stroke="#E2E2E2"/>
<path d="M33 86.8164H1304" stroke="#E2E2E2"/>
<path d="M33 167.566H1304" stroke="#E2E2E2"/>
<path d="M33 248.316H1304" stroke="#E2E2E2"/>
<path d="M33 329.066H1304" stroke="#E2E2E2"/>
<path d="M10.3342 5.12441V5.19441C10.9782 5.27841 11.5102 5.53041 11.9442 5.92241C12.3642 6.31441 12.5882 6.84641 12.5882 7.49041C12.5882 8.35841 12.2662 9.01641 11.6502 9.49241C11.0342 9.96841 10.2082 10.2064 9.17217 10.2064C8.27617 10.2064 7.35217 9.99641 6.37217 9.56241V8.33041C7.29617 8.86241 8.19217 9.11441 9.06017 9.11441C9.70417 9.11441 10.2222 8.97441 10.6142 8.68041C10.9922 8.40041 11.1882 7.98041 11.1882 7.44841C11.1882 6.88841 10.9362 6.46841 10.4462 6.18841C9.95617 5.90841 9.31217 5.76841 8.51417 5.76841H7.64617V4.70441H8.51417C8.90617 4.70441 9.28417 4.66241 9.62017 4.57841C9.95617 4.49441 10.2782 4.32641 10.5582 4.04641C10.8382 3.76641 10.9922 3.41641 10.9922 2.96841C10.9922 2.49241 10.8102 2.12841 10.4602 1.87641C10.0962 1.62441 9.66217 1.49841 9.13017 1.49841C8.68217 1.49841 8.29017 1.55441 7.92617 1.66641C7.56217 1.77841 7.11417 1.96041 6.58217 2.21241V0.980406C7.50617 0.602405 8.41617 0.406405 9.29817 0.406405C10.2222 0.406405 10.9642 0.630406 11.5382 1.07841C12.0982 1.52641 12.3922 2.08641 12.3922 2.78641C12.3922 3.45841 12.1962 3.99041 11.8322 4.38241C11.4542 4.77441 10.9502 5.02641 10.3342 5.12441ZM17.7117 10.2064C16.3957 10.2064 15.4857 9.78641 14.9537 8.93241C14.4217 8.09241 14.1557 6.86041 14.1557 5.23641C14.1557 3.64041 14.4077 2.43641 14.9397 1.62441C15.4717 0.812406 16.3957 0.406405 17.7117 0.406405C19.0137 0.406405 19.9377 0.826406 20.4697 1.63841C21.0017 2.45041 21.2677 3.65441 21.2677 5.23641C21.2677 6.84641 21.0017 8.07841 20.4697 8.93241C19.9377 9.78641 19.0137 10.2064 17.7117 10.2064ZM17.7117 1.49841C16.9137 1.49841 16.3677 1.79241 16.0737 2.36641C15.7657 2.95441 15.6257 3.90641 15.6257 5.23641C15.6257 6.58041 15.7657 7.57441 16.0737 8.19041C16.3817 8.80641 16.9277 9.11441 17.7117 9.11441C18.4957 9.11441 19.0277 8.80641 19.3357 8.19041C19.6437 7.57441 19.7977 6.58041 19.7977 5.23641C19.7977 3.90641 19.6437 2.95441 19.3497 2.36641C19.0417 1.79241 18.4957 1.49841 17.7117 1.49841Z" fill="#878787"/>
<path d="M2.20892 91.0664V82.7084H0.808922V81.8264L2.92292 81.4764H3.60892V91.0664H2.20892ZM8.38795 91.0664H6.79195C6.79195 89.7224 7.11395 88.3224 7.78595 86.8384C8.44395 85.3684 9.31195 83.9964 10.376 82.7084H5.41995V81.5464H11.622V82.5544C10.628 83.8144 9.84395 85.2144 9.25595 86.7264C8.66795 88.2524 8.38795 89.6944 8.38795 91.0664ZM12.1466 92.6484L12.8186 91.2064C12.6226 91.2064 12.4406 91.1504 12.2866 91.0104C12.1326 90.8844 12.0626 90.7024 12.0626 90.4644C12.0626 90.2684 12.1326 90.0864 12.2726 89.9464C12.4126 89.8064 12.5946 89.7364 12.8186 89.7364C13.0706 89.7364 13.2666 89.8344 13.4066 90.0024C13.5466 90.1704 13.6166 90.3804 13.6166 90.6184C13.6166 91.1084 13.3226 91.7804 12.7626 92.6484H12.1466ZM16.7048 82.7084V85.1164C17.0828 85.0324 17.4748 84.9904 17.8668 84.9904C18.8748 84.9904 19.7148 85.2424 20.3868 85.7464C21.0448 86.2504 21.3808 87.0484 21.3808 88.1404C21.3808 89.1204 21.0588 89.8764 20.4428 90.4084C19.8268 90.9404 19.0008 91.2064 17.9928 91.2064C17.0828 91.2064 16.1728 90.9964 15.2628 90.5624V89.3304C16.2428 89.8624 17.1248 90.1144 17.8808 90.1144C19.2248 90.1144 19.9108 89.4564 19.9108 88.1124C19.9108 87.3704 19.7008 86.8524 19.2808 86.5584C18.8608 86.2644 18.2588 86.1104 17.5028 86.1104C16.9708 86.1104 16.3408 86.1944 15.6128 86.3624V81.5464H21.0308V82.7084H16.7048Z" fill="#878787"/>
<path d="M11.7858 172.066V163.708H10.3858V162.826L12.4998 162.476H13.1858V172.066H11.7858ZM16.7048 163.708V166.116C17.0828 166.032 17.4748 165.99 17.8668 165.99C18.8748 165.99 19.7148 166.242 20.3868 166.746C21.0448 167.25 21.3808 168.048 21.3808 169.14C21.3808 170.12 21.0588 170.876 20.4428 171.408C19.8268 171.94 19.0008 172.206 17.9928 172.206C17.0828 172.206 16.1728 171.996 15.2628 171.562V170.33C16.2428 170.862 17.1248 171.114 17.8808 171.114C19.2248 171.114 19.9108 170.456 19.9108 169.112C19.9108 168.37 19.7008 167.852 19.2808 167.558C18.8608 167.264 18.2588 167.11 17.5028 167.11C16.9708 167.11 16.3408 167.194 15.6128 167.362V162.546H21.0308V163.708H16.7048Z" fill="#878787"/>
<path d="M8.38795 253.066H6.79195C6.79195 251.722 7.11395 250.322 7.78595 248.838C8.44395 247.368 9.31195 245.996 10.376 244.708H5.41995V243.546H11.622V244.554C10.628 245.814 9.84395 247.214 9.25595 248.726C8.66795 250.252 8.38795 251.694 8.38795 253.066ZM12.1466 254.648L12.8186 253.206C12.6226 253.206 12.4406 253.15 12.2866 253.01C12.1326 252.884 12.0626 252.702 12.0626 252.464C12.0626 252.268 12.1326 252.086 12.2726 251.946C12.4126 251.806 12.5946 251.736 12.8186 251.736C13.0706 251.736 13.2666 251.834 13.4066 252.002C13.5466 252.17 13.6166 252.38 13.6166 252.618C13.6166 253.108 13.3226 253.78 12.7626 254.648H12.1466ZM16.7048 244.708V247.116C17.0828 247.032 17.4748 246.99 17.8668 246.99C18.8748 246.99 19.7148 247.242 20.3868 247.746C21.0448 248.25 21.3808 249.048 21.3808 250.14C21.3808 251.12 21.0588 251.876 20.4428 252.408C19.8268 252.94 19.0008 253.206 17.9928 253.206C17.0828 253.206 16.1728 252.996 15.2628 252.562V251.33C16.2428 251.862 17.1248 252.114 17.8808 252.114C19.2248 252.114 19.9108 251.456 19.9108 250.112C19.9108 249.37 19.7008 248.852 19.2808 248.558C18.8608 248.264 18.2588 248.11 17.5028 248.11C16.9708 248.11 16.3408 248.194 15.6128 248.362V243.546H21.0308V244.708H16.7048Z" fill="#878787"/>
<path d="M17.7117 334.206C16.3957 334.206 15.4857 333.786 14.9537 332.932C14.4217 332.092 14.1557 330.86 14.1557 329.236C14.1557 327.64 14.4077 326.436 14.9397 325.624C15.4717 324.812 16.3957 324.406 17.7117 324.406C19.0137 324.406 19.9377 324.826 20.4697 325.638C21.0017 326.45 21.2677 327.654 21.2677 329.236C21.2677 330.846 21.0017 332.078 20.4697 332.932C19.9377 333.786 19.0137 334.206 17.7117 334.206ZM17.7117 325.498C16.9137 325.498 16.3677 325.792 16.0737 326.366C15.7657 326.954 15.6257 327.906 15.6257 329.236C15.6257 330.58 15.7657 331.574 16.0737 332.19C16.3817 332.806 16.9277 333.114 17.7117 333.114C18.4957 333.114 19.0277 332.806 19.3357 332.19C19.6437 331.574 19.7977 330.58 19.7977 329.236C19.7977 327.906 19.6437 326.954 19.3497 326.366C19.0417 325.792 18.4957 325.498 17.7117 325.498Z" fill="#878787"/>
<line x1="33.5" y1="337.066" x2="33.5" y2="329.066" stroke="#878787"/>
<line x1="174.609" y1="337.066" x2="174.609" y2="329.066" stroke="#878787"/>
<line x1="315.723" y1="337.066" x2="315.723" y2="329.066" stroke="#878787"/>
<line x1="456.832" y1="337.066" x2="456.832" y2="329.066" stroke="#878787"/>
<line x1="597.945" y1="337.066" x2="597.945" y2="329.066" stroke="#878787"/>
<line x1="739.055" y1="337.066" x2="739.055" y2="329.066" stroke="#878787"/>
<line x1="880.168" y1="337.066" x2="880.168" y2="329.066" stroke="#878787"/>
<line x1="1021.28" y1="337.066" x2="1021.28" y2="329.066" stroke="#878787"/>
<line x1="1162.39" y1="337.066" x2="1162.39" y2="329.066" stroke="#878787"/>
<line x1="1303.5" y1="337.066" x2="1303.5" y2="329.066" stroke="#878787"/>
<path d="M20.9819 372.512L24.2389 369.255L24.9615 370.176L20.6057 374.532L19.7841 373.71C20.1702 371.522 20.3286 369.899 20.2593 368.819C20.1999 367.75 19.893 366.929 19.3386 366.374C18.4477 365.483 17.4973 365.523 16.5173 366.503C15.9332 367.087 15.557 367.839 15.359 368.75L14.478 367.869C14.7848 366.988 15.2798 366.196 15.9728 365.503C16.6459 364.83 17.3587 364.454 18.1111 364.375C18.8634 364.295 19.6059 364.622 20.3385 365.355C20.5958 365.612 20.8037 365.899 20.972 366.206C21.1403 366.513 21.2591 366.849 21.3185 367.226C21.3878 367.612 21.4274 367.988 21.4472 368.325C21.467 368.681 21.4472 369.116 21.3878 369.611C21.3284 370.126 21.269 370.582 21.1997 370.968C21.1403 371.364 21.0512 371.869 20.9423 372.472L20.9819 372.512ZM28.802 366.533C27.8714 367.464 26.931 367.81 25.9509 367.583C24.9808 367.365 23.9215 366.682 22.7732 365.533C21.6447 364.405 20.9715 363.375 20.7735 362.425C20.5755 361.475 20.9418 360.534 21.8723 359.604C22.793 358.683 23.7433 358.327 24.6937 358.525C25.644 358.723 26.6835 359.386 27.8021 360.504C28.9406 361.643 29.6236 362.702 29.8513 363.682C30.079 364.662 29.7226 365.613 28.802 366.533ZM22.6445 360.376C22.0802 360.94 21.902 361.534 22.1 362.148C22.298 362.781 22.8722 363.554 23.8126 364.494C24.763 365.444 25.5649 366.048 26.2182 366.266C26.8716 366.484 27.4755 366.315 28.0298 365.761C28.5842 365.207 28.7426 364.613 28.5248 363.959C28.307 363.306 27.713 362.494 26.7627 361.544C25.8222 360.603 25.0402 360.039 24.4165 359.831C23.7928 359.643 23.1989 359.821 22.6445 360.376ZM33.1311 362.006L27.2211 356.096L26.2311 357.086L25.6075 356.462L26.8548 354.72L27.3399 354.235L34.121 361.016L33.1311 362.006ZM36.3817 358.756L30.4717 352.846L29.4817 353.836L28.8581 353.212L30.1054 351.47L30.5905 350.984L37.3716 357.766L36.3817 358.756Z" fill="#878787"/>
<path d="M160.826 373.629L164.083 370.372L164.806 371.292L160.45 375.648L159.628 374.826C160.015 372.639 160.173 371.015 160.104 369.936C160.044 368.867 159.737 368.045 159.183 367.491C158.292 366.6 157.342 366.64 156.362 367.62C155.778 368.204 155.401 368.956 155.203 369.867L154.322 368.986C154.629 368.105 155.124 367.313 155.817 366.62C156.49 365.947 157.203 365.57 157.955 365.491C158.708 365.412 159.45 365.739 160.183 366.471C160.44 366.729 160.648 367.016 160.816 367.323C160.985 367.63 161.103 367.966 161.163 368.342C161.232 368.728 161.272 369.105 161.292 369.441C161.311 369.797 161.292 370.233 161.232 370.728C161.173 371.243 161.113 371.698 161.044 372.084C160.985 372.48 160.896 372.985 160.787 373.589L160.826 373.629ZM168.646 367.65C167.716 368.58 166.775 368.927 165.795 368.699C164.825 368.481 163.766 367.798 162.618 366.65C161.489 365.521 160.816 364.492 160.618 363.542C160.42 362.591 160.786 361.651 161.717 360.72C162.637 359.8 163.588 359.443 164.538 359.641C165.488 359.839 166.528 360.502 167.646 361.621C168.785 362.759 169.468 363.819 169.696 364.799C169.923 365.779 169.567 366.729 168.646 367.65ZM162.489 361.492C161.925 362.057 161.746 362.651 161.944 363.264C162.142 363.898 162.717 364.67 163.657 365.611C164.607 366.561 165.409 367.165 166.063 367.383C166.716 367.6 167.32 367.432 167.874 366.878C168.429 366.323 168.587 365.729 168.369 365.076C168.151 364.423 167.557 363.611 166.607 362.661C165.667 361.72 164.885 361.156 164.261 360.948C163.637 360.76 163.043 360.938 162.489 361.492ZM172.975 363.123L167.065 357.213L166.075 358.203L165.452 357.579L166.699 355.837L167.184 355.352L173.965 362.133L172.975 363.123ZM175.721 358.734L178.978 355.477L179.701 356.397L175.345 360.753L174.523 359.932C174.909 357.744 175.068 356.12 174.998 355.041C174.939 353.972 174.632 353.15 174.078 352.596C173.187 351.705 172.237 351.745 171.256 352.725C170.672 353.309 170.296 354.061 170.098 354.972L169.217 354.091C169.524 353.21 170.019 352.418 170.712 351.725C171.385 351.052 172.098 350.676 172.85 350.596C173.603 350.517 174.345 350.844 175.078 351.576C175.335 351.834 175.543 352.121 175.711 352.428C175.88 352.735 175.998 353.071 176.058 353.447C176.127 353.833 176.167 354.21 176.186 354.546C176.206 354.903 176.186 355.338 176.127 355.833C176.068 356.348 176.008 356.803 175.939 357.189C175.88 357.585 175.79 358.09 175.682 358.694L175.721 358.734Z" fill="#878787"/>
<path d="M301.792 373.624L305.049 370.367L305.772 371.287L301.416 375.643L300.594 374.822C300.98 372.634 301.139 371.01 301.069 369.931C301.01 368.862 300.703 368.04 300.149 367.486C299.258 366.595 298.307 366.635 297.327 367.615C296.743 368.199 296.367 368.951 296.169 369.862L295.288 368.981C295.595 368.1 296.09 367.308 296.783 366.615C297.456 365.942 298.169 365.566 298.921 365.486C299.674 365.407 300.416 365.734 301.149 366.466C301.406 366.724 301.614 367.011 301.782 367.318C301.95 367.625 302.069 367.961 302.129 368.337C302.198 368.724 302.238 369.1 302.257 369.436C302.277 369.793 302.257 370.228 302.198 370.723C302.139 371.238 302.079 371.693 302.01 372.079C301.95 372.475 301.861 372.98 301.752 373.584L301.792 373.624ZM309.612 367.645C308.682 368.576 307.741 368.922 306.761 368.694C305.791 368.477 304.732 367.794 303.583 366.645C302.455 365.517 301.782 364.487 301.584 363.537C301.386 362.586 301.752 361.646 302.682 360.715C303.603 359.795 304.553 359.438 305.504 359.636C306.454 359.834 307.494 360.498 308.612 361.616C309.751 362.755 310.434 363.814 310.661 364.794C310.889 365.774 310.533 366.724 309.612 367.645ZM303.455 361.488C302.89 362.052 302.712 362.646 302.91 363.26C303.108 363.893 303.682 364.665 304.623 365.606C305.573 366.556 306.375 367.16 307.028 367.378C307.682 367.596 308.286 367.427 308.84 366.873C309.394 366.318 309.553 365.725 309.335 365.071C309.117 364.418 308.523 363.606 307.573 362.656C306.632 361.715 305.85 361.151 305.227 360.943C304.603 360.755 304.009 360.933 303.455 361.488ZM313.941 363.118L308.031 357.208L307.041 358.198L306.418 357.574L307.665 355.832L308.15 355.347L314.931 362.128L313.941 363.118ZM315.687 354.383L315.737 354.433C316.251 354.037 316.806 353.839 317.39 353.809C317.964 353.789 318.499 354.007 318.954 354.462C319.568 355.076 319.805 355.769 319.706 356.541C319.607 357.313 319.191 358.066 318.459 358.798C317.825 359.432 317.023 359.937 316.024 360.323L315.152 359.452C316.182 359.174 316.994 358.719 317.608 358.105C318.063 357.65 318.33 357.185 318.4 356.699C318.469 356.234 318.31 355.799 317.934 355.422C317.538 355.026 317.063 354.908 316.519 355.056C315.974 355.205 315.42 355.561 314.856 356.125L314.242 356.739L313.489 355.987L314.103 355.373C314.38 355.096 314.618 354.799 314.796 354.502C314.974 354.205 315.083 353.858 315.083 353.462C315.083 353.066 314.945 352.71 314.628 352.393C314.291 352.057 313.905 351.928 313.479 351.997C313.044 352.076 312.648 352.294 312.272 352.67C311.955 352.987 311.717 353.304 311.539 353.641C311.361 353.977 311.173 354.423 310.975 354.977L310.104 354.106C310.49 353.185 310.995 352.403 311.618 351.779C312.272 351.126 312.955 350.76 313.677 350.671C314.39 350.592 314.994 350.78 315.489 351.275C315.964 351.75 316.202 352.265 316.222 352.799C316.232 353.344 316.053 353.878 315.687 354.383Z" fill="#878787"/>
<path d="M442.676 373.701L445.933 370.444L446.655 371.365L442.299 375.721L441.478 374.899C441.864 372.711 442.022 371.088 441.953 370.009C441.894 368.939 441.587 368.118 441.032 367.563C440.141 366.672 439.191 366.712 438.211 367.692C437.627 368.276 437.251 369.029 437.053 369.939L436.172 369.058C436.479 368.177 436.974 367.385 437.666 366.692C438.34 366.019 439.052 365.643 439.805 365.564C440.557 365.485 441.3 365.811 442.032 366.544C442.29 366.801 442.497 367.088 442.666 367.395C442.834 367.702 442.953 368.039 443.012 368.415C443.082 368.801 443.121 369.177 443.141 369.514C443.161 369.87 443.141 370.306 443.082 370.801C443.022 371.315 442.963 371.771 442.893 372.157C442.834 372.553 442.745 373.058 442.636 373.662L442.676 373.701ZM450.496 367.722C449.565 368.653 448.625 368.999 447.645 368.772C446.674 368.554 445.615 367.871 444.467 366.723C443.338 365.594 442.665 364.564 442.467 363.614C442.269 362.664 442.636 361.723 443.566 360.793C444.487 359.872 445.437 359.516 446.387 359.714C447.338 359.912 448.377 360.575 449.496 361.694C450.634 362.832 451.317 363.891 451.545 364.871C451.773 365.851 451.416 366.802 450.496 367.722ZM444.338 361.565C443.774 362.129 443.596 362.723 443.794 363.337C443.992 363.97 444.566 364.743 445.506 365.683C446.457 366.633 447.259 367.237 447.912 367.455C448.565 367.673 449.169 367.505 449.724 366.95C450.278 366.396 450.436 365.802 450.219 365.148C450.001 364.495 449.407 363.683 448.456 362.733C447.516 361.793 446.734 361.228 446.11 361.02C445.487 360.832 444.893 361.01 444.338 361.565ZM454.825 363.195L448.915 357.285L447.925 358.275L447.301 357.652L448.549 355.909L449.034 355.424L455.815 362.205L454.825 363.195ZM460.55 354.757L459.847 355.46L461.204 356.816L460.214 357.806L458.857 356.45L455.739 359.568L454.908 358.737L453.66 350.798L454.422 350.035L459.026 354.639L459.729 353.936L460.55 354.757ZM458.036 355.628L455.115 352.708L455.858 357.806L458.036 355.628Z" fill="#878787"/>
<path d="M583.767 373.571L587.024 370.314L587.747 371.234L583.391 375.59L582.569 374.768C582.955 372.581 583.114 370.957 583.044 369.878C582.985 368.809 582.678 367.987 582.124 367.433C581.233 366.542 580.282 366.582 579.302 367.562C578.718 368.146 578.342 368.898 578.144 369.809L577.263 368.928C577.57 368.047 578.065 367.255 578.758 366.562C579.431 365.889 580.144 365.512 580.896 365.433C581.649 365.354 582.391 365.681 583.124 366.413C583.381 366.671 583.589 366.958 583.757 367.265C583.925 367.572 584.044 367.908 584.104 368.284C584.173 368.67 584.213 369.047 584.232 369.383C584.252 369.739 584.232 370.175 584.173 370.67C584.114 371.185 584.054 371.64 583.985 372.026C583.925 372.422 583.836 372.927 583.727 373.531L583.767 373.571ZM591.587 367.592C590.657 368.522 589.716 368.869 588.736 368.641C587.766 368.423 586.707 367.74 585.558 366.592C584.43 365.463 583.757 364.434 583.559 363.484C583.361 362.533 583.727 361.593 584.658 360.662C585.578 359.742 586.529 359.385 587.479 359.583C588.429 359.781 589.469 360.444 590.587 361.563C591.726 362.701 592.409 363.761 592.636 364.741C592.864 365.721 592.508 366.671 591.587 367.592ZM585.43 361.434C584.865 361.999 584.687 362.593 584.885 363.206C585.083 363.84 585.657 364.612 586.598 365.553C587.548 366.503 588.35 367.107 589.003 367.325C589.657 367.542 590.261 367.374 590.815 366.82C591.369 366.265 591.528 365.671 591.31 365.018C591.092 364.365 590.498 363.553 589.548 362.602C588.607 361.662 587.825 361.098 587.202 360.89C586.578 360.702 585.984 360.88 585.43 361.434ZM595.916 363.065L590.006 357.155L589.016 358.145L588.393 357.521L589.64 355.779L590.125 355.294L596.906 362.075L595.916 363.065ZM593.485 353.676L595.187 355.379C595.395 355.053 595.643 354.746 595.92 354.468C596.633 353.756 597.405 353.34 598.236 353.221C599.058 353.112 599.86 353.439 600.632 354.211C601.325 354.904 601.632 355.666 601.572 356.478C601.513 357.29 601.117 358.062 600.404 358.775C599.761 359.418 598.969 359.913 598.018 360.25L597.147 359.379C598.216 359.062 599.018 358.616 599.553 358.082C600.503 357.131 600.523 356.181 599.573 355.231C599.048 354.706 598.533 354.488 598.028 354.577C597.524 354.666 596.989 354.983 596.454 355.518C596.078 355.894 595.692 356.399 595.296 357.032L591.891 353.627L595.722 349.796L596.543 350.618L593.485 353.676Z" fill="#878787"/>
<path d="M724.492 373.803L727.749 370.546L728.472 371.466L724.116 375.822L723.294 375C723.68 372.813 723.839 371.189 723.769 370.11C723.71 369.041 723.403 368.219 722.849 367.665C721.958 366.774 721.007 366.814 720.027 367.794C719.443 368.378 719.067 369.13 718.869 370.041L717.988 369.16C718.295 368.279 718.79 367.487 719.483 366.794C720.156 366.121 720.869 365.744 721.621 365.665C722.374 365.586 723.116 365.913 723.849 366.645C724.106 366.903 724.314 367.19 724.482 367.497C724.65 367.804 724.769 368.14 724.829 368.516C724.898 368.902 724.938 369.279 724.957 369.615C724.977 369.972 724.957 370.407 724.898 370.902C724.839 371.417 724.779 371.872 724.71 372.258C724.65 372.654 724.561 373.159 724.453 373.763L724.492 373.803ZM732.312 367.824C731.382 368.754 730.441 369.101 729.461 368.873C728.491 368.655 727.432 367.972 726.283 366.824C725.155 365.695 724.482 364.666 724.284 363.716C724.086 362.765 724.452 361.825 725.383 360.894C726.303 359.974 727.254 359.617 728.204 359.815C729.154 360.013 730.194 360.676 731.312 361.795C732.451 362.934 733.134 363.993 733.362 364.973C733.589 365.953 733.233 366.903 732.312 367.824ZM726.155 361.666C725.59 362.231 725.412 362.825 725.61 363.438C725.808 364.072 726.382 364.844 727.323 365.785C728.273 366.735 729.075 367.339 729.728 367.557C730.382 367.774 730.986 367.606 731.54 367.052C732.094 366.497 732.253 365.903 732.035 365.25C731.817 364.597 731.223 363.785 730.273 362.835C729.332 361.894 728.55 361.33 727.927 361.122C727.303 360.934 726.709 361.112 726.155 361.666ZM736.641 363.297L730.731 357.387L729.741 358.377L729.118 357.753L730.365 356.011L730.85 355.526L737.631 362.307L736.641 363.297ZM737.179 353.849C737.952 353.077 738.744 352.721 739.535 352.78C740.327 352.839 741.04 353.176 741.664 353.8C742.307 354.443 742.664 355.195 742.723 356.047C742.783 356.898 742.436 357.7 741.684 358.452C741.218 358.918 740.743 359.234 740.228 359.393C739.724 359.561 739.219 359.591 738.734 359.462C738.249 359.333 737.773 359.135 737.338 358.858C736.902 358.581 736.457 358.215 736.021 357.779C733.517 355.275 733.17 353.107 735.011 351.265C735.605 350.671 736.348 350.246 737.229 349.959L738.09 350.82C737.14 351.057 736.368 351.453 735.813 352.008C735.308 352.513 735.091 353.067 735.16 353.671C735.229 354.275 735.546 354.928 736.12 355.661C736.407 354.879 736.754 354.275 737.179 353.849ZM740.911 357.68C741.357 357.235 741.545 356.769 741.446 356.274C741.347 355.78 741.08 355.294 740.624 354.839C740.169 354.384 739.694 354.126 739.219 354.087C738.744 354.047 738.229 354.304 737.694 354.839C737.318 355.215 737.011 355.74 736.764 356.403L737.09 356.75C738.674 358.334 739.941 358.65 740.911 357.68Z" fill="#878787"/>
<path d="M865.854 373.401L869.111 370.144L869.834 371.065L865.478 375.421L864.656 374.599C865.042 372.411 865.201 370.788 865.132 369.709C865.072 368.64 864.765 367.818 864.211 367.264C863.32 366.373 862.37 366.412 861.39 367.392C860.805 367.976 860.429 368.729 860.231 369.64L859.35 368.759C859.657 367.877 860.152 367.086 860.845 366.393C861.518 365.719 862.231 365.343 862.983 365.264C863.736 365.185 864.478 365.512 865.211 366.244C865.468 366.501 865.676 366.789 865.844 367.095C866.013 367.402 866.131 367.739 866.191 368.115C866.26 368.501 866.3 368.877 866.32 369.214C866.339 369.57 866.32 370.006 866.26 370.501C866.201 371.016 866.141 371.471 866.072 371.857C866.013 372.253 865.924 372.758 865.815 373.362L865.854 373.401ZM873.674 367.423C872.744 368.353 871.803 368.7 870.823 368.472C869.853 368.254 868.794 367.571 867.646 366.423C866.517 365.294 865.844 364.265 865.646 363.314C865.448 362.364 865.814 361.424 866.745 360.493C867.665 359.572 868.616 359.216 869.566 359.414C870.516 359.612 871.556 360.275 872.674 361.394C873.813 362.532 874.496 363.592 874.724 364.572C874.951 365.552 874.595 366.502 873.674 367.423ZM867.517 361.265C866.953 361.829 866.774 362.423 866.972 363.037C867.17 363.671 867.745 364.443 868.685 365.383C869.635 366.334 870.437 366.938 871.091 367.155C871.744 367.373 872.348 367.205 872.902 366.651C873.457 366.096 873.615 365.502 873.397 364.849C873.179 364.195 872.585 363.384 871.635 362.433C870.695 361.493 869.912 360.929 869.289 360.721C868.665 360.533 868.071 360.711 867.517 361.265ZM878.003 362.896L872.093 356.986L871.103 357.976L870.48 357.352L871.727 355.61L872.212 355.124L878.993 361.906L878.003 362.896ZM882.373 358.526L881.244 359.655C880.294 358.705 879.531 357.487 878.957 355.962C878.383 354.458 878.027 352.874 877.868 351.211L874.364 354.715L873.542 353.893L877.928 349.508L878.641 350.221C878.829 351.814 879.264 353.359 879.918 354.844C880.581 356.339 881.402 357.556 882.373 358.526Z" fill="#878787"/>
<path d="M1006.42 373.798L1009.68 370.541L1010.4 371.462L1006.04 375.817L1005.22 374.996C1005.61 372.808 1005.77 371.184 1005.7 370.105C1005.64 369.036 1005.33 368.214 1004.78 367.66C1003.88 366.769 1002.93 366.809 1001.95 367.789C1001.37 368.373 1000.99 369.125 1000.8 370.036L999.915 369.155C1000.22 368.274 1000.72 367.482 1001.41 366.789C1002.08 366.116 1002.8 365.74 1003.55 365.66C1004.3 365.581 1005.04 365.908 1005.78 366.64C1006.03 366.898 1006.24 367.185 1006.41 367.492C1006.58 367.799 1006.7 368.135 1006.76 368.511C1006.82 368.898 1006.86 369.274 1006.88 369.61C1006.9 369.967 1006.88 370.402 1006.82 370.897C1006.77 371.412 1006.71 371.867 1006.64 372.253C1006.58 372.649 1006.49 373.154 1006.38 373.758L1006.42 373.798ZM1014.24 367.819C1013.31 368.75 1012.37 369.096 1011.39 368.868C1010.42 368.651 1009.36 367.968 1008.21 366.819C1007.08 365.691 1006.41 364.661 1006.21 363.711C1006.01 362.76 1006.38 361.82 1007.31 360.889C1008.23 359.969 1009.18 359.612 1010.13 359.81C1011.08 360.008 1012.12 360.672 1013.24 361.79C1014.38 362.929 1015.06 363.988 1015.29 364.968C1015.52 365.948 1015.16 366.898 1014.24 367.819ZM1008.08 361.662C1007.52 362.226 1007.34 362.82 1007.54 363.434C1007.73 364.067 1008.31 364.839 1009.25 365.78C1010.2 366.73 1011 367.334 1011.66 367.552C1012.31 367.77 1012.91 367.601 1013.47 367.047C1014.02 366.492 1014.18 365.899 1013.96 365.245C1013.74 364.592 1013.15 363.78 1012.2 362.83C1011.26 361.889 1010.48 361.325 1009.85 361.117C1009.23 360.929 1008.64 361.107 1008.08 361.662ZM1018.57 363.292L1012.66 357.382L1011.67 358.372L1011.04 357.748L1012.29 356.006L1012.78 355.521L1019.56 362.302L1018.57 363.292ZM1020.8 353.973C1021.45 353.755 1022.04 353.646 1022.56 353.656C1023.1 353.676 1023.57 353.894 1024.01 354.329C1024.58 354.904 1024.8 355.596 1024.66 356.408C1024.53 357.23 1024.13 357.972 1023.43 358.665C1022.68 359.418 1021.95 359.833 1021.23 359.913C1020.51 360.002 1019.9 359.784 1019.38 359.269C1019.04 358.923 1018.81 358.477 1018.71 357.923C1018.6 357.378 1018.69 356.775 1018.95 356.121C1018.38 356.309 1017.88 356.379 1017.42 356.319C1016.96 356.27 1016.54 356.052 1016.15 355.656C1015.65 355.161 1015.43 354.527 1015.51 353.735C1015.59 352.963 1015.96 352.241 1016.62 351.577C1017.31 350.884 1018 350.518 1018.66 350.449C1019.32 350.399 1019.9 350.597 1020.37 351.072C1021.13 351.825 1021.26 352.795 1020.8 353.973ZM1017.39 352.349C1017.04 352.706 1016.84 353.082 1016.79 353.448C1016.75 353.824 1016.88 354.151 1017.18 354.448C1017.33 354.607 1017.51 354.725 1017.71 354.785C1017.91 354.844 1018.15 354.844 1018.42 354.785C1018.71 354.735 1018.95 354.676 1019.14 354.607C1019.31 354.547 1019.59 354.448 1019.96 354.3C1020.2 353.438 1020.06 352.716 1019.49 352.151C1019.18 351.835 1018.83 351.706 1018.45 351.765C1018.08 351.825 1017.72 352.023 1017.39 352.349ZM1022.66 357.893C1023.06 357.497 1023.28 357.091 1023.34 356.636C1023.39 356.19 1023.27 355.814 1022.97 355.507C1022.81 355.349 1022.6 355.24 1022.38 355.181C1022.17 355.121 1021.93 355.121 1021.68 355.171C1021.43 355.22 1021.18 355.28 1020.93 355.369C1020.68 355.458 1020.41 355.567 1020.1 355.686C1019.98 355.745 1019.88 355.785 1019.82 355.804C1019.55 356.804 1019.71 357.596 1020.29 358.18C1020.59 358.477 1020.96 358.606 1021.39 358.566C1021.83 358.527 1022.25 358.299 1022.66 357.893Z" fill="#878787"/>
<path d="M1147.37 373.803L1150.63 370.546L1151.35 371.466L1147 375.822L1146.18 375C1146.56 372.813 1146.72 371.189 1146.65 370.11C1146.59 369.041 1146.29 368.219 1145.73 367.665C1144.84 366.774 1143.89 366.814 1142.91 367.794C1142.33 368.378 1141.95 369.13 1141.75 370.041L1140.87 369.16C1141.18 368.279 1141.67 367.487 1142.37 366.794C1143.04 366.121 1143.75 365.744 1144.5 365.665C1145.26 365.586 1146 365.913 1146.73 366.645C1146.99 366.903 1147.2 367.19 1147.37 367.497C1147.53 367.804 1147.65 368.14 1147.71 368.516C1147.78 368.902 1147.82 369.279 1147.84 369.615C1147.86 369.972 1147.84 370.407 1147.78 370.902C1147.72 371.417 1147.66 371.872 1147.59 372.258C1147.53 372.654 1147.44 373.159 1147.34 373.763L1147.37 373.803ZM1155.19 367.824C1154.26 368.754 1153.32 369.101 1152.34 368.873C1151.37 368.655 1150.31 367.972 1149.17 366.824C1148.04 365.695 1147.36 364.666 1147.17 363.716C1146.97 362.765 1147.33 361.825 1148.27 360.894C1149.19 359.974 1150.14 359.617 1151.09 359.815C1152.04 360.013 1153.08 360.676 1154.2 361.795C1155.33 362.934 1156.02 363.993 1156.24 364.973C1156.47 365.953 1156.12 366.903 1155.19 367.824ZM1149.04 361.666C1148.47 362.231 1148.3 362.825 1148.49 363.438C1148.69 364.072 1149.27 364.844 1150.21 365.785C1151.16 366.735 1151.96 367.339 1152.61 367.557C1153.26 367.774 1153.87 367.606 1154.42 367.052C1154.98 366.497 1155.14 365.903 1154.92 365.25C1154.7 364.597 1154.11 363.785 1153.16 362.835C1152.22 361.894 1151.43 361.33 1150.81 361.122C1150.19 360.934 1149.59 361.112 1149.04 361.666ZM1159.52 363.297L1153.61 357.387L1152.62 358.377L1152 357.753L1153.25 356.011L1153.73 355.526L1160.51 362.307L1159.52 363.297ZM1157.39 351.77C1157.84 351.315 1158.34 350.998 1158.84 350.83C1159.36 350.671 1159.85 350.652 1160.34 350.78C1160.82 350.909 1161.3 351.107 1161.74 351.384C1162.17 351.661 1162.62 352.008 1163.05 352.443C1165.57 354.958 1165.89 357.126 1164.06 358.957C1163.47 359.551 1162.74 359.987 1161.85 360.254L1160.99 359.393C1161.94 359.175 1162.7 358.779 1163.26 358.215C1164.22 357.255 1164.13 356.037 1162.96 354.552C1162.69 355.344 1162.32 355.948 1161.89 356.373C1161.11 357.156 1160.33 357.522 1159.55 357.453C1158.77 357.403 1158.05 357.047 1157.42 356.413C1156.79 355.78 1156.42 355.037 1156.36 354.186C1156.29 353.344 1156.63 352.532 1157.39 351.77ZM1161.38 355.384C1161.76 355.007 1162.08 354.483 1162.32 353.81L1161.99 353.463C1160.41 351.879 1159.13 351.572 1158.16 352.542C1157.71 352.998 1157.54 353.463 1157.63 353.948C1157.73 354.443 1158 354.918 1158.46 355.374C1158.92 355.839 1159.39 356.086 1159.86 356.126C1160.34 356.166 1160.84 355.918 1161.38 355.384Z" fill="#878787"/>
<path d="M1287.05 375.084L1290.31 371.827L1291.03 372.747L1286.68 377.103L1285.86 376.281C1286.24 374.094 1286.4 372.47 1286.33 371.391C1286.27 370.322 1285.97 369.5 1285.41 368.946C1284.52 368.055 1283.57 368.095 1282.59 369.075C1282.01 369.659 1281.63 370.411 1281.43 371.322L1280.55 370.441C1280.86 369.56 1281.35 368.768 1282.05 368.075C1282.72 367.402 1283.43 367.025 1284.18 366.946C1284.94 366.867 1285.68 367.194 1286.41 367.926C1286.67 368.184 1286.88 368.471 1287.05 368.778C1287.21 369.084 1287.33 369.421 1287.39 369.797C1287.46 370.183 1287.5 370.559 1287.52 370.896C1287.54 371.252 1287.52 371.688 1287.46 372.183C1287.4 372.698 1287.34 373.153 1287.27 373.539C1287.21 373.935 1287.12 374.44 1287.02 375.044L1287.05 375.084ZM1294.87 369.105C1293.94 370.035 1293 370.382 1292.02 370.154C1291.05 369.936 1289.99 369.253 1288.85 368.105C1287.72 366.976 1287.04 365.947 1286.85 364.997C1286.65 364.046 1287.01 363.106 1287.95 362.175C1288.87 361.255 1289.82 360.898 1290.77 361.096C1291.72 361.294 1292.76 361.957 1293.88 363.076C1295.01 364.214 1295.7 365.274 1295.92 366.254C1296.15 367.234 1295.8 368.184 1294.87 369.105ZM1288.72 362.947C1288.15 363.512 1287.98 364.106 1288.17 364.719C1288.37 365.353 1288.95 366.125 1289.89 367.066C1290.84 368.016 1291.64 368.62 1292.29 368.838C1292.94 369.055 1293.55 368.887 1294.1 368.333C1294.66 367.778 1294.82 367.184 1294.6 366.531C1294.38 365.878 1293.79 365.066 1292.84 364.115C1291.9 363.175 1291.11 362.611 1290.49 362.403C1289.87 362.215 1289.27 362.393 1288.72 362.947ZM1298.7 363.439L1301.96 360.182L1302.68 361.103L1298.32 365.459L1297.5 364.637C1297.89 362.449 1298.05 360.826 1297.98 359.747C1297.92 358.678 1297.61 357.856 1297.06 357.302C1296.16 356.411 1295.21 356.45 1294.23 357.43C1293.65 358.014 1293.27 358.767 1293.08 359.677L1292.2 358.796C1292.5 357.915 1293 357.123 1293.69 356.43C1294.36 355.757 1295.08 355.381 1295.83 355.302C1296.58 355.223 1297.32 355.549 1298.06 356.282C1298.31 356.539 1298.52 356.826 1298.69 357.133C1298.86 357.44 1298.98 357.777 1299.04 358.153C1299.11 358.539 1299.14 358.915 1299.16 359.252C1299.18 359.608 1299.16 360.044 1299.11 360.539C1299.05 361.053 1298.99 361.509 1298.92 361.895C1298.86 362.291 1298.77 362.796 1298.66 363.4L1298.7 363.439ZM1306.52 357.461C1305.59 358.391 1304.65 358.738 1303.67 358.51C1302.7 358.292 1301.64 357.609 1300.49 356.461C1299.36 355.332 1298.69 354.303 1298.49 353.352C1298.29 352.402 1298.66 351.461 1299.59 350.531C1300.51 349.61 1301.46 349.254 1302.41 349.452C1303.36 349.65 1304.4 350.313 1305.52 351.432C1306.66 352.57 1307.34 353.629 1307.57 354.609C1307.8 355.59 1307.44 356.54 1306.52 357.461ZM1300.36 351.303C1299.8 351.867 1299.62 352.461 1299.82 353.075C1300.02 353.709 1300.59 354.481 1301.53 355.421C1302.48 356.372 1303.28 356.975 1303.94 357.193C1304.59 357.411 1305.19 357.243 1305.75 356.688C1306.3 356.134 1306.46 355.54 1306.24 354.887C1306.02 354.233 1305.43 353.422 1304.48 352.471C1303.54 351.531 1302.76 350.966 1302.13 350.759C1301.51 350.57 1300.92 350.749 1300.36 351.303Z" fill="#878787"/>
<path d="M33 27.6875L174.742 46.705L316.097 68.1324L457.452 105.441L598.807 124.098L740.162 136.035L881.517 182.765L1022.87 224.469L1164.23 275.37L1303 294.28" stroke="#45A1BA" stroke-width="3"/>
<path d="M737.25 136.631C737.25 135.902 737.54 135.202 738.055 134.686C738.571 134.171 739.271 133.881 740 133.881C740.729 133.881 741.429 134.171 741.945 134.686C742.46 135.202 742.75 135.902 742.75 136.631C742.75 137.36 742.46 138.06 741.945 138.575C741.429 139.091 740.729 139.381 740 139.381C739.271 139.381 738.571 139.091 738.055 138.575C737.54 138.06 737.25 137.36 737.25 136.631Z" fill="white" stroke="#45A1BA" stroke-width="2.5"/>
<path d="M877.25 183.18C877.25 182.45 877.54 181.751 878.055 181.235C878.571 180.719 879.271 180.43 880 180.43C880.729 180.43 881.429 180.719 881.945 181.235C882.46 181.751 882.75 182.45 882.75 183.18C882.75 183.909 882.46 184.609 881.945 185.124C881.429 185.64 880.729 185.93 880 185.93C879.271 185.93 878.571 185.64 878.055 185.124C877.54 184.609 877.25 183.909 877.25 183.18Z" fill="white" stroke="#45A1BA" stroke-width="2.5"/>
<path d="M1018.25 224.65C1018.25 223.921 1018.54 223.222 1019.06 222.706C1019.57 222.19 1020.27 221.9 1021 221.9C1021.73 221.9 1022.43 222.19 1022.94 222.706C1023.46 223.222 1023.75 223.921 1023.75 224.65C1023.75 225.38 1023.46 226.079 1022.94 226.595C1022.43 227.111 1021.73 227.4 1021 227.4C1020.27 227.4 1019.57 227.111 1019.06 226.595C1018.54 226.079 1018.25 225.38 1018.25 224.65Z" fill="white" stroke="#45A1BA" stroke-width="2.5"/>
<path d="M1159.25 275.43C1159.25 274.7 1159.54 274.001 1160.06 273.485C1160.57 272.969 1161.27 272.68 1162 272.68C1162.73 272.68 1163.43 272.969 1163.94 273.485C1164.46 274.001 1164.75 274.7 1164.75 275.43C1164.75 276.159 1164.46 276.859 1163.94 277.374C1163.43 277.89 1162.73 278.18 1162 278.18C1161.27 278.18 1160.57 277.89 1160.06 277.374C1159.54 276.859 1159.25 276.159 1159.25 275.43Z" fill="white" stroke="#45A1BA" stroke-width="2.5"/>
<path d="M1300.25 294.895C1300.25 294.165 1300.54 293.466 1301.06 292.95C1301.57 292.434 1302.27 292.145 1303 292.145C1303.73 292.145 1304.43 292.434 1304.94 292.95C1305.46 293.466 1305.75 294.165 1305.75 294.895C1305.75 295.624 1305.46 296.323 1304.94 296.839C1304.43 297.355 1303.73 297.645 1303 297.645C1302.27 297.645 1301.57 297.355 1301.06 296.839C1300.54 296.323 1300.25 295.624 1300.25 294.895Z" fill="white" stroke="#45A1BA" stroke-width="2.5"/>
<path d="M596.25 125.629C596.25 124.9 596.54 124.2 597.055 123.684C597.571 123.169 598.271 122.879 599 122.879C599.729 122.879 600.429 123.169 600.945 123.684C601.46 124.2 601.75 124.9 601.75 125.629C601.75 126.358 601.46 127.058 600.945 127.573C600.429 128.089 599.729 128.379 599 128.379C598.271 128.379 597.571 128.089 597.055 127.573C596.54 127.058 596.25 126.358 596.25 125.629Z" fill="white" stroke="#45A1BA" stroke-width="2.5"/>
<path d="M453.25 105.318C453.25 104.589 453.54 103.89 454.055 103.374C454.571 102.858 455.271 102.568 456 102.568C456.729 102.568 457.429 102.858 457.945 103.374C458.46 103.89 458.75 104.589 458.75 105.318C458.75 106.048 458.46 106.747 457.945 107.263C457.429 107.779 456.729 108.068 456 108.068C455.271 108.068 454.571 107.779 454.055 107.263C453.54 106.747 453.25 106.048 453.25 105.318Z" fill="white" stroke="#45A1BA" stroke-width="2.5"/>
<path d="M310.25 68.9258C310.25 68.1964 310.54 67.497 311.055 66.9812C311.571 66.4655 312.271 66.1758 313 66.1758C313.729 66.1758 314.429 66.4655 314.945 66.9812C315.46 67.497 315.75 68.1964 315.75 68.9258C315.75 69.6551 315.46 70.3546 314.945 70.8703C314.429 71.3861 313.729 71.6758 313 71.6758C312.271 71.6758 311.571 71.3861 311.055 70.8703C310.54 70.3546 310.25 69.6551 310.25 68.9258Z" fill="white" stroke="#45A1BA" stroke-width="2.5"/>
<path d="M167.25 46.9219C167.25 46.1925 167.54 45.4931 168.055 44.9773C168.571 44.4616 169.271 44.1719 170 44.1719C170.729 44.1719 171.429 44.4616 171.945 44.9773C172.46 45.4931 172.75 46.1925 172.75 46.9219C172.75 47.6512 172.46 48.3507 171.945 48.8664C171.429 49.3821 170.729 49.6719 170 49.6719C169.271 49.6719 168.571 49.3821 168.055 48.8664C167.54 48.3507 167.25 47.6512 167.25 46.9219Z" fill="white" stroke="#45A1BA" stroke-width="2.5"/>
<path d="M29.25 28.3027C29.25 27.5734 29.5397 26.8739 30.0555 26.3582C30.5712 25.8425 31.2707 25.5527 32 25.5527C32.7293 25.5527 33.4288 25.8425 33.9445 26.3582C34.4603 26.8739 34.75 27.5734 34.75 28.3027C34.75 29.0321 34.4603 29.7316 33.9445 30.2473C33.4288 30.763 32.7293 31.0527 32 31.0527C31.2707 31.0527 30.5712 30.763 30.0555 30.2473C29.5397 29.7316 29.25 29.0321 29.25 28.3027Z" fill="white" stroke="#45A1BA" stroke-width="2.5"/>
</g>
<defs>
<clipPath id="clip0_1606_48284">
<rect width="1312" height="380" fill="white"/>
</clipPath>
</defs>
</svg>
