<svg width="304" height="304" viewBox="0 0 304 304" fill="none" xmlns="http://www.w3.org/2000/svg">
<path d="M152 0C113.772 -4.55867e-07 76.9473 14.4046 48.8654 40.3431C20.7836 66.2816 3.50662 101.849 0.477824 139.957C-2.55097 178.065 8.89081 215.915 32.5229 245.964C56.1549 276.013 90.2417 296.053 127.99 302.092C165.738 308.13 204.376 299.723 236.202 278.546C268.029 257.369 290.707 224.977 299.718 187.826C308.728 150.675 303.409 111.493 284.82 78.0885C266.231 44.6841 235.738 19.5107 199.417 7.58525L194.675 22.0267C227.364 32.7596 254.808 55.4157 271.538 85.4796C288.268 115.544 293.055 150.807 284.946 184.244C276.837 217.68 256.426 246.832 227.782 265.892C199.138 284.951 164.364 292.517 130.391 287.083C96.4176 281.648 65.7394 263.611 44.4706 236.567C23.2017 209.524 12.9041 175.459 15.63 141.161C18.356 106.864 33.9052 74.8535 59.1789 51.5088C84.4525 28.1642 117.595 15.2 152 15.2L152 0Z" fill="#E4F1F6"/>
<path d="M140.444 97.2743H144.252C145.788 97.2743 146.892 97.7383 147.596 98.6343C148.284 99.5463 148.636 100.874 148.636 102.634C148.636 106.314 147.164 108.154 144.252 108.154H140.444V97.2743ZM142.044 106.826H144.252C145.244 106.826 145.948 106.506 146.348 105.85C146.748 105.21 146.956 104.138 146.956 102.634C146.956 101.162 146.748 100.122 146.364 99.5143C145.964 98.9063 145.26 98.6023 144.252 98.6023H142.044V106.826ZM153.638 108.314C152.454 108.314 151.574 107.962 150.998 107.242C150.422 106.522 150.134 105.498 150.134 104.154C150.134 102.826 150.422 101.802 150.998 101.082C151.574 100.362 152.454 99.9943 153.638 99.9943C154.822 99.9943 155.702 100.362 156.278 101.082C156.854 101.802 157.158 102.826 157.158 104.154C157.158 105.498 156.854 106.522 156.278 107.242C155.702 107.962 154.822 108.314 153.638 108.314ZM153.638 101.114C152.918 101.114 152.406 101.37 152.102 101.866C151.798 102.378 151.654 103.13 151.654 104.154C151.654 105.178 151.798 105.946 152.102 106.442C152.406 106.954 152.918 107.194 153.638 107.194C154.358 107.194 154.87 106.954 155.174 106.442C155.478 105.946 155.638 105.178 155.638 104.154C155.638 103.13 155.478 102.378 155.174 101.866C154.87 101.37 154.358 101.114 153.638 101.114ZM161.515 101.13C161.051 101.13 160.715 101.226 160.491 101.402C160.267 101.594 160.155 101.818 160.155 102.106C160.155 102.394 160.283 102.65 160.571 102.858C160.859 103.082 161.195 103.258 161.595 103.418C161.995 103.578 162.395 103.738 162.795 103.914C163.195 104.106 163.531 104.362 163.819 104.698C164.107 105.05 164.251 105.45 164.251 105.914C164.251 106.65 163.979 107.242 163.467 107.674C162.939 108.106 162.251 108.314 161.419 108.314C160.427 108.314 159.531 108.138 158.747 107.754L158.571 106.458C159.467 106.938 160.379 107.178 161.307 107.178C161.787 107.178 162.155 107.082 162.379 106.858C162.603 106.634 162.731 106.378 162.731 106.058C162.731 105.77 162.587 105.514 162.299 105.29C162.011 105.082 161.675 104.906 161.291 104.746C160.891 104.586 160.491 104.426 160.091 104.234C159.691 104.042 159.355 103.77 159.067 103.418C158.779 103.066 158.651 102.634 158.651 102.122C158.651 101.434 158.907 100.906 159.451 100.538C159.995 100.186 160.667 99.9943 161.483 99.9943C162.299 99.9943 163.115 100.138 163.931 100.426L163.659 101.434L163.467 101.578C162.795 101.29 162.155 101.13 161.515 101.13Z" fill="#042B60"/>
<path d="M110.752 126.898V131.842C111.872 131.618 113.088 131.506 114.4 131.506C116.064 131.506 117.6 131.698 119.008 132.082C120.416 132.466 121.712 133.058 122.896 133.858C124.08 134.658 125.008 135.778 125.68 137.218C126.352 138.626 126.688 140.274 126.688 142.162C126.688 145.874 125.552 148.722 123.28 150.706C121.04 152.658 118.032 153.634 114.256 153.634C110.32 153.634 106.784 152.85 103.648 151.282V144.658C106.976 146.546 109.936 147.49 112.528 147.49C116.688 147.49 118.768 145.89 118.768 142.69C118.768 140.93 118.192 139.666 117.04 138.898C115.888 138.13 114.144 137.746 111.808 137.746C109.92 137.746 107.6 138.066 104.848 138.706V120.514H125.488V126.898H110.752ZM130.609 159.442L133.153 153.634C132.513 153.634 131.889 153.346 131.281 152.77C130.705 152.194 130.417 151.394 130.417 150.37C130.417 149.442 130.737 148.658 131.377 148.018C132.017 147.378 132.833 147.058 133.825 147.058C134.977 147.058 135.857 147.458 136.465 148.258C137.105 149.026 137.425 149.954 137.425 151.042C137.425 153.09 136.161 155.89 133.633 159.442H130.609ZM148.627 126.898V131.842C149.747 131.618 150.963 131.506 152.275 131.506C153.939 131.506 155.475 131.698 156.883 132.082C158.291 132.466 159.587 133.058 160.771 133.858C161.955 134.658 162.883 135.778 163.555 137.218C164.227 138.626 164.563 140.274 164.563 142.162C164.563 145.874 163.427 148.722 161.155 150.706C158.915 152.658 155.907 153.634 152.131 153.634C148.195 153.634 144.659 152.85 141.523 151.282V144.658C144.851 146.546 147.811 147.49 150.403 147.49C154.563 147.49 156.643 145.89 156.643 142.69C156.643 140.93 156.067 139.666 154.915 138.898C153.763 138.13 152.019 137.746 149.683 137.746C147.795 137.746 145.475 138.066 142.723 138.706V120.514H163.363V126.898H148.627ZM179.236 135.634C178.244 137.17 176.564 137.938 174.196 137.938C171.828 137.938 170.132 137.17 169.108 135.634C168.116 134.098 167.62 131.874 167.62 128.962C167.62 126.082 168.116 123.922 169.108 122.482C170.132 121.01 171.828 120.274 174.196 120.274C176.564 120.274 178.244 121.01 179.236 122.482C180.26 123.922 180.772 126.082 180.772 128.962C180.772 131.874 180.26 134.098 179.236 135.634ZM192.196 120.514H198.148L186.388 136.114L183.46 135.154L192.196 120.514ZM176.308 124.594C175.924 123.762 175.22 123.346 174.196 123.346C173.172 123.346 172.468 123.762 172.084 124.594C171.7 125.426 171.508 126.882 171.508 128.962C171.508 131.106 171.7 132.626 172.084 133.522C172.468 134.418 173.172 134.866 174.196 134.866C175.22 134.866 175.924 134.418 176.308 133.522C176.692 132.626 176.884 131.106 176.884 128.962C176.884 126.882 176.692 125.426 176.308 124.594ZM199.348 151.09C198.356 152.626 196.676 153.394 194.308 153.394C191.94 153.394 190.244 152.626 189.22 151.09C188.228 149.554 187.732 147.33 187.732 144.418C187.732 141.538 188.228 139.378 189.22 137.938C190.244 136.466 191.94 135.73 194.308 135.73C196.676 135.73 198.356 136.466 199.348 137.938C200.372 139.378 200.884 141.538 200.884 144.418C200.884 147.33 200.372 149.554 199.348 151.09ZM176.116 153.154H170.164L182.212 137.074L185.14 138.034L176.116 153.154ZM196.42 140.05C196.036 139.218 195.332 138.802 194.308 138.802C193.284 138.802 192.58 139.218 192.196 140.05C191.812 140.882 191.62 142.338 191.62 144.418C191.62 146.562 191.812 148.082 192.196 148.978C192.58 149.874 193.284 150.322 194.308 150.322C195.332 150.322 196.036 149.874 196.42 148.978C196.804 148.082 196.996 146.562 196.996 144.418C196.996 142.338 196.804 140.882 196.42 140.05Z" fill="#F7A600"/>
<path d="M93.9177 168.074V179.674H92.3977V175.114L91.4377 175.946C91.0377 176.202 90.5577 176.314 89.9977 176.314C89.0857 176.314 88.3817 175.93 87.8857 175.162C87.3737 174.394 87.1337 173.386 87.1337 172.154C87.1337 170.858 87.4377 169.834 88.0777 169.098C88.7177 168.362 89.5497 167.994 90.6057 167.994C91.3897 167.994 92.1257 168.25 92.8137 168.73L93.5497 168.074H93.9177ZM90.7177 175.178C91.0377 175.178 91.3577 175.114 91.6777 174.954C91.9817 174.794 92.2217 174.634 92.3977 174.442V169.386C91.8377 169.098 91.2777 168.954 90.7337 168.954C89.3417 168.954 88.6537 170.026 88.6537 172.154C88.6537 173.226 88.8137 173.994 89.1657 174.474C89.5017 174.954 90.0137 175.178 90.7177 175.178ZM100.815 175.162H100.783L99.9994 175.882C99.4554 176.17 98.9114 176.314 98.3354 176.314C97.6634 176.314 97.1194 176.122 96.7034 175.738C96.2874 175.354 96.0794 174.794 96.0794 174.058V168.154H97.5994V173.786C97.5994 174.65 97.9834 175.082 98.7514 175.082C99.3274 175.082 100.015 174.842 100.815 174.362V168.154H102.319V176.154H100.895L100.815 175.162ZM110.981 170.97C110.981 171.45 110.917 171.962 110.805 172.506H105.685C105.733 173.402 105.973 174.074 106.421 174.522C106.869 174.97 107.445 175.178 108.149 175.178C108.533 175.178 108.965 175.114 109.461 174.97C109.957 174.842 110.373 174.666 110.709 174.458V175.674C109.925 176.106 108.981 176.314 107.893 176.314C106.741 176.314 105.829 175.946 105.157 175.21C104.485 174.474 104.149 173.45 104.149 172.154C104.149 170.858 104.469 169.834 105.109 169.098C105.749 168.362 106.677 167.994 107.861 167.994C108.261 167.994 108.629 168.042 108.981 168.138C109.317 168.234 109.637 168.378 109.957 168.57C110.277 168.778 110.517 169.082 110.709 169.498C110.885 169.914 110.981 170.394 110.981 170.97ZM105.685 171.642L109.477 171.562C109.509 171.338 109.525 171.13 109.525 170.938C109.525 169.722 108.981 169.114 107.925 169.114C106.549 169.114 105.797 169.962 105.685 171.642ZM117.882 169.146H117.914L118.698 168.426C119.226 168.138 119.786 167.994 120.362 167.994C121.034 167.994 121.578 168.186 121.994 168.57C122.41 168.954 122.618 169.514 122.618 170.25V176.154H121.098V170.522C121.098 169.658 120.714 169.226 119.946 169.226C119.354 169.226 118.666 169.466 117.882 169.946V176.154H116.378V168.154H117.802L117.882 169.146ZM125.824 167.354H124.96C125.008 166.73 125.168 166.234 125.456 165.866C125.728 165.498 126.064 165.306 126.48 165.306C126.752 165.306 127.136 165.434 127.616 165.674C128.096 165.914 128.432 166.026 128.592 166.026C128.88 166.026 129.104 165.818 129.232 165.402H130.048C129.952 166.65 129.504 167.258 128.736 167.258C128.448 167.258 128.032 167.146 127.504 166.906C126.96 166.666 126.624 166.538 126.496 166.538C126.272 166.538 126.112 166.618 126.016 166.746C125.92 166.874 125.856 167.082 125.824 167.354ZM128.832 175.114L127.856 175.946C127.472 176.202 126.992 176.314 126.432 176.314C125.792 176.314 125.248 176.138 124.832 175.77C124.4 175.402 124.192 174.906 124.192 174.298C124.192 173.626 124.416 173.114 124.864 172.778C125.312 172.442 125.92 172.202 126.688 172.042L128.832 171.594V170.634C128.832 170.17 128.72 169.802 128.496 169.53C128.272 169.258 127.84 169.114 127.2 169.114C126.448 169.114 125.68 169.29 124.912 169.626L124.768 169.45L125.184 168.33C126 168.106 126.784 167.994 127.52 167.994C128.384 167.994 129.056 168.186 129.568 168.57C130.08 168.954 130.336 169.482 130.336 170.154V174.538C130.336 174.986 130.512 175.21 130.864 175.21C131.024 175.21 131.184 175.178 131.376 175.098V175.978C131.024 176.202 130.624 176.314 130.176 176.314C129.392 176.314 128.944 175.914 128.832 175.114ZM128.832 172.378L126.656 172.938C126.032 173.098 125.728 173.498 125.728 174.106C125.728 174.458 125.84 174.73 126.064 174.906C126.288 175.082 126.576 175.162 126.96 175.162C127.664 175.162 128.288 174.874 128.832 174.266V172.378ZM135.904 176.314C134.72 176.314 133.84 175.962 133.264 175.242C132.688 174.522 132.4 173.498 132.4 172.154C132.4 170.826 132.688 169.802 133.264 169.082C133.84 168.362 134.72 167.994 135.904 167.994C137.088 167.994 137.968 168.362 138.544 169.082C139.12 169.802 139.424 170.826 139.424 172.154C139.424 173.498 139.12 174.522 138.544 175.242C137.968 175.962 137.088 176.314 135.904 176.314ZM135.904 169.114C135.184 169.114 134.672 169.37 134.368 169.866C134.064 170.378 133.92 171.13 133.92 172.154C133.92 173.178 134.064 173.946 134.368 174.442C134.672 174.954 135.184 175.194 135.904 175.194C136.624 175.194 137.136 174.954 137.44 174.442C137.744 173.946 137.904 173.178 137.904 172.154C137.904 171.13 137.744 170.378 137.44 169.866C137.136 169.37 136.624 169.114 135.904 169.114ZM144.703 166.026C144.703 165.802 144.783 165.61 144.943 165.45C145.103 165.29 145.327 165.21 145.583 165.21C145.823 165.21 146.031 165.29 146.191 165.45C146.351 165.61 146.447 165.802 146.447 166.026C146.447 166.25 146.367 166.442 146.207 166.602C146.047 166.762 145.839 166.842 145.583 166.842C145.327 166.842 145.103 166.762 144.943 166.602C144.783 166.442 144.703 166.25 144.703 166.026ZM146.335 168.154V176.154H144.831V168.154H146.335ZM150.085 169.146H150.117L150.901 168.426C151.429 168.138 151.989 167.994 152.565 167.994C153.237 167.994 153.781 168.186 154.197 168.57C154.613 168.954 154.821 169.514 154.821 170.25V176.154H153.301V170.522C153.301 169.658 152.917 169.226 152.149 169.226C151.557 169.226 150.869 169.466 150.085 169.946V176.154H148.581V168.154H150.005L150.085 169.146ZM156.859 166.026C156.859 165.802 156.939 165.61 157.099 165.45C157.259 165.29 157.483 165.21 157.739 165.21C157.979 165.21 158.187 165.29 158.347 165.45C158.507 165.61 158.603 165.802 158.603 166.026C158.603 166.25 158.523 166.442 158.363 166.602C158.203 166.762 157.995 166.842 157.739 166.842C157.483 166.842 157.259 166.762 157.099 166.602C156.939 166.442 156.859 166.25 156.859 166.026ZM158.491 168.154V176.154H156.987V168.154H158.491ZM164.081 169.13C163.329 169.13 162.769 169.418 162.401 169.978C162.017 170.554 161.841 171.274 161.841 172.154C161.841 174.17 162.593 175.178 164.097 175.178C164.833 175.178 165.601 174.938 166.401 174.458V175.674C165.617 176.106 164.769 176.314 163.841 176.314C162.705 176.314 161.841 175.962 161.233 175.226C160.625 174.49 160.321 173.466 160.321 172.154C160.321 170.858 160.641 169.834 161.281 169.098C161.921 168.362 162.849 167.994 164.033 167.994C164.849 167.994 165.665 168.138 166.481 168.426L166.225 169.434L166.017 169.578C165.345 169.29 164.705 169.13 164.081 169.13ZM168.078 166.026C168.078 165.802 168.158 165.61 168.318 165.45C168.478 165.29 168.702 165.21 168.958 165.21C169.198 165.21 169.406 165.29 169.566 165.45C169.726 165.61 169.822 165.802 169.822 166.026C169.822 166.25 169.742 166.442 169.582 166.602C169.422 166.762 169.214 166.842 168.958 166.842C168.702 166.842 168.478 166.762 168.318 166.602C168.158 166.442 168.078 166.25 168.078 166.026ZM169.71 168.154V176.154H168.206V168.154H169.71ZM176.004 175.114L175.028 175.946C174.644 176.202 174.164 176.314 173.604 176.314C172.964 176.314 172.42 176.138 172.004 175.77C171.572 175.402 171.364 174.906 171.364 174.298C171.364 173.626 171.588 173.114 172.036 172.778C172.484 172.442 173.092 172.202 173.86 172.042L176.004 171.594V170.634C176.004 170.17 175.892 169.802 175.668 169.53C175.444 169.258 175.012 169.114 174.372 169.114C173.62 169.114 172.852 169.29 172.084 169.626L171.94 169.45L172.356 168.33C173.172 168.106 173.956 167.994 174.692 167.994C175.556 167.994 176.244 168.186 176.756 168.57C177.268 168.954 177.524 169.482 177.524 170.154V174.538C177.524 174.986 177.684 175.21 178.036 175.21C178.196 175.21 178.356 175.178 178.548 175.098V175.978C178.196 176.202 177.796 176.314 177.348 176.314C176.564 176.314 176.116 175.914 176.004 175.114ZM176.004 172.378L173.828 172.938C173.204 173.098 172.9 173.498 172.9 174.106C172.9 174.458 173.012 174.73 173.236 174.906C173.46 175.082 173.748 175.162 174.116 175.162C174.836 175.162 175.46 174.874 176.004 174.266V172.378ZM181.476 169.466H181.508L182.292 168.394C182.612 168.138 183.028 167.994 183.572 167.994C183.828 167.994 184.1 168.042 184.404 168.106L183.876 169.482C183.652 169.434 183.444 169.402 183.22 169.402C182.612 169.402 182.02 169.738 181.476 170.394V176.154H179.972V168.154H181.396L181.476 169.466ZM189.645 175.114L188.669 175.946C188.285 176.202 187.805 176.314 187.245 176.314C186.605 176.314 186.061 176.138 185.645 175.77C185.213 175.402 185.005 174.906 185.005 174.298C185.005 173.626 185.229 173.114 185.677 172.778C186.125 172.442 186.733 172.202 187.501 172.042L189.645 171.594V170.634C189.645 170.17 189.533 169.802 189.309 169.53C189.085 169.258 188.653 169.114 188.013 169.114C187.261 169.114 186.493 169.29 185.725 169.626L185.581 169.45L185.997 168.33C186.813 168.106 187.597 167.994 188.333 167.994C189.197 167.994 189.885 168.186 190.397 168.57C190.909 168.954 191.165 169.482 191.165 170.154V174.538C191.165 174.986 191.325 175.21 191.677 175.21C191.837 175.21 191.997 175.178 192.189 175.098V175.978C191.837 176.202 191.437 176.314 190.989 176.314C190.205 176.314 189.757 175.914 189.645 175.114ZM189.645 172.378L187.469 172.938C186.845 173.098 186.541 173.498 186.541 174.106C186.541 174.458 186.653 174.73 186.877 174.906C187.101 175.082 187.389 175.162 187.757 175.162C188.477 175.162 189.101 174.874 189.645 174.266V172.378ZM199.644 169.274L200.572 168.426C201.1 168.138 201.66 167.994 202.236 167.994C202.908 167.994 203.452 168.186 203.868 168.57C204.284 168.954 204.492 169.514 204.492 170.25V176.154H202.972V170.522C202.972 169.658 202.588 169.226 201.82 169.226C201.26 169.226 200.588 169.466 199.804 169.946V176.154H198.3V170.522C198.3 169.658 197.916 169.226 197.164 169.226C196.588 169.226 195.9 169.466 195.116 169.946V176.154H193.612V168.154H195.036L195.116 169.146H195.148L195.932 168.426C196.46 168.138 197.02 167.994 197.596 167.994C198.636 167.994 199.308 168.426 199.612 169.274H199.644ZM213.341 176.314C212.157 176.314 211.277 175.962 210.701 175.242C210.125 174.522 209.837 173.498 209.837 172.154C209.837 170.826 210.125 169.802 210.701 169.082C211.277 168.362 212.157 167.994 213.341 167.994C214.525 167.994 215.405 168.362 215.981 169.082C216.557 169.802 216.861 170.826 216.861 172.154C216.861 173.498 216.557 174.522 215.981 175.242C215.405 175.962 214.525 176.314 213.341 176.314ZM213.341 169.114C212.621 169.114 212.109 169.37 211.805 169.866C211.501 170.378 211.357 171.13 211.357 172.154C211.357 173.178 211.501 173.946 211.805 174.442C212.109 174.954 212.621 175.194 213.341 175.194C214.061 175.194 214.573 174.954 214.877 174.442C215.181 173.946 215.341 173.178 215.341 172.154C215.341 171.13 215.181 170.378 214.877 169.866C214.573 169.37 214.061 169.114 213.341 169.114ZM113.048 187.226V186.666L113.976 186.154L115.096 184.522H115.496V186.154H117.256V187.226H115.496V192.298C115.496 192.602 115.56 192.826 115.688 192.954C115.816 193.098 116.04 193.162 116.36 193.162C116.68 193.162 117.016 193.082 117.336 192.922V194.058C116.92 194.234 116.472 194.314 115.976 194.314C115.272 194.314 114.776 194.186 114.456 193.898C114.136 193.626 113.976 193.146 113.976 192.474V187.226H113.048ZM120.382 187.466H120.414L121.198 186.394C121.518 186.138 121.934 185.994 122.478 185.994C122.734 185.994 123.006 186.042 123.31 186.106L122.782 187.482C122.558 187.434 122.35 187.402 122.126 187.402C121.518 187.402 120.926 187.738 120.382 188.394V194.154H118.878V186.154H120.302L120.382 187.466ZM128.551 193.114L127.575 193.946C127.191 194.202 126.711 194.314 126.151 194.314C125.511 194.314 124.967 194.138 124.551 193.77C124.119 193.402 123.911 192.906 123.911 192.298C123.911 191.626 124.135 191.114 124.583 190.778C125.031 190.442 125.639 190.202 126.407 190.042L128.551 189.594V188.634C128.551 188.17 128.439 187.802 128.215 187.53C127.991 187.258 127.559 187.114 126.919 187.114C126.167 187.114 125.399 187.29 124.631 187.626L124.487 187.45L124.903 186.33C125.719 186.106 126.503 185.994 127.239 185.994C128.103 185.994 128.791 186.186 129.303 186.57C129.815 186.954 130.071 187.482 130.071 188.154V192.538C130.071 192.986 130.231 193.21 130.583 193.21C130.743 193.21 130.903 193.178 131.095 193.098V193.978C130.743 194.202 130.343 194.314 129.895 194.314C129.111 194.314 128.663 193.914 128.551 193.114ZM128.551 190.378L126.375 190.938C125.751 191.098 125.447 191.498 125.447 192.106C125.447 192.458 125.559 192.73 125.783 192.906C126.007 193.082 126.295 193.162 126.663 193.162C127.383 193.162 128.007 192.874 128.551 192.266V190.378ZM131.798 187.226V186.666L132.726 186.154L133.846 184.522H134.246V186.154H136.006V187.226H134.246V192.298C134.246 192.602 134.31 192.826 134.438 192.954C134.566 193.098 134.79 193.162 135.11 193.162C135.43 193.162 135.766 193.082 136.086 192.922V194.058C135.67 194.234 135.222 194.314 134.726 194.314C134.022 194.314 133.526 194.186 133.206 193.898C132.886 193.626 132.726 193.146 132.726 192.474V187.226H131.798ZM141.676 193.114L140.7 193.946C140.316 194.202 139.836 194.314 139.276 194.314C138.636 194.314 138.092 194.138 137.676 193.77C137.244 193.402 137.036 192.906 137.036 192.298C137.036 191.626 137.26 191.114 137.708 190.778C138.156 190.442 138.764 190.202 139.532 190.042L141.676 189.594V188.634C141.676 188.17 141.564 187.802 141.34 187.53C141.116 187.258 140.684 187.114 140.044 187.114C139.292 187.114 138.524 187.29 137.756 187.626L137.612 187.45L138.028 186.33C138.844 186.106 139.628 185.994 140.364 185.994C141.228 185.994 141.916 186.186 142.428 186.57C142.94 186.954 143.196 187.482 143.196 188.154V192.538C143.196 192.986 143.356 193.21 143.708 193.21C143.868 193.21 144.028 193.178 144.22 193.098V193.978C143.868 194.202 143.468 194.314 143.02 194.314C142.236 194.314 141.788 193.914 141.676 193.114ZM141.676 190.378L139.5 190.938C138.876 191.098 138.572 191.498 138.572 192.106C138.572 192.458 138.684 192.73 138.908 192.906C139.132 193.082 139.42 193.162 139.788 193.162C140.508 193.162 141.132 192.874 141.676 192.266V190.378ZM151.675 187.274L152.603 186.426C153.131 186.138 153.691 185.994 154.267 185.994C154.939 185.994 155.483 186.186 155.899 186.57C156.315 186.954 156.523 187.514 156.523 188.25V194.154H155.003V188.522C155.003 187.658 154.619 187.226 153.851 187.226C153.291 187.226 152.619 187.466 151.835 187.946V194.154H150.331V188.522C150.331 187.658 149.947 187.226 149.195 187.226C148.619 187.226 147.931 187.466 147.147 187.946V194.154H145.643V186.154H147.067L147.147 187.146H147.179L147.963 186.426C148.491 186.138 149.051 185.994 149.627 185.994C150.667 185.994 151.339 186.426 151.643 187.274H151.675ZM165.106 188.97C165.106 189.45 165.042 189.962 164.93 190.506H159.81C159.858 191.402 160.098 192.074 160.546 192.522C160.994 192.97 161.57 193.178 162.274 193.178C162.658 193.178 163.09 193.114 163.586 192.97C164.082 192.842 164.498 192.666 164.834 192.458V193.674C164.05 194.106 163.106 194.314 162.018 194.314C160.866 194.314 159.954 193.946 159.282 193.21C158.61 192.474 158.274 191.45 158.274 190.154C158.274 188.858 158.594 187.834 159.234 187.098C159.874 186.362 160.802 185.994 161.986 185.994C162.386 185.994 162.754 186.042 163.106 186.138C163.442 186.234 163.762 186.378 164.082 186.57C164.402 186.778 164.642 187.082 164.834 187.498C165.01 187.914 165.106 188.394 165.106 188.97ZM159.81 189.642L163.602 189.562C163.634 189.338 163.65 189.13 163.65 188.938C163.65 187.722 163.106 187.114 162.05 187.114C160.674 187.114 159.922 187.962 159.81 189.642ZM168.429 187.146H168.461L169.245 186.426C169.773 186.138 170.333 185.994 170.909 185.994C171.581 185.994 172.125 186.186 172.541 186.57C172.957 186.954 173.165 187.514 173.165 188.25V194.154H171.645V188.522C171.645 187.658 171.261 187.226 170.493 187.226C169.901 187.226 169.213 187.466 168.429 187.946V194.154H166.925V186.154H168.349L168.429 187.146ZM174.611 187.226V186.666L175.539 186.154L176.659 184.522H177.059V186.154H178.819V187.226H177.059V192.298C177.059 192.602 177.123 192.826 177.251 192.954C177.379 193.098 177.603 193.162 177.923 193.162C178.243 193.162 178.579 193.082 178.899 192.922V194.058C178.483 194.234 178.035 194.314 177.539 194.314C176.835 194.314 176.339 194.186 176.019 193.898C175.699 193.626 175.539 193.146 175.539 192.474V187.226H174.611ZM183.544 194.314C182.36 194.314 181.48 193.962 180.904 193.242C180.328 192.522 180.04 191.498 180.04 190.154C180.04 188.826 180.328 187.802 180.904 187.082C181.48 186.362 182.36 185.994 183.544 185.994C184.728 185.994 185.608 186.362 186.184 187.082C186.76 187.802 187.064 188.826 187.064 190.154C187.064 191.498 186.76 192.522 186.184 193.242C185.608 193.962 184.728 194.314 183.544 194.314ZM183.544 187.114C182.824 187.114 182.312 187.37 182.008 187.866C181.704 188.378 181.56 189.13 181.56 190.154C181.56 191.178 181.704 191.946 182.008 192.442C182.312 192.954 182.824 193.194 183.544 193.194C184.264 193.194 184.776 192.954 185.08 192.442C185.384 191.946 185.544 191.178 185.544 190.154C185.544 189.13 185.384 188.378 185.08 187.866C184.776 187.37 184.264 187.114 183.544 187.114Z" fill="#042B60"/>
<path d="M152 0C167.95 -1.90204e-07 183.801 2.51052 198.971 7.43941L194.274 21.8955C180.621 17.4595 166.355 15.2 152 15.2L152 0Z" fill="#F7A600"/>
</svg>
