<svg width="304" height="200" viewBox="0 0 304 200" fill="none" xmlns="http://www.w3.org/2000/svg">
<path d="M152 0C172.957 -2.49909e-07 193.384 6.58407 210.397 18.8222C227.409 31.0604 240.147 48.334 246.81 68.2033C253.474 88.0726 253.727 109.533 247.533 129.554C241.339 149.575 229.012 167.144 212.293 179.779L176.117 131.912C182.805 126.858 187.736 119.83 190.213 111.822C192.691 103.813 192.59 95.2291 189.924 87.2813C187.259 79.3336 182.164 72.4241 175.359 67.5289C168.554 62.6336 160.383 60 152 60L152 0Z" fill="#45A1BA"/>
<path d="M212.265 179.8C198.187 190.433 181.546 197.151 164.031 199.274C146.517 201.396 128.753 198.847 112.542 191.886C96.3309 184.925 82.2502 173.799 71.7288 159.637C61.2074 145.475 54.62 128.782 52.635 111.251L112.254 104.5C113.048 111.513 115.683 118.19 119.892 123.855C124.1 129.519 129.732 133.97 136.217 136.754C142.701 139.539 149.807 140.558 156.813 139.709C163.818 138.86 170.475 136.173 176.106 131.92L212.265 179.8Z" fill="#0083CA"/>
<path d="M52.6298 111.206C50.2273 89.9006 54.7358 68.3874 65.4902 49.8397C76.2446 31.2919 92.6755 16.6916 112.359 8.19259L136.144 63.277C128.27 66.6767 121.698 72.5168 117.396 79.9359C113.094 87.355 111.291 95.9602 112.252 104.482L52.6298 111.206Z" fill="#F7A600"/>
<path d="M112.374 8.18613C124.917 2.7728 138.436 -0.0131831 152.097 4.68942e-05L152.039 60C146.574 59.9947 141.167 61.1091 136.15 63.2745L112.374 8.18613Z" fill="#878787"/>
<g clip-path="url(#clip0_1554_47169)">
<path fill-rule="evenodd" clip-rule="evenodd" d="M135.63 100.363C140.051 100.363 146.471 98.6408 152.602 90.6442C158.732 98.6408 165.152 100.363 169.574 100.363H171.234C172.159 100.363 172.998 100.766 173.602 101.415V101.378C173.598 96.5891 172.865 92.4085 171.494 88.901C171.494 88.901 168.802 91.2148 165.802 88.8148C161.002 91.8148 157.259 86.2209 161.002 84.0148C157.402 81.6148 161.622 78.0351 161.622 78.0351C158.978 76.8363 155.953 76.2148 152.602 76.2148C139.693 76.2148 131.614 85.432 131.602 101.378V101.415C132.205 100.766 133.045 100.363 133.97 100.363H135.63Z" fill="#97D9FC"/>
<path fill-rule="evenodd" clip-rule="evenodd" d="M139.716 115.666C137.818 113.497 136.258 110.917 135.176 108.027L133.088 108.521C133.084 108.522 133.08 108.523 133.076 108.524L133.063 108.547C128.29 113.659 129.93 119.81 131.788 123.542C134.538 123.082 138.323 120.477 139.545 115.991L139.716 115.666Z" fill="#97D9FC"/>
<path fill-rule="evenodd" clip-rule="evenodd" d="M164.148 115.666C166.045 113.497 167.605 110.917 168.687 108.027L170.775 108.521C170.779 108.522 170.784 108.523 170.788 108.524L170.8 108.547C175.573 113.659 173.933 119.81 172.075 123.542C169.325 123.082 165.54 120.477 164.319 115.991L164.148 115.666Z" fill="#97D9FC"/>
<path fill-rule="evenodd" clip-rule="evenodd" d="M135.348 105.225V100.215C135.8 100.215 147.8 100.215 152.6 90.6152C158.6 100.215 168.653 100.215 168.653 100.215V105.225C168.653 107.235 168.208 109.199 167.354 111.018C166.061 113.774 163.91 116.037 161.317 117.61C158.512 119.311 155.275 120.164 152 120.164C148.726 120.164 145.488 119.311 142.684 117.609C140.091 116.037 137.939 113.774 136.646 111.018C135.792 109.199 135.348 107.235 135.348 105.225Z" stroke="#042B60" stroke-width="2" stroke-miterlimit="22.9256" stroke-linecap="round" stroke-linejoin="round"/>
<path d="M135.53 108.069H133.927C131.758 108.069 130 106.311 130 104.142C130 101.973 131.758 100.215 133.927 100.215H135.024" stroke="#042B60" stroke-width="2" stroke-miterlimit="22.9256" stroke-linecap="round" stroke-linejoin="round"/>
<path d="M168.469 108.069H170.072C172.241 108.069 173.999 106.311 173.999 104.142C173.999 101.973 172.241 100.215 170.072 100.215H168.974" stroke="#042B60" stroke-width="2" stroke-miterlimit="22.9256" stroke-linecap="round" stroke-linejoin="round"/>
<path d="M150.191 108.581C150.527 109.079 151.222 109.394 151.983 109.394C152.771 109.394 153.486 109.056 153.807 108.531" stroke="#042B60" stroke-width="2" stroke-miterlimit="22.9256" stroke-linecap="round" stroke-linejoin="round"/>
<path d="M159.297 103.996V105.513" stroke="#042B60" stroke-width="2" stroke-miterlimit="22.9256" stroke-linecap="round" stroke-linejoin="round"/>
<path d="M144.703 103.996V105.513" stroke="#042B60" stroke-width="2" stroke-miterlimit="22.9256" stroke-linecap="round" stroke-linejoin="round"/>
<circle cx="165.798" cy="84.0152" r="2.4" fill="#97D9FC"/>
<path d="M161.315 78.9009L160.687 79.5285C159.41 80.8055 159.74 83.3975 161.437 84.0147C159.74 84.6319 159.41 87.2238 160.687 88.5008L161.315 89.1285C162.592 90.4055 165.184 90.0755 165.801 88.3783C166.418 90.0755 169.01 90.4055 170.287 89.1285L170.915 88.5008C172.192 87.2238 171.862 84.6319 170.164 84.0147C171.862 83.3975 172.192 80.8055 170.915 79.5285L170.287 78.9009C169.01 77.6239 166.418 77.9538 165.801 79.6511C165.184 77.9538 162.592 77.6239 161.315 78.9009Z" stroke="#042B60" stroke-width="2" stroke-miterlimit="22.9256" stroke-linecap="round" stroke-linejoin="round"/>
</g>
<defs>
<clipPath id="clip0_1554_47169">
<rect width="48" height="48" fill="white" transform="translate(128 76.2148)"/>
</clipPath>
</defs>
</svg>
