<svg width="470" height="321" viewBox="0 0 470 321" fill="none" xmlns="http://www.w3.org/2000/svg">
<path d="M235 0.46875C268.531 0.46875 301.215 11.0033 328.435 30.5843C355.654 50.1653 376.035 77.8032 386.696 109.594C397.358 141.385 397.763 175.722 387.853 207.755C377.943 239.789 358.22 267.899 331.469 288.116L273.587 211.528C284.288 203.441 292.177 192.197 296.141 179.383C300.105 166.57 299.943 152.835 295.679 140.119C291.414 127.403 283.262 116.347 272.374 108.515C261.486 100.683 248.412 96.4687 235 96.4688L235 0.46875Z" fill="#45A1BA"/>
<path d="M331.425 288.149C308.899 305.161 282.273 315.91 254.25 319.307C226.227 322.703 197.805 318.625 171.867 307.487C145.929 296.348 123.4 278.546 106.566 255.887C89.7319 233.229 79.1919 206.519 76.0159 178.471L171.406 167.67C172.677 178.889 176.893 189.573 183.626 198.636C190.36 207.7 199.372 214.821 209.747 219.276C220.122 223.731 231.491 225.362 242.7 224.004C253.909 222.645 264.559 218.346 273.57 211.541L331.425 288.149Z" fill="#0083CA"/>
<path d="M76.0077 178.398C72.1637 144.31 79.3773 109.889 96.5844 80.2122C113.791 50.5358 140.081 27.1754 171.575 13.5769L209.63 101.712C197.032 107.151 186.517 116.496 179.634 128.366C172.751 140.237 169.865 154.005 171.403 167.64L76.0077 178.398Z" fill="#F7A600"/>
<path d="M171.599 13.5666C191.667 4.90523 213.297 0.447657 235.155 0.468825L235.062 96.4688C226.319 96.4603 217.667 98.2433 209.639 101.708L171.599 13.5666Z" fill="#878787"/>
<g clip-path="url(#clip0_1554_47173)">
<path fill-rule="evenodd" clip-rule="evenodd" d="M192.63 159.679C197.051 159.679 203.471 157.957 209.602 149.961C215.732 157.957 222.152 159.679 226.574 159.679H228.234C229.159 159.679 229.998 160.083 230.602 160.731V160.694C230.598 155.905 229.865 151.725 228.494 148.217C228.494 148.217 225.802 150.531 222.802 148.131C218.002 151.131 214.259 145.537 218.002 143.331C214.402 140.931 218.622 137.351 218.622 137.351C215.978 136.153 212.953 135.531 209.602 135.531C196.693 135.531 188.614 144.748 188.602 160.694V160.731C189.205 160.083 190.045 159.679 190.97 159.679H192.63Z" fill="#97D9FC"/>
<path fill-rule="evenodd" clip-rule="evenodd" d="M196.716 174.983C194.818 172.814 193.258 170.234 192.176 167.343L190.088 167.837C190.084 167.838 190.08 167.839 190.076 167.84L190.063 167.863C185.29 172.976 186.93 179.126 188.788 182.859C191.538 182.399 195.323 179.793 196.545 175.307L196.716 174.983Z" fill="#97D9FC"/>
<path fill-rule="evenodd" clip-rule="evenodd" d="M221.148 174.983C223.045 172.814 224.605 170.234 225.687 167.343L227.775 167.837C227.779 167.838 227.784 167.839 227.788 167.84L227.8 167.863C232.573 172.976 230.933 179.126 229.075 182.859C226.325 182.399 222.54 179.793 221.319 175.307L221.148 174.983Z" fill="#97D9FC"/>
<path fill-rule="evenodd" clip-rule="evenodd" d="M192.348 164.542V159.532C192.8 159.532 204.8 159.532 209.6 149.932C215.6 159.532 225.653 159.532 225.653 159.532V164.542C225.653 166.552 225.208 168.516 224.354 170.335C223.061 173.09 220.91 175.353 218.317 176.926C215.512 178.627 212.275 179.481 209 179.481C205.726 179.481 202.488 178.627 199.684 176.926C197.091 175.353 194.939 173.09 193.646 170.335C192.792 168.516 192.348 166.552 192.348 164.542Z" stroke="#042B60" stroke-width="2" stroke-miterlimit="22.9256" stroke-linecap="round" stroke-linejoin="round"/>
<path d="M192.53 167.385H190.927C188.758 167.385 187 165.627 187 163.458C187 161.289 188.758 159.531 190.927 159.531H192.024" stroke="#042B60" stroke-width="2" stroke-miterlimit="22.9256" stroke-linecap="round" stroke-linejoin="round"/>
<path d="M225.469 167.385H227.072C229.241 167.385 230.999 165.627 230.999 163.458C230.999 161.289 229.241 159.531 227.072 159.531H225.974" stroke="#042B60" stroke-width="2" stroke-miterlimit="22.9256" stroke-linecap="round" stroke-linejoin="round"/>
<path d="M207.191 167.897C207.527 168.395 208.222 168.711 208.983 168.711C209.771 168.711 210.486 168.373 210.807 167.848" stroke="#042B60" stroke-width="2" stroke-miterlimit="22.9256" stroke-linecap="round" stroke-linejoin="round"/>
<path d="M216.297 163.312V164.83" stroke="#042B60" stroke-width="2" stroke-miterlimit="22.9256" stroke-linecap="round" stroke-linejoin="round"/>
<path d="M201.703 163.312V164.83" stroke="#042B60" stroke-width="2" stroke-miterlimit="22.9256" stroke-linecap="round" stroke-linejoin="round"/>
<circle cx="222.798" cy="143.332" r="2.4" fill="#97D9FC"/>
<path d="M218.315 138.217L217.687 138.845C216.41 140.122 216.74 142.714 218.437 143.331C216.74 143.948 216.41 146.54 217.687 147.817L218.315 148.445C219.592 149.722 222.184 149.392 222.801 147.695C223.418 149.392 226.01 149.722 227.287 148.445L227.915 147.817C229.192 146.54 228.862 143.948 227.164 143.331C228.862 142.714 229.192 140.122 227.915 138.845L227.287 138.217C226.01 136.94 223.418 137.27 222.801 138.967C222.184 137.27 219.592 136.94 218.315 138.217Z" stroke="#042B60" stroke-width="2" stroke-miterlimit="22.9256" stroke-linecap="round" stroke-linejoin="round"/>
</g>
<path d="M280.202 159.513C281.402 158.229 281.402 153.482 281.402 153.482C281.402 145.737 277.111 136.731 261.002 136.731C244.892 136.732 240.602 147.452 240.602 154.823C240.602 154.823 240.602 156.926 241.802 159.531C242.42 158.191 243.074 158.843 244.311 158.843C244.311 156.401 246.616 154.823 248.02 154.823C251.729 154.823 252.002 156.926 261.002 156.926C270.602 156.926 274.064 154.823 274.064 154.823C276.435 154.823 277.556 157.423 277.729 158.843C277.729 158.843 279.583 158.843 280.202 159.513Z" fill="#97D9FC"/>
<path fill-rule="evenodd" clip-rule="evenodd" d="M244.199 164.088V158.725C244.199 156.505 245.919 154.731 248.025 154.731C248.025 154.731 254.946 156.837 260.999 156.866C267.052 156.895 273.926 154.731 273.926 154.731C276.058 154.731 277.799 156.462 277.799 158.725V164.088C277.799 166.22 277.351 168.303 276.489 170.232C275.185 173.155 273.014 175.554 270.398 177.222C267.569 179.026 264.303 179.931 260.999 179.931C257.696 179.931 254.43 179.026 251.6 177.222C248.984 175.554 246.814 173.154 245.509 170.232C244.648 168.303 244.199 166.22 244.199 164.088Z" stroke="#042B60" stroke-width="2" stroke-miterlimit="22.9256" stroke-linecap="round" stroke-linejoin="round"/>
<path d="M244.198 165.531H242.807C240.925 165.531 239.398 163.919 239.398 161.931C239.398 159.943 240.924 158.331 242.807 158.331H243.759" stroke="#042B60" stroke-width="2" stroke-miterlimit="22.9256" stroke-linecap="round" stroke-linejoin="round"/>
<path d="M277.797 165.531H279.188C281.071 165.531 282.597 163.919 282.597 161.931C282.597 159.943 281.071 158.331 279.188 158.331H278.236" stroke="#042B60" stroke-width="2" stroke-miterlimit="22.9256" stroke-linecap="round" stroke-linejoin="round"/>
<path d="M259.191 169.097C259.527 169.595 260.222 169.911 260.983 169.911C261.771 169.911 262.486 169.573 262.807 169.048" stroke="#042B60" stroke-width="2" stroke-miterlimit="22.9256" stroke-linecap="round" stroke-linejoin="round"/>
<path d="M268.293 162.113V163.631" stroke="#042B60" stroke-width="2" stroke-miterlimit="22.9256" stroke-linecap="round" stroke-linejoin="round"/>
<path d="M253.703 162.113V163.631" stroke="#042B60" stroke-width="2" stroke-miterlimit="22.9256" stroke-linecap="round" stroke-linejoin="round"/>
<path d="M316.096 138.963V139.083C317.296 139.299 318.208 139.731 318.88 140.403C319.552 141.075 319.888 141.867 319.888 142.827C319.888 144.459 319.288 145.707 318.112 146.523C316.912 147.363 315.352 147.771 313.384 147.771C312.52 147.771 311.584 147.675 310.576 147.459C309.568 147.243 308.68 146.955 307.96 146.595V143.283C309.496 144.243 311.104 144.699 312.808 144.699C313.72 144.699 314.488 144.531 315.064 144.195C315.64 143.859 315.952 143.355 315.952 142.659C315.952 141.315 314.704 140.643 312.208 140.643H310.24V137.859H312.208C314.584 137.859 315.784 137.187 315.784 135.843C315.784 135.219 315.472 134.763 314.896 134.475C314.32 134.187 313.648 134.043 312.928 134.043C311.536 134.043 310 134.475 308.32 135.339V132.123C309.856 131.355 311.584 130.971 313.528 130.971C315.28 130.971 316.744 131.355 317.896 132.075C319.048 132.819 319.624 133.875 319.624 135.243C319.624 137.235 318.448 138.483 316.096 138.963ZM328.076 130.971C332.252 130.971 334.364 133.539 334.364 138.651C334.364 144.747 331.988 147.771 327.284 147.771C325.484 147.771 323.924 147.387 322.628 146.595V143.379C323.924 144.267 325.292 144.699 326.732 144.699C327.74 144.699 328.508 144.435 329.036 143.907C329.564 143.379 329.924 142.539 330.116 141.363C329.108 141.795 328.1 142.011 327.14 142.011C325.508 142.011 324.212 141.531 323.3 140.571C322.364 139.611 321.908 138.339 321.908 136.707C321.908 135.051 322.436 133.683 323.54 132.603C324.644 131.523 326.156 130.971 328.076 130.971ZM328.364 139.395C329.036 139.395 329.684 139.275 330.308 139.011V138.267C330.308 136.875 330.14 135.819 329.804 135.099C329.468 134.403 328.844 134.043 327.98 134.043C327.236 134.043 326.708 134.307 326.372 134.811C326.036 135.315 325.868 135.939 325.868 136.707C325.868 137.619 326.06 138.315 326.444 138.747C326.828 139.179 327.452 139.395 328.364 139.395ZM336.405 150.675L337.677 147.771C337.341 147.771 337.029 147.627 336.741 147.339C336.453 147.051 336.309 146.667 336.309 146.139C336.309 145.683 336.453 145.299 336.789 144.963C337.101 144.651 337.509 144.483 338.013 144.483C338.589 144.483 339.021 144.699 339.333 145.083C339.645 145.467 339.813 145.947 339.813 146.475C339.813 147.507 339.165 148.899 337.917 150.675H336.405ZM348.065 147.531H343.433C343.433 145.275 343.961 143.019 345.065 140.739C346.169 138.459 347.705 136.347 349.721 134.403H341.297V131.211H353.057V133.995C351.425 135.963 350.177 138.147 349.337 140.523C348.473 142.923 348.065 145.251 348.065 147.531ZM357.694 139.923C356.494 139.923 355.654 139.539 355.15 138.771C354.646 138.003 354.406 136.899 354.406 135.435C354.406 133.995 354.646 132.915 355.15 132.195C355.654 131.475 356.494 131.091 357.694 131.091C358.87 131.091 359.71 131.475 360.238 132.195C360.742 132.915 361.006 133.995 361.006 135.435C361.006 136.899 360.742 138.003 360.238 138.771C359.71 139.539 358.87 139.923 357.694 139.923ZM366.694 131.211H369.67L363.79 139.011L362.326 138.531L366.694 131.211ZM357.694 132.627C357.166 132.627 356.83 132.843 356.638 133.251C356.446 133.683 356.35 134.403 356.35 135.435C356.35 136.491 356.446 137.259 356.638 137.715C356.83 138.171 357.166 138.387 357.694 138.387C358.198 138.387 358.558 138.171 358.75 137.715C358.942 137.283 359.038 136.515 359.038 135.435C359.038 134.403 358.942 133.683 358.75 133.251C358.558 132.843 358.198 132.627 357.694 132.627ZM367.75 147.651C366.55 147.651 365.71 147.267 365.206 146.499C364.702 145.731 364.462 144.627 364.462 143.163C364.462 141.723 364.702 140.643 365.206 139.923C365.71 139.203 366.55 138.819 367.75 138.819C368.926 138.819 369.766 139.203 370.27 139.923C370.774 140.643 371.038 141.723 371.038 143.163C371.038 144.627 370.774 145.731 370.27 146.499C369.766 147.267 368.926 147.651 367.75 147.651ZM358.654 147.531H355.678L361.702 139.491L363.166 139.971L358.654 147.531ZM367.75 140.355C367.222 140.355 366.886 140.571 366.694 140.979C366.502 141.411 366.406 142.131 366.406 143.163C366.406 144.219 366.502 144.987 366.694 145.443C366.886 145.899 367.222 146.115 367.75 146.115C368.254 146.115 368.614 145.899 368.806 145.443C368.998 145.011 369.094 144.243 369.094 143.163C369.094 142.131 368.998 141.411 368.806 140.979C368.614 140.571 368.254 140.355 367.75 140.355Z" fill="white"/>
<path d="M170.096 253.963V254.083C171.296 254.299 172.208 254.731 172.88 255.403C173.552 256.075 173.888 256.867 173.888 257.827C173.888 259.459 173.288 260.707 172.112 261.523C170.912 262.363 169.352 262.771 167.384 262.771C166.52 262.771 165.584 262.675 164.576 262.459C163.568 262.243 162.68 261.955 161.96 261.595V258.283C163.496 259.243 165.104 259.699 166.808 259.699C167.72 259.699 168.488 259.531 169.064 259.195C169.64 258.859 169.952 258.355 169.952 257.659C169.952 256.315 168.704 255.643 166.208 255.643H164.24V252.859H166.208C168.584 252.859 169.784 252.187 169.784 250.843C169.784 250.219 169.472 249.763 168.896 249.475C168.32 249.187 167.648 249.043 166.928 249.043C165.536 249.043 164 249.475 162.32 250.339V247.123C163.856 246.355 165.584 245.971 167.528 245.971C169.28 245.971 170.744 246.355 171.896 247.075C173.048 247.819 173.624 248.875 173.624 250.243C173.624 252.235 172.448 253.483 170.096 253.963ZM184.164 253.963V254.083C185.364 254.299 186.276 254.731 186.948 255.403C187.62 256.075 187.956 256.867 187.956 257.827C187.956 259.459 187.356 260.707 186.18 261.523C184.98 262.363 183.42 262.771 181.452 262.771C180.588 262.771 179.652 262.675 178.644 262.459C177.636 262.243 176.748 261.955 176.028 261.595V258.283C177.564 259.243 179.172 259.699 180.876 259.699C181.788 259.699 182.556 259.531 183.132 259.195C183.708 258.859 184.02 258.355 184.02 257.659C184.02 256.315 182.772 255.643 180.276 255.643H178.308V252.859H180.276C182.652 252.859 183.852 252.187 183.852 250.843C183.852 250.219 183.54 249.763 182.964 249.475C182.388 249.187 181.716 249.043 180.996 249.043C179.604 249.043 178.068 249.475 176.388 250.339V247.123C177.924 246.355 179.652 245.971 181.596 245.971C183.348 245.971 184.812 246.355 185.964 247.075C187.116 247.819 187.692 248.875 187.692 250.243C187.692 252.235 186.516 253.483 184.164 253.963ZM190.288 265.675L191.56 262.771C191.224 262.771 190.912 262.627 190.624 262.339C190.336 262.051 190.192 261.667 190.192 261.139C190.192 260.683 190.336 260.299 190.672 259.963C190.984 259.651 191.392 259.483 191.896 259.483C192.472 259.483 192.904 259.699 193.216 260.083C193.528 260.467 193.696 260.947 193.696 261.475C193.696 262.507 193.048 263.899 191.8 265.675H190.288ZM199.513 249.403V251.875C200.065 251.779 200.665 251.707 201.313 251.707C202.129 251.707 202.897 251.803 203.617 251.995C204.337 252.187 204.985 252.499 205.585 252.883C206.161 253.291 206.641 253.843 206.977 254.563C207.313 255.283 207.481 256.099 207.481 257.035C207.481 258.883 206.905 260.299 205.777 261.283C204.649 262.291 203.137 262.771 201.265 262.771C199.297 262.771 197.521 262.387 195.937 261.595V258.283C197.593 259.243 199.081 259.699 200.377 259.699C202.465 259.699 203.521 258.907 203.521 257.299C203.521 256.435 203.233 255.787 202.657 255.403C202.081 255.019 201.193 254.827 200.017 254.827C199.105 254.827 197.929 254.995 196.537 255.307V246.211H206.881V249.403H199.513ZM212.467 254.923C211.267 254.923 210.427 254.539 209.923 253.771C209.419 253.003 209.179 251.899 209.179 250.435C209.179 248.995 209.419 247.915 209.923 247.195C210.427 246.475 211.267 246.091 212.467 246.091C213.643 246.091 214.483 246.475 215.011 247.195C215.515 247.915 215.779 248.995 215.779 250.435C215.779 251.899 215.515 253.003 215.011 253.771C214.483 254.539 213.643 254.923 212.467 254.923ZM221.467 246.211H224.443L218.563 254.011L217.099 253.531L221.467 246.211ZM212.467 247.627C211.939 247.627 211.603 247.843 211.411 248.251C211.219 248.683 211.123 249.403 211.123 250.435C211.123 251.491 211.219 252.259 211.411 252.715C211.603 253.171 211.939 253.387 212.467 253.387C212.971 253.387 213.331 253.171 213.523 252.715C213.715 252.283 213.811 251.515 213.811 250.435C213.811 249.403 213.715 248.683 213.523 248.251C213.331 247.843 212.971 247.627 212.467 247.627ZM222.523 262.651C221.323 262.651 220.483 262.267 219.979 261.499C219.475 260.731 219.235 259.627 219.235 258.163C219.235 256.723 219.475 255.643 219.979 254.923C220.483 254.203 221.323 253.819 222.523 253.819C223.699 253.819 224.539 254.203 225.043 254.923C225.547 255.643 225.811 256.723 225.811 258.163C225.811 259.627 225.547 260.731 225.043 261.499C224.539 262.267 223.699 262.651 222.523 262.651ZM213.427 262.531H210.451L216.475 254.491L217.939 254.971L213.427 262.531ZM222.523 255.355C221.995 255.355 221.659 255.571 221.467 255.979C221.275 256.411 221.179 257.131 221.179 258.163C221.179 259.219 221.275 259.987 221.467 260.443C221.659 260.899 221.995 261.115 222.523 261.115C223.027 261.115 223.387 260.899 223.579 260.443C223.771 260.011 223.867 259.243 223.867 258.163C223.867 257.131 223.771 256.411 223.579 255.979C223.387 255.571 223.027 255.355 222.523 255.355Z" fill="white"/>
<path d="M119.552 108.339L119.312 111.531H107.936V108.339C110.336 106.875 112.184 105.531 113.48 104.331C114.776 103.131 115.424 101.931 115.424 100.731C115.424 98.9552 114.488 98.0432 112.64 98.0432C111.296 98.0432 109.856 98.4992 108.272 99.3632V96.1232C109.88 95.3552 111.584 94.9712 113.408 94.9712C115.256 94.9712 116.72 95.4272 117.824 96.3152C118.904 97.2032 119.456 98.5952 119.456 100.467C119.456 101.067 119.36 101.643 119.192 102.171C119.024 102.723 118.832 103.203 118.592 103.611C118.352 104.043 118.04 104.451 117.608 104.859C117.176 105.291 116.816 105.627 116.48 105.891C116.144 106.179 115.688 106.467 115.136 106.803C114.56 107.139 114.128 107.403 113.792 107.571C113.456 107.739 113.024 107.955 112.448 108.243V108.339H119.552ZM128.371 111.771C125.971 111.771 124.243 111.051 123.235 109.611C122.227 108.171 121.723 106.059 121.723 103.251C121.723 100.467 122.227 98.4032 123.235 97.0352C124.243 95.6672 125.947 94.9712 128.371 94.9712C130.771 94.9712 132.499 95.6672 133.507 97.0352C134.515 98.4032 135.043 100.467 135.043 103.251C135.043 106.059 134.515 108.171 133.507 109.611C132.475 111.051 130.771 111.771 128.371 111.771ZM128.371 98.0432C127.315 98.0432 126.619 98.4272 126.235 99.1712C125.851 99.9392 125.683 101.283 125.683 103.251C125.683 105.267 125.875 106.659 126.259 107.475C126.643 108.291 127.339 108.699 128.371 108.699C129.403 108.699 130.123 108.291 130.507 107.475C130.891 106.659 131.083 105.267 131.083 103.251C131.083 101.283 130.891 99.9392 130.507 99.1712C130.123 98.4272 129.427 98.0432 128.371 98.0432ZM137.319 114.675L138.591 111.771C138.255 111.771 137.943 111.627 137.655 111.339C137.367 111.051 137.223 110.667 137.223 110.139C137.223 109.683 137.367 109.299 137.703 108.963C138.015 108.651 138.423 108.483 138.927 108.483C139.503 108.483 139.935 108.699 140.247 109.083C140.559 109.467 140.727 109.947 140.727 110.475C140.727 111.507 140.079 112.899 138.831 114.675H137.319ZM151.129 102.963V103.083C152.329 103.299 153.241 103.731 153.913 104.403C154.585 105.075 154.921 105.867 154.921 106.827C154.921 108.459 154.321 109.707 153.145 110.523C151.945 111.363 150.385 111.771 148.417 111.771C147.553 111.771 146.617 111.675 145.609 111.459C144.601 111.243 143.713 110.955 142.993 110.595V107.283C144.529 108.243 146.137 108.699 147.841 108.699C148.753 108.699 149.521 108.531 150.097 108.195C150.673 107.859 150.985 107.355 150.985 106.659C150.985 105.315 149.737 104.643 147.241 104.643H145.273V101.859H147.241C149.617 101.859 150.817 101.187 150.817 99.8432C150.817 99.2192 150.505 98.7632 149.929 98.4752C149.353 98.1872 148.681 98.0432 147.961 98.0432C146.569 98.0432 145.033 98.4752 143.353 99.3392V96.1232C144.889 95.3552 146.617 94.9712 148.561 94.9712C150.313 94.9712 151.777 95.3552 152.929 96.0752C154.081 96.8192 154.657 97.8752 154.657 99.2432C154.657 101.235 153.481 102.483 151.129 102.963ZM160.085 103.923C158.885 103.923 158.045 103.539 157.541 102.771C157.037 102.003 156.797 100.899 156.797 99.4352C156.797 97.9952 157.037 96.9152 157.541 96.1952C158.045 95.4752 158.885 95.0912 160.085 95.0912C161.261 95.0912 162.101 95.4752 162.629 96.1952C163.133 96.9152 163.397 97.9952 163.397 99.4352C163.397 100.899 163.133 102.003 162.629 102.771C162.101 103.539 161.261 103.923 160.085 103.923ZM169.085 95.2112H172.061L166.181 103.011L164.717 102.531L169.085 95.2112ZM160.085 96.6272C159.557 96.6272 159.221 96.8432 159.029 97.2512C158.837 97.6832 158.741 98.4032 158.741 99.4352C158.741 100.491 158.837 101.259 159.029 101.715C159.221 102.171 159.557 102.387 160.085 102.387C160.589 102.387 160.949 102.171 161.141 101.715C161.333 101.283 161.429 100.515 161.429 99.4352C161.429 98.4032 161.333 97.6832 161.141 97.2512C160.949 96.8432 160.589 96.6272 160.085 96.6272ZM170.141 111.651C168.941 111.651 168.101 111.267 167.597 110.499C167.093 109.731 166.853 108.627 166.853 107.163C166.853 105.723 167.093 104.643 167.597 103.923C168.101 103.203 168.941 102.819 170.141 102.819C171.317 102.819 172.157 103.203 172.661 103.923C173.165 104.643 173.429 105.723 173.429 107.163C173.429 108.627 173.165 109.731 172.661 110.499C172.157 111.267 171.317 111.651 170.141 111.651ZM161.045 111.531H158.069L164.093 103.491L165.557 103.971L161.045 111.531ZM170.141 104.355C169.613 104.355 169.277 104.571 169.085 104.979C168.893 105.411 168.797 106.131 168.797 107.163C168.797 108.219 168.893 108.987 169.085 109.443C169.277 109.899 169.613 110.115 170.141 110.115C170.645 110.115 171.005 109.899 171.197 109.443C171.389 109.011 171.485 108.243 171.485 107.163C171.485 106.131 171.389 105.411 171.197 104.979C171.005 104.571 170.645 104.355 170.141 104.355Z" fill="white"/>
<path d="M192.136 39.7312C193.768 39.7312 195.04 40.2112 195.976 41.1712C196.912 42.1312 197.392 43.4272 197.392 45.0352C197.392 46.7152 196.84 48.0832 195.736 49.1632C194.632 50.2432 193.12 50.7713 191.2 50.7713C189.04 50.7713 187.456 50.0992 186.448 48.7552C185.44 47.4112 184.936 45.5152 184.936 43.0912C184.936 40.0192 185.536 37.7152 186.76 36.2272C187.96 34.7392 189.712 33.9712 191.992 33.9712C193.792 33.9712 195.352 34.3792 196.672 35.1472V38.3632C195.352 37.4992 193.984 37.0432 192.568 37.0432C191.56 37.0432 190.792 37.3073 190.264 37.8352C189.736 38.3632 189.376 39.2272 189.184 40.3792C190.096 39.9472 191.08 39.7312 192.136 39.7312ZM191.296 47.6992C192.016 47.6992 192.568 47.4592 192.904 46.9552C193.24 46.4512 193.432 45.8032 193.432 45.0352C193.432 44.1232 193.24 43.4512 192.856 43.0192C192.472 42.5872 191.824 42.3472 190.912 42.3472C190.288 42.3472 189.64 42.4672 188.992 42.7072V43.4753C188.992 44.8912 189.16 45.9472 189.496 46.6432C189.832 47.3633 190.432 47.6992 191.296 47.6992ZM199.619 53.6753L200.891 50.7713C200.555 50.7713 200.243 50.6273 199.955 50.3392C199.667 50.0512 199.523 49.6672 199.523 49.1392C199.523 48.6832 199.667 48.2992 200.003 47.9632C200.315 47.6512 200.723 47.4832 201.227 47.4832C201.803 47.4832 202.235 47.6992 202.547 48.0832C202.859 48.4672 203.027 48.9473 203.027 49.4752C203.027 50.5072 202.379 51.8993 201.131 53.6753H199.619ZM208.844 37.4032V39.8752C209.396 39.7792 209.996 39.7072 210.644 39.7072C211.46 39.7072 212.228 39.8032 212.948 39.9952C213.668 40.1872 214.316 40.4992 214.916 40.8832C215.492 41.2912 215.972 41.8432 216.308 42.5632C216.644 43.2832 216.812 44.0992 216.812 45.0352C216.812 46.8832 216.236 48.2992 215.108 49.2832C213.98 50.2912 212.468 50.7713 210.596 50.7713C208.628 50.7713 206.852 50.3872 205.268 49.5952V46.2832C206.924 47.2432 208.412 47.6992 209.708 47.6992C211.796 47.6992 212.852 46.9072 212.852 45.2992C212.852 44.4352 212.564 43.7872 211.988 43.4032C211.412 43.0192 210.524 42.8272 209.348 42.8272C208.436 42.8272 207.26 42.9952 205.868 43.3072V34.2112H216.212V37.4032H208.844ZM221.798 42.9232C220.598 42.9232 219.758 42.5392 219.254 41.7712C218.75 41.0032 218.51 39.8992 218.51 38.4352C218.51 36.9952 218.75 35.9152 219.254 35.1952C219.758 34.4752 220.598 34.0912 221.798 34.0912C222.974 34.0912 223.814 34.4752 224.342 35.1952C224.846 35.9152 225.11 36.9952 225.11 38.4352C225.11 39.8992 224.846 41.0032 224.342 41.7712C223.814 42.5392 222.974 42.9232 221.798 42.9232ZM230.798 34.2112H233.774L227.894 42.0112L226.43 41.5312L230.798 34.2112ZM221.798 35.6272C221.27 35.6272 220.934 35.8432 220.742 36.2512C220.55 36.6832 220.454 37.4032 220.454 38.4352C220.454 39.4912 220.55 40.2592 220.742 40.7152C220.934 41.1712 221.27 41.3872 221.798 41.3872C222.302 41.3872 222.662 41.1712 222.854 40.7152C223.046 40.2832 223.142 39.5152 223.142 38.4352C223.142 37.4032 223.046 36.6832 222.854 36.2512C222.662 35.8432 222.302 35.6272 221.798 35.6272ZM231.854 50.6513C230.654 50.6513 229.814 50.2672 229.31 49.4992C228.806 48.7312 228.566 47.6272 228.566 46.1632C228.566 44.7232 228.806 43.6432 229.31 42.9232C229.814 42.2032 230.654 41.8192 231.854 41.8192C233.03 41.8192 233.87 42.2032 234.374 42.9232C234.878 43.6432 235.142 44.7232 235.142 46.1632C235.142 47.6272 234.878 48.7312 234.374 49.4992C233.87 50.2672 233.03 50.6513 231.854 50.6513ZM222.758 50.5312H219.782L225.806 42.4912L227.27 42.9712L222.758 50.5312ZM231.854 43.3552C231.326 43.3552 230.99 43.5712 230.798 43.9792C230.606 44.4112 230.51 45.1312 230.51 46.1632C230.51 47.2192 230.606 47.9872 230.798 48.4432C230.99 48.8992 231.326 49.1152 231.854 49.1152C232.358 49.1152 232.718 48.8992 232.91 48.4432C233.102 48.0112 233.198 47.2432 233.198 46.1632C233.198 45.1312 233.102 44.4112 232.91 43.9792C232.718 43.5712 232.358 43.3552 231.854 43.3552Z" fill="white"/>
<defs>
<clipPath id="clip0_1554_47173">
<rect width="48" height="48" fill="white" transform="translate(185 135.531)"/>
</clipPath>
</defs>
</svg>
