<svg width="304" height="200" viewBox="0 0 304 200" fill="none" xmlns="http://www.w3.org/2000/svg">
<path d="M152 0C172.957 -2.49909e-07 193.384 6.58407 210.397 18.8222C227.409 31.0604 240.147 48.334 246.81 68.2033C253.474 88.0726 253.727 109.533 247.533 129.554C241.339 149.575 229.012 167.144 212.293 179.779L176.117 131.912C182.805 126.858 187.736 119.83 190.213 111.822C192.691 103.813 192.59 95.2291 189.924 87.2813C187.259 79.3336 182.164 72.4241 175.359 67.5289C168.554 62.6336 160.383 60 152 60L152 0Z" fill="#45A1BA"/>
<path d="M212.265 179.8C198.187 190.433 181.546 197.151 164.031 199.274C146.517 201.396 128.753 198.847 112.542 191.886C96.3309 184.925 82.2502 173.799 71.7288 159.637C61.2074 145.475 54.62 128.782 52.635 111.251L112.254 104.5C113.048 111.513 115.683 118.19 119.892 123.855C124.1 129.519 129.732 133.97 136.217 136.754C142.701 139.539 149.807 140.558 156.813 139.709C163.818 138.86 170.475 136.173 176.106 131.92L212.265 179.8Z" fill="#0083CA"/>
<path d="M52.6298 111.206C50.2273 89.9006 54.7358 68.3874 65.4902 49.8397C76.2446 31.2919 92.6755 16.6916 112.359 8.19259L136.144 63.277C128.27 66.6767 121.698 72.5168 117.396 79.9359C113.094 87.355 111.291 95.9602 112.252 104.482L52.6298 111.206Z" fill="#F7A600"/>
<path d="M112.374 8.18613C124.917 2.7728 138.436 -0.0131831 152.097 4.68942e-05L152.039 60C146.574 59.9947 141.167 61.1091 136.15 63.2745L112.374 8.18613Z" fill="#878787"/>
<path d="M171.202 100.196C172.402 98.9122 172.402 94.1661 172.402 94.1661C172.402 86.4205 168.111 77.4149 152.002 77.415C135.892 77.4151 131.602 88.1357 131.602 95.5061C131.602 95.5061 131.602 97.6093 132.802 100.215C133.42 98.875 134.074 99.5266 135.311 99.5266C135.311 97.085 137.616 95.5061 139.02 95.5061C142.729 95.5061 143.002 97.6093 152.002 97.6093C161.602 97.6093 165.064 95.5061 165.064 95.5061C167.435 95.5061 168.556 98.1068 168.729 99.5264C168.729 99.5264 170.583 99.5264 171.202 100.196Z" fill="#97D9FC"/>
<path fill-rule="evenodd" clip-rule="evenodd" d="M135.199 104.772V99.4085C135.199 97.1882 136.919 95.415 139.025 95.415C139.025 95.415 145.946 97.5207 151.999 97.5495C158.052 97.5784 164.926 95.415 164.926 95.415C167.058 95.415 168.799 97.1455 168.799 99.4085V104.772C168.799 106.904 168.351 108.987 167.489 110.916C166.185 113.838 164.014 116.238 161.398 117.906C158.569 119.71 155.303 120.615 151.999 120.615C148.696 120.615 145.43 119.71 142.6 117.906C139.984 116.238 137.814 113.838 136.509 110.916C135.648 108.987 135.199 106.904 135.199 104.772Z" stroke="#042B60" stroke-width="2" stroke-miterlimit="22.9256" stroke-linecap="round" stroke-linejoin="round"/>
<path d="M135.198 106.215H133.807C131.925 106.215 130.398 104.603 130.398 102.615C130.398 100.626 131.924 99.0146 133.807 99.0146H134.759" stroke="#042B60" stroke-width="2" stroke-miterlimit="22.9256" stroke-linecap="round" stroke-linejoin="round"/>
<path d="M168.797 106.215H170.188C172.071 106.215 173.597 104.603 173.597 102.615C173.597 100.626 172.071 99.0146 170.188 99.0146H169.236" stroke="#042B60" stroke-width="2" stroke-miterlimit="22.9256" stroke-linecap="round" stroke-linejoin="round"/>
<path d="M150.191 109.781C150.527 110.279 151.222 110.595 151.983 110.595C152.771 110.595 153.486 110.257 153.807 109.731" stroke="#042B60" stroke-width="2" stroke-miterlimit="22.9256" stroke-linecap="round" stroke-linejoin="round"/>
<path d="M159.293 102.797V104.314" stroke="#042B60" stroke-width="2" stroke-miterlimit="22.9256" stroke-linecap="round" stroke-linejoin="round"/>
<path d="M144.703 102.797V104.314" stroke="#042B60" stroke-width="2" stroke-miterlimit="22.9256" stroke-linecap="round" stroke-linejoin="round"/>
</svg>
