<svg width="24" height="24" viewBox="0 0 24 24" fill="none" xmlns="http://www.w3.org/2000/svg">
<g clip-path="url(#clip0_1534_40414)">
<mask id="path-1-inside-1_1534_40414" fill="white">
<path fill-rule="evenodd" clip-rule="evenodd" d="M11.7399 1.77804L2.24477 17.8467C2.1266 18.0467 2.27076 18.2993 2.50305 18.2993H21.4933C21.7255 18.2993 21.8697 18.0467 21.7515 17.8467L12.2564 1.77805C12.1403 1.58153 11.856 1.58154 11.7399 1.77804ZM0.781195 16.9818C-0.00662379 18.3151 0.954447 19.9993 2.50305 19.9993H21.4933C23.0419 19.9993 24.0029 18.3151 23.2151 16.9818L13.72 0.913208C12.9459 -0.396848 11.0504 -0.396852 10.2763 0.913203L0.781195 16.9818ZM11.9982 12.9993C11.4459 12.9993 10.9982 12.5516 10.9982 11.9993V7.9993C10.9982 7.44702 11.4459 6.9993 11.9982 6.9993C12.5504 6.9993 12.9982 7.44702 12.9982 7.9993V11.9993C12.9982 12.5516 12.5504 12.9993 11.9982 12.9993ZM11.9982 16.4993C12.5504 16.4993 12.9982 16.0516 12.9982 15.4993C12.9982 14.947 12.5504 14.4993 11.9982 14.4993C11.4459 14.4993 10.9982 14.947 10.9982 15.4993C10.9982 16.0516 11.4459 16.4993 11.9982 16.4993Z"/>
</mask>
<path fill-rule="evenodd" clip-rule="evenodd" d="M11.7399 1.77804L2.24477 17.8467C2.1266 18.0467 2.27076 18.2993 2.50305 18.2993H21.4933C21.7255 18.2993 21.8697 18.0467 21.7515 17.8467L12.2564 1.77805C12.1403 1.58153 11.856 1.58154 11.7399 1.77804ZM0.781195 16.9818C-0.00662379 18.3151 0.954447 19.9993 2.50305 19.9993H21.4933C23.0419 19.9993 24.0029 18.3151 23.2151 16.9818L13.72 0.913208C12.9459 -0.396848 11.0504 -0.396852 10.2763 0.913203L0.781195 16.9818ZM11.9982 12.9993C11.4459 12.9993 10.9982 12.5516 10.9982 11.9993V7.9993C10.9982 7.44702 11.4459 6.9993 11.9982 6.9993C12.5504 6.9993 12.9982 7.44702 12.9982 7.9993V11.9993C12.9982 12.5516 12.5504 12.9993 11.9982 12.9993ZM11.9982 16.4993C12.5504 16.4993 12.9982 16.0516 12.9982 15.4993C12.9982 14.947 12.5504 14.4993 11.9982 14.4993C11.4459 14.4993 10.9982 14.947 10.9982 15.4993C10.9982 16.0516 11.4459 16.4993 11.9982 16.4993Z" fill="#FABB00"/>
<path d="M2.24477 17.8467L1.38384 17.338L1.38384 17.338L2.24477 17.8467ZM11.7399 1.77804L12.6008 2.28677L12.6008 2.28677L11.7399 1.77804ZM21.7515 17.8467L22.6125 17.338L22.6125 17.338L21.7515 17.8467ZM12.2564 1.77805L11.3955 2.28677L11.3955 2.28678L12.2564 1.77805ZM0.781195 16.9818L-0.079732 16.4731L-0.079732 16.4731L0.781195 16.9818ZM23.2151 16.9818L22.3542 17.4906L22.3542 17.4906L23.2151 16.9818ZM13.72 0.913208L12.8591 1.42194L12.8591 1.42194L13.72 0.913208ZM10.2763 0.913203L11.1372 1.42193L11.1372 1.42193L10.2763 0.913203ZM3.1057 18.3554L12.6008 2.28677L10.879 1.26931L1.38384 17.338L3.1057 18.3554ZM2.50305 17.2993C3.04506 17.2993 3.38143 17.8888 3.1057 18.3554L1.38384 17.338C0.871761 18.2046 1.49646 19.2993 2.50305 19.2993V17.2993ZM21.4933 17.2993H2.50305V19.2993H21.4933V17.2993ZM20.8906 18.3554C20.6149 17.8888 20.9512 17.2993 21.4933 17.2993V19.2993C22.4999 19.2993 23.1245 18.2045 22.6125 17.338L20.8906 18.3554ZM11.3955 2.28678L20.8906 18.3554L22.6125 17.338L13.1174 1.26932L11.3955 2.28678ZM12.6008 2.28677C12.3299 2.74529 11.6664 2.7453 11.3955 2.28677L13.1174 1.26932C12.6142 0.417765 11.3821 0.417794 10.8789 1.26931L12.6008 2.28677ZM2.50305 18.9993C1.72875 18.9993 1.24821 18.1572 1.64212 17.4906L-0.079732 16.4731C-1.26146 18.473 0.180147 20.9993 2.50305 20.9993V18.9993ZM21.4933 18.9993H2.50305V20.9993H21.4933V18.9993ZM22.3542 17.4906C22.7481 18.1572 22.2676 18.9993 21.4933 18.9993V20.9993C23.8161 20.9993 25.2578 18.473 24.076 16.4731L22.3542 17.4906ZM12.8591 1.42194L22.3542 17.4906L24.076 16.4731L14.5809 0.404478L12.8591 1.42194ZM11.1372 1.42193C11.5243 0.766909 12.472 0.766906 12.8591 1.42194L14.5809 0.404478C13.4197 -1.5606 10.5766 -1.56061 9.41537 0.404474L11.1372 1.42193ZM1.64212 17.4906L11.1372 1.42193L9.41537 0.404474L-0.079732 16.4731L1.64212 17.4906ZM9.99815 11.9993C9.99815 13.1039 10.8936 13.9993 11.9982 13.9993V11.9993H9.99815ZM9.99815 7.9993V11.9993H11.9982V7.9993H9.99815ZM11.9982 5.9993C10.8936 5.9993 9.99815 6.89473 9.99815 7.9993H11.9982V5.9993ZM13.9982 7.9993C13.9982 6.89473 13.1027 5.9993 11.9982 5.9993V7.9993H13.9982ZM13.9982 11.9993V7.9993H11.9982V11.9993H13.9982ZM11.9982 13.9993C13.1027 13.9993 13.9982 13.1039 13.9982 11.9993H11.9982V13.9993ZM11.9982 15.4993V17.4993C13.1027 17.4993 13.9982 16.6039 13.9982 15.4993H11.9982ZM11.9982 15.4993H13.9982C13.9982 14.3947 13.1027 13.4993 11.9982 13.4993V15.4993ZM11.9982 15.4993V13.4993C10.8936 13.4993 9.99815 14.3947 9.99815 15.4993H11.9982ZM11.9982 15.4993H9.99815C9.99815 16.6039 10.8936 17.4993 11.9982 17.4993V15.4993Z" fill="#042B60" mask="url(#path-1-inside-1_1534_40414)"/>
</g>
<defs>
<clipPath id="clip0_1534_40414">
<rect width="24" height="24" fill="white"/>
</clipPath>
</defs>
</svg>
