<svg width="48" height="48" viewBox="0 0 48 48" fill="none" xmlns="http://www.w3.org/2000/svg">
<path d="M43.4359 26.25L45.3084 8.04349C45.4332 6.83058 43.8836 6.22124 43.1488 7.19423V7.19423C42.6668 7.83242 41.7082 7.83242 41.2262 7.19423L40.4062 6.10852C39.5131 4.92598 37.7368 4.926 36.8437 6.10854V6.10854C35.9506 7.29107 34.1743 7.29108 33.2812 6.10854V6.10854C32.3881 4.926 30.6118 4.92601 29.7187 6.10854V6.10854C28.8256 7.29107 27.0493 7.29108 26.1563 6.10854V6.10854C25.2632 4.926 23.4869 4.92601 22.5938 6.10853V6.10853C21.7007 7.29107 19.9244 7.29108 19.0313 6.10854V6.10854C18.1382 4.926 16.3618 4.926 15.4687 6.10854V6.10854C14.5756 7.29107 12.7993 7.29108 11.9063 6.10854V6.10854C11.0132 4.926 9.2369 4.92598 8.34381 6.10851L7.52383 7.19423C7.04184 7.83242 6.08321 7.83242 5.60122 7.19423V7.19423C4.86638 6.22124 3.31683 6.83059 3.44158 8.04349L5.31407 26.25" stroke="#042B60" stroke-width="2" stroke-miterlimit="2.6131" stroke-linecap="round" stroke-linejoin="round"/>
<path fill-rule="evenodd" clip-rule="evenodd" d="M7.5 30.576C7.5 38.9564 15.0552 45.75 24.3751 45.75C33.6949 45.75 41.25 38.9564 41.25 30.576V23.8637C41.2501 18.9684 37.2968 15 32.4203 15C28.9065 15 25.7834 17.082 24.3753 20.2092C22.9704 17.0894 19.8519 15 16.33 15C11.4535 15 7.50021 18.9685 7.50011 23.8637L7.5 30.576Z" fill="#B1D6E4"/>
<path d="M22.5 33.0428C22.8485 33.4757 23.5693 33.75 24.3586 33.75C25.1759 33.75 25.9169 33.4562 26.25 33" stroke="#042B60" stroke-width="2" stroke-miterlimit="22.9256" stroke-linecap="round" stroke-linejoin="round"/>
<path d="M31.2969 27.1797V28.697" stroke="#042B60" stroke-width="2" stroke-miterlimit="22.9256" stroke-linecap="round" stroke-linejoin="round"/>
<path d="M16.7031 27.1797V28.697" stroke="#042B60" stroke-width="2" stroke-miterlimit="22.9256" stroke-linecap="round" stroke-linejoin="round"/>
<path fill-rule="evenodd" clip-rule="evenodd" d="M40.4877 32.25H42.5509C44.7319 32.25 46.5 30.5711 46.5 28.5001C46.5 26.429 44.7319 24.7501 42.5509 24.7501H40.6711M8.0467 24.75H6.19921C4.01807 24.75 2.25 26.4289 2.25 28.5C2.25 30.571 4.01807 32.2499 6.19921 32.2499H8.2299" fill="#B1D6E4"/>
</svg>
