<svg width="48" height="48" viewBox="0 0 48 48" fill="none" xmlns="http://www.w3.org/2000/svg">
<path d="M36.1397 23.6502V17.6524C36.1397 9.52556 29.5597 2.9375 21.443 2.9375C13.3261 2.9375 6.74609 9.52555 6.74609 17.6523V23.6501C15.099 19.2555 27.7826 19.2682 36.1397 23.6502Z" fill="#B1D6E4"/>
<path d="M40.3336 19.8955H36.5C36.5 16.6395 39.1351 14 42.3857 14H46.2193C46.2193 17.2559 43.5842 19.8955 40.3336 19.8955Z" fill="#B1D6E4" stroke="#042B60" stroke-width="2" stroke-miterlimit="10" stroke-linecap="round" stroke-linejoin="round"/>
<path d="M46.2193 25.7911H42.3857C39.1351 25.7911 36.5 23.1516 36.5 19.8955H40.3336C43.5842 19.8955 46.2193 22.535 46.2193 25.7911Z" fill="#B1D6E4" stroke="#042B60" stroke-width="2" stroke-miterlimit="10" stroke-linecap="round" stroke-linejoin="round"/>
<path d="M15.4023 26.292V27.9866" stroke="#042B60" stroke-width="2" stroke-miterlimit="10" stroke-linecap="round" stroke-linejoin="round"/>
<path d="M27.4805 26.292V27.9866" stroke="#042B60" stroke-width="2" stroke-miterlimit="10" stroke-linecap="round" stroke-linejoin="round"/>
<path d="M19.3945 34.6279C19.7862 35.2096 20.5963 35.578 21.4833 35.578C22.4019 35.578 23.2346 35.1833 23.609 34.5703" stroke="#042B60" stroke-width="2" stroke-miterlimit="22.9256" stroke-linecap="round" stroke-linejoin="round"/>
<path d="M36.357 23.6018V17.6919C36.357 9.57778 29.7053 3 21.5 3C13.2946 3 6.64287 9.57778 6.64287 17.6918V23.6017C4.6169 23.6838 3 25.3338 3 27.3574C3 29.388 4.62839 31.0425 6.6643 31.1138C7.5 38.5 13 44.5 21.6453 44.5C30.4827 44.5 36 38 36.3357 31.1138C38.3716 31.0425 40 29.388 40 27.3574C39.9999 25.3339 38.3829 23.6838 36.357 23.6018Z" stroke="#042B60" stroke-width="2" stroke-miterlimit="10" stroke-linecap="round" stroke-linejoin="round"/>
</svg>
