<svg width="1312" height="380" viewBox="0 0 1312 380" fill="none" xmlns="http://www.w3.org/2000/svg">
<g clip-path="url(#clip0_1610_48335)">
<path d="M45 5.71484H1304" stroke="#E2E2E2"/>
<path d="M45 86.4648H1304" stroke="#E2E2E2"/>
<path d="M45 167.215H1304" stroke="#E2E2E2"/>
<path d="M45 247.965H1304" stroke="#E2E2E2"/>
<path d="M45 328.715H1304" stroke="#E2E2E2"/>
<path d="M22.4297 10.0664H20.8337C20.8337 8.72241 21.1557 7.32241 21.8277 5.83841C22.4857 4.36841 23.3537 2.99641 24.4177 1.70841H19.4617V0.546406H25.6637V1.55441C24.6697 2.81441 23.8857 4.21441 23.2977 5.72641C22.7097 7.25241 22.4297 8.69441 22.4297 10.0664ZM27.9603 -0.0135942H28.2823V10.0664H26.9663V0.546406L27.9603 -0.0135942ZM31.4183 10.0664L28.5623 6.42641L31.3063 3.06641H32.4683V3.36041L30.0183 6.34241L32.7483 9.77241V10.0664H31.4183Z" fill="#878787"/>
<path d="M2.46655 82.7084V85.1164C2.84455 85.0324 3.23655 84.9904 3.62855 84.9904C4.63655 84.9904 5.47655 85.2424 6.14855 85.7464C6.80655 86.2504 7.14255 87.0484 7.14255 88.1404C7.14255 89.1204 6.82055 89.8764 6.20455 90.4084C5.58855 90.9404 4.76255 91.2064 3.75455 91.2064C2.84455 91.2064 1.93455 90.9964 1.02455 90.5624V89.3304C2.00455 89.8624 2.88655 90.1144 3.64255 90.1144C4.98655 90.1144 5.67255 89.4564 5.67255 88.1124C5.67255 87.3704 5.46255 86.8524 5.04255 86.5584C4.62255 86.2644 4.02055 86.1104 3.26455 86.1104C2.73255 86.1104 2.10255 86.1944 1.37455 86.3624V81.5464H6.79255V82.7084H2.46655ZM8.65772 92.6484L9.32972 91.2064C9.13372 91.2064 8.95172 91.1504 8.79772 91.0104C8.64372 90.8844 8.57372 90.7024 8.57372 90.4644C8.57372 90.2684 8.64372 90.0864 8.78372 89.9464C8.92372 89.8064 9.10572 89.7364 9.32972 89.7364C9.58172 89.7364 9.77772 89.8344 9.91772 90.0024C10.0577 90.1704 10.1277 90.3804 10.1277 90.6184C10.1277 91.1084 9.83372 91.7804 9.27372 92.6484H8.65772ZM13.2019 89.9044H17.8079L17.6679 91.0664H11.5079V89.9044C13.3279 88.6304 14.5879 87.5944 15.3019 86.7824C16.0159 85.9844 16.3799 85.1864 16.3799 84.4024C16.3799 83.1424 15.6799 82.4984 14.2939 82.4984C13.4679 82.4984 12.6699 82.7644 11.8859 83.2684V82.0224C12.7259 81.6164 13.6359 81.4064 14.6159 81.4064C15.5679 81.4064 16.3379 81.6444 16.9259 82.1204C17.5139 82.5964 17.8079 83.3524 17.8079 84.3884C17.8079 84.7524 17.7519 85.1024 17.6539 85.4384C17.5559 85.7744 17.4019 86.0964 17.1779 86.4044C16.9539 86.7264 16.7159 87.0204 16.4919 87.2724C16.2539 87.5384 15.9319 87.8324 15.5399 88.1404C15.1339 88.4624 14.7699 88.7424 14.4479 88.9664C14.1259 89.2044 13.7059 89.4984 13.2019 89.8484V89.9044ZM20.6912 82.7084V85.1164C21.0692 85.0324 21.4612 84.9904 21.8532 84.9904C22.8612 84.9904 23.7012 85.2424 24.3732 85.7464C25.0312 86.2504 25.3672 87.0484 25.3672 88.1404C25.3672 89.1204 25.0452 89.8764 24.4292 90.4084C23.8132 90.9404 22.9872 91.2064 21.9792 91.2064C21.0692 91.2064 20.1592 90.9964 19.2492 90.5624V89.3304C20.2292 89.8624 21.1112 90.1144 21.8672 90.1144C23.2112 90.1144 23.8972 89.4564 23.8972 88.1124C23.8972 87.3704 23.6872 86.8524 23.2672 86.5584C22.8472 86.2644 22.2452 86.1104 21.4892 86.1104C20.9572 86.1104 20.3272 86.1944 19.5992 86.3624V81.5464H25.0172V82.7084H20.6912ZM27.9603 80.9864H28.2823V91.0664H26.9663V81.5464L27.9603 80.9864ZM31.4183 91.0664L28.5623 87.4264L31.3063 84.0664H32.4683V84.3604L30.0183 87.3424L32.7483 90.7724V91.0664H31.4183Z" fill="#878787"/>
<path d="M12.4234 167.124V167.194C13.0674 167.278 13.5994 167.53 14.0334 167.922C14.4534 168.314 14.6774 168.846 14.6774 169.49C14.6774 170.358 14.3554 171.016 13.7394 171.492C13.1234 171.968 12.2974 172.206 11.2614 172.206C10.3654 172.206 9.44139 171.996 8.46139 171.562V170.33C9.38539 170.862 10.2814 171.114 11.1494 171.114C11.7934 171.114 12.3114 170.974 12.7034 170.68C13.0814 170.4 13.2774 169.98 13.2774 169.448C13.2774 168.888 13.0254 168.468 12.5354 168.188C12.0454 167.908 11.4014 167.768 10.6034 167.768H9.73539V166.704H10.6034C10.9954 166.704 11.3734 166.662 11.7094 166.578C12.0454 166.494 12.3674 166.326 12.6474 166.046C12.9274 165.766 13.0814 165.416 13.0814 164.968C13.0814 164.492 12.8994 164.128 12.5494 163.876C12.1854 163.624 11.7514 163.498 11.2194 163.498C10.7714 163.498 10.3794 163.554 10.0154 163.666C9.65139 163.778 9.20339 163.96 8.67139 164.212V162.98C9.59539 162.602 10.5054 162.406 11.3874 162.406C12.3114 162.406 13.0534 162.63 13.6274 163.078C14.1874 163.526 14.4814 164.086 14.4814 164.786C14.4814 165.458 14.2854 165.99 13.9214 166.382C13.5434 166.774 13.0394 167.026 12.4234 167.124ZM16.273 173.648L16.945 172.206C16.749 172.206 16.567 172.15 16.413 172.01C16.259 171.884 16.189 171.702 16.189 171.464C16.189 171.268 16.259 171.086 16.399 170.946C16.539 170.806 16.721 170.736 16.945 170.736C17.197 170.736 17.393 170.834 17.533 171.002C17.673 171.17 17.743 171.38 17.743 171.618C17.743 172.108 17.449 172.78 16.889 173.648H16.273ZM20.6912 163.708V166.116C21.0692 166.032 21.4612 165.99 21.8532 165.99C22.8612 165.99 23.7012 166.242 24.3732 166.746C25.0312 167.25 25.3672 168.048 25.3672 169.14C25.3672 170.12 25.0452 170.876 24.4292 171.408C23.8132 171.94 22.9872 172.206 21.9792 172.206C21.0692 172.206 20.1592 171.996 19.2492 171.562V170.33C20.2292 170.862 21.1112 171.114 21.8672 171.114C23.2112 171.114 23.8972 170.456 23.8972 169.112C23.8972 168.37 23.6872 167.852 23.2672 167.558C22.8472 167.264 22.2452 167.11 21.4892 167.11C20.9572 167.11 20.3272 167.194 19.5992 167.362V162.546H25.0172V163.708H20.6912ZM27.9603 161.986H28.2823V172.066H26.9663V162.546L27.9603 161.986ZM31.4183 172.066L28.5623 168.426L31.3063 165.066H32.4683V165.36L30.0183 168.342L32.7483 171.772V172.066H31.4183Z" fill="#878787"/>
<path d="M6.25978 253.066V244.708H4.85978V243.826L6.97378 243.476H7.65978V253.066H6.25978ZM9.68081 252.464C9.68081 252.282 9.75081 252.114 9.89081 251.974C10.0308 251.834 10.1848 251.75 10.3808 251.75C10.5628 251.75 10.7168 251.834 10.8568 251.974C10.9968 252.114 11.0668 252.282 11.0668 252.464C11.0668 252.674 10.9968 252.856 10.8568 252.996C10.7168 253.136 10.5628 253.206 10.3808 253.206C10.1848 253.206 10.0308 253.136 9.89081 252.996C9.75081 252.856 9.68081 252.674 9.68081 252.464ZM14.9785 253.066H13.3825C13.3825 251.722 13.7045 250.322 14.3765 248.838C15.0345 247.368 15.9025 245.996 16.9665 244.708H12.0105V243.546H18.2125V244.554C17.2185 245.814 16.4345 247.214 15.8465 248.726C15.2585 250.252 14.9785 251.694 14.9785 253.066ZM20.6912 244.708V247.116C21.0692 247.032 21.4612 246.99 21.8532 246.99C22.8612 246.99 23.7012 247.242 24.3732 247.746C25.0312 248.25 25.3672 249.048 25.3672 250.14C25.3672 251.12 25.0452 251.876 24.4292 252.408C23.8132 252.94 22.9872 253.206 21.9792 253.206C21.0692 253.206 20.1592 252.996 19.2492 252.562V251.33C20.2292 251.862 21.1112 252.114 21.8672 252.114C23.2112 252.114 23.8972 251.456 23.8972 250.112C23.8972 249.37 23.6872 248.852 23.2672 248.558C22.8472 248.264 22.2452 248.11 21.4892 248.11C20.9572 248.11 20.3272 248.194 19.5992 248.362V243.546H25.0172V244.708H20.6912ZM27.9603 242.986H28.2823V253.066H26.9663V243.546L27.9603 242.986ZM31.4183 253.066L28.5623 249.426L31.3063 246.066H32.4683V246.36L30.0183 249.342L32.7483 252.772V253.066H31.4183Z" fill="#878787"/>
<path d="M28.7117 334.206C27.3957 334.206 26.4857 333.786 25.9537 332.932C25.4217 332.092 25.1557 330.86 25.1557 329.236C25.1557 327.64 25.4077 326.436 25.9397 325.624C26.4717 324.812 27.3957 324.406 28.7117 324.406C30.0137 324.406 30.9377 324.826 31.4697 325.638C32.0017 326.45 32.2677 327.654 32.2677 329.236C32.2677 330.846 32.0017 332.078 31.4697 332.932C30.9377 333.786 30.0137 334.206 28.7117 334.206ZM28.7117 325.498C27.9137 325.498 27.3677 325.792 27.0737 326.366C26.7657 326.954 26.6257 327.906 26.6257 329.236C26.6257 330.58 26.7657 331.574 27.0737 332.19C27.3817 332.806 27.9277 333.114 28.7117 333.114C29.4957 333.114 30.0277 332.806 30.3357 332.19C30.6437 331.574 30.7977 330.58 30.7977 329.236C30.7977 327.906 30.6437 326.954 30.3497 326.366C30.0417 325.792 29.4957 325.498 28.7117 325.498Z" fill="#878787"/>
<line x1="45.5" y1="336.715" x2="45.5" y2="328.715" stroke="#878787"/>
<line x1="360" y1="336.715" x2="360" y2="328.715" stroke="#878787"/>
<line x1="674.5" y1="336.715" x2="674.5" y2="328.715" stroke="#878787"/>
<line x1="989" y1="336.715" x2="989" y2="328.715" stroke="#878787"/>
<line x1="1303.5" y1="336.715" x2="1303.5" y2="328.715" stroke="#878787"/>
<path d="M32.241 372.901L35.4979 369.644L36.2206 370.565L31.8648 374.921L31.0432 374.099C31.4293 371.911 31.5876 370.288 31.5183 369.209C31.459 368.14 31.1521 367.318 30.5977 366.764C29.7067 365.873 28.7564 365.912 27.7763 366.892C27.1923 367.476 26.8161 368.229 26.6181 369.14L25.737 368.258C26.0439 367.377 26.5389 366.585 27.2319 365.893C27.905 365.219 28.6178 364.843 29.3702 364.764C30.1225 364.685 30.865 365.011 31.5975 365.744C31.8549 366.001 32.0628 366.288 32.2311 366.595C32.3994 366.902 32.5182 367.239 32.5776 367.615C32.6469 368.001 32.6865 368.377 32.7063 368.714C32.7261 369.07 32.7063 369.506 32.6469 370.001C32.5875 370.516 32.5281 370.971 32.4588 371.357C32.3994 371.753 32.3103 372.258 32.2014 372.862L32.241 372.901ZM39.9621 367.022C39.0315 367.952 38.0911 368.299 37.111 368.071C36.1409 367.853 35.0816 367.17 33.9333 366.022C32.8047 364.893 32.1316 363.864 31.9336 362.913C31.7356 361.963 32.1019 361.023 33.0324 360.092C33.9531 359.171 34.9034 358.815 35.8538 359.013C36.8041 359.211 37.8436 359.874 38.9622 360.993C40.1007 362.131 40.7837 363.19 41.0114 364.171C41.2391 365.151 40.8827 366.101 39.9621 367.022ZM33.8046 360.864C33.2403 361.428 33.0621 362.022 33.2601 362.636C33.4581 363.27 34.0323 364.042 34.9727 364.982C35.9231 365.933 36.7249 366.537 37.3783 366.754C38.0317 366.972 38.6355 366.804 39.1899 366.249C39.7443 365.695 39.9027 365.101 39.6849 364.448C39.4671 363.794 38.8731 362.983 37.9228 362.032C36.9823 361.092 36.2003 360.528 35.5766 360.32C34.9529 360.132 34.359 360.31 33.8046 360.864ZM44.1922 362.594L38.2822 356.684L37.2922 357.673L36.6686 357.05L37.9159 355.307L38.401 354.822L45.1821 361.604L44.1922 362.594ZM48.4624 358.323L47.3339 359.452C46.3835 358.501 45.6213 357.284 45.0471 355.759C44.4729 354.255 44.1165 352.671 43.9581 351.008L40.4537 354.512L39.6321 353.69L44.0175 349.305L44.7303 350.018C44.9184 351.611 45.354 353.156 46.0073 354.641C46.6706 356.135 47.4923 357.353 48.4624 358.323Z" fill="#878787"/>
<path d="M346.005 373.298L349.262 370.041L349.984 370.961L345.629 375.317L344.807 374.496C345.193 372.308 345.351 370.684 345.282 369.605C345.223 368.536 344.916 367.714 344.361 367.16C343.471 366.269 342.52 366.309 341.54 367.289C340.956 367.873 340.58 368.625 340.382 369.536L339.501 368.655C339.808 367.774 340.303 366.982 340.996 366.289C341.669 365.616 342.382 365.24 343.134 365.16C343.886 365.081 344.629 365.408 345.361 366.14C345.619 366.398 345.827 366.685 345.995 366.992C346.163 367.299 346.282 367.635 346.341 368.011C346.411 368.397 346.45 368.774 346.47 369.11C346.49 369.467 346.47 369.902 346.411 370.397C346.351 370.912 346.292 371.367 346.223 371.753C346.163 372.149 346.074 372.654 345.965 373.258L346.005 373.298ZM353.726 367.418C352.795 368.349 351.855 368.695 350.875 368.467C349.905 368.25 348.845 367.566 347.697 366.418C346.569 365.29 345.895 364.26 345.697 363.31C345.499 362.359 345.866 361.419 346.796 360.488C347.717 359.568 348.667 359.211 349.618 359.409C350.568 359.607 351.607 360.271 352.726 361.389C353.864 362.528 354.548 363.587 354.775 364.567C355.003 365.547 354.647 366.497 353.726 367.418ZM347.568 361.26C347.004 361.825 346.826 362.419 347.024 363.032C347.222 363.666 347.796 364.438 348.737 365.379C349.687 366.329 350.489 366.933 351.142 367.151C351.795 367.368 352.399 367.2 352.954 366.646C353.508 366.091 353.666 365.497 353.449 364.844C353.231 364.191 352.637 363.379 351.687 362.429C350.746 361.488 349.964 360.924 349.34 360.716C348.717 360.528 348.123 360.706 347.568 361.26ZM357.956 362.99L352.046 357.08L351.056 358.07L350.432 357.446L351.68 355.704L352.165 355.219L358.946 362L357.956 362.99ZM360.088 353.77C360.741 353.552 361.325 353.443 361.85 353.453C362.385 353.473 362.86 353.691 363.295 354.126C363.87 354.7 364.087 355.393 363.949 356.205C363.82 357.027 363.414 357.769 362.721 358.462C361.969 359.215 361.236 359.63 360.523 359.71C359.801 359.799 359.187 359.581 358.672 359.066C358.326 358.72 358.098 358.274 357.999 357.72C357.89 357.175 357.979 356.571 358.237 355.918C357.672 356.106 357.168 356.175 356.712 356.116C356.247 356.067 355.831 355.849 355.435 355.453C354.94 354.958 354.722 354.324 354.802 353.532C354.881 352.76 355.247 352.037 355.91 351.374C356.603 350.681 357.286 350.315 357.95 350.246C358.613 350.196 359.187 350.394 359.662 350.869C360.415 351.622 360.553 352.592 360.088 353.77ZM356.682 352.146C356.326 352.503 356.128 352.879 356.079 353.245C356.039 353.621 356.168 353.948 356.465 354.245C356.623 354.403 356.801 354.522 356.999 354.582C357.197 354.641 357.435 354.641 357.712 354.582C357.999 354.532 358.237 354.473 358.425 354.403C358.603 354.344 358.88 354.245 359.246 354.097C359.494 353.235 359.345 352.513 358.781 351.948C358.464 351.632 358.118 351.503 357.742 351.562C357.366 351.622 357.009 351.82 356.682 352.146ZM361.949 357.69C362.345 357.294 362.573 356.888 362.632 356.433C362.682 355.987 362.563 355.611 362.256 355.304C362.098 355.146 361.89 355.037 361.672 354.978C361.454 354.918 361.216 354.918 360.969 354.968C360.721 355.017 360.464 355.077 360.217 355.166C359.969 355.255 359.702 355.364 359.385 355.483C359.266 355.542 359.167 355.581 359.108 355.601C358.841 356.601 358.999 357.393 359.583 357.977C359.88 358.274 360.246 358.403 360.682 358.363C361.117 358.324 361.543 358.096 361.949 357.69Z" fill="#878787"/>
<path d="M660.164 373.303L663.421 370.046L664.144 370.966L659.788 375.322L658.966 374.5C659.352 372.313 659.511 370.689 659.441 369.61C659.382 368.541 659.075 367.719 658.521 367.165C657.63 366.274 656.679 366.314 655.699 367.294C655.115 367.878 654.739 368.63 654.541 369.541L653.66 368.66C653.967 367.779 654.462 366.987 655.155 366.294C655.828 365.621 656.541 365.244 657.293 365.165C658.046 365.086 658.788 365.413 659.521 366.145C659.778 366.403 659.986 366.69 660.154 366.997C660.322 367.303 660.441 367.64 660.501 368.016C660.57 368.402 660.61 368.778 660.629 369.115C660.649 369.471 660.629 369.907 660.57 370.402C660.511 370.917 660.451 371.372 660.382 371.758C660.322 372.154 660.233 372.659 660.124 373.263L660.164 373.303ZM667.885 367.423C666.955 368.353 666.014 368.7 665.034 368.472C664.064 368.254 663.005 367.571 661.856 366.423C660.728 365.294 660.055 364.265 659.857 363.315C659.659 362.364 660.025 361.424 660.955 360.493C661.876 359.573 662.826 359.216 663.777 359.414C664.727 359.612 665.767 360.275 666.885 361.394C668.024 362.532 668.707 363.592 668.934 364.572C669.162 365.552 668.806 366.502 667.885 367.423ZM661.728 361.265C661.163 361.83 660.985 362.424 661.183 363.037C661.381 363.671 661.955 364.443 662.896 365.384C663.846 366.334 664.648 366.938 665.301 367.156C665.955 367.373 666.559 367.205 667.113 366.651C667.667 366.096 667.826 365.502 667.608 364.849C667.39 364.196 666.796 363.384 665.846 362.433C664.905 361.493 664.123 360.929 663.5 360.721C662.876 360.533 662.282 360.711 661.728 361.265ZM672.115 362.995L666.205 357.085L665.215 358.075L664.592 357.451L665.839 355.709L666.324 355.224L673.105 362.005L672.115 362.995ZM669.881 351.567C670.337 351.112 670.832 350.795 671.337 350.627C671.851 350.468 672.346 350.448 672.832 350.577C673.317 350.706 673.792 350.904 674.227 351.181C674.663 351.458 675.108 351.805 675.544 352.24C678.058 354.755 678.385 356.923 676.554 358.754C675.96 359.348 675.227 359.784 674.346 360.051L673.485 359.19C674.435 358.972 675.188 358.576 675.752 358.012C676.712 357.051 676.623 355.834 675.455 354.349C675.178 355.141 674.811 355.745 674.386 356.17C673.604 356.952 672.822 357.319 672.04 357.249C671.257 357.2 670.545 356.844 669.911 356.21C669.278 355.576 668.911 354.834 668.852 353.983C668.783 353.141 669.119 352.329 669.881 351.567ZM673.871 355.18C674.247 354.804 674.574 354.28 674.811 353.606L674.485 353.26C672.901 351.676 671.624 351.369 670.654 352.339C670.198 352.795 670.03 353.26 670.119 353.745C670.218 354.24 670.495 354.715 670.951 355.171C671.416 355.636 671.881 355.883 672.356 355.923C672.832 355.963 673.336 355.715 673.871 355.18Z" fill="#878787"/>
<path d="M973.043 374.584L976.3 371.327L977.023 372.247L972.667 376.603L971.845 375.781C972.231 373.594 972.39 371.97 972.321 370.891C972.261 369.822 971.954 369 971.4 368.446C970.509 367.555 969.559 367.594 968.579 368.575C967.995 369.159 967.618 369.911 967.42 370.822L966.539 369.941C966.846 369.06 967.341 368.268 968.034 367.575C968.707 366.901 969.42 366.525 970.172 366.446C970.925 366.367 971.667 366.694 972.4 367.426C972.657 367.684 972.865 367.971 973.033 368.278C973.202 368.584 973.32 368.921 973.38 369.297C973.449 369.683 973.489 370.059 973.509 370.396C973.528 370.752 973.509 371.188 973.449 371.683C973.39 372.198 973.33 372.653 973.261 373.039C973.202 373.435 973.113 373.94 973.004 374.544L973.043 374.584ZM980.764 368.704C979.834 369.634 978.893 369.981 977.913 369.753C976.943 369.535 975.884 368.852 974.736 367.704C973.607 366.575 972.934 365.546 972.736 364.595C972.538 363.645 972.904 362.705 973.835 361.774C974.755 360.853 975.706 360.497 976.656 360.695C977.606 360.893 978.646 361.556 979.764 362.675C980.903 363.813 981.586 364.873 981.814 365.853C982.041 366.833 981.685 367.783 980.764 368.704ZM974.607 362.546C974.043 363.111 973.864 363.704 974.062 364.318C974.26 364.952 974.835 365.724 975.775 366.664C976.725 367.615 977.527 368.219 978.181 368.436C978.834 368.654 979.438 368.486 979.992 367.932C980.547 367.377 980.705 366.783 980.487 366.13C980.269 365.477 979.675 364.665 978.725 363.714C977.785 362.774 977.003 362.21 976.379 362.002C975.755 361.814 975.161 361.992 974.607 362.546ZM984.49 363.137L987.746 359.88L988.469 360.801L984.113 365.157L983.292 364.335C983.678 362.147 983.836 360.524 983.767 359.445C983.707 358.376 983.401 357.554 982.846 357C981.955 356.109 981.005 356.148 980.025 357.128C979.441 357.712 979.065 358.465 978.867 359.375L977.986 358.494C978.292 357.613 978.787 356.821 979.48 356.128C980.154 355.455 980.866 355.079 981.619 355C982.371 354.921 983.114 355.247 983.846 355.98C984.103 356.237 984.311 356.524 984.48 356.831C984.648 357.138 984.767 357.475 984.826 357.851C984.895 358.237 984.935 358.613 984.955 358.95C984.975 359.306 984.955 359.742 984.895 360.237C984.836 360.751 984.777 361.207 984.707 361.593C984.648 361.989 984.559 362.494 984.45 363.098L984.49 363.137ZM992.211 357.257C991.28 358.188 990.34 358.534 989.36 358.307C988.389 358.089 987.33 357.406 986.182 356.258C985.053 355.129 984.38 354.1 984.182 353.149C983.984 352.199 984.35 351.258 985.281 350.328C986.202 349.407 987.152 349.051 988.102 349.249C989.053 349.447 990.092 350.11 991.211 351.229C992.349 352.367 993.032 353.426 993.26 354.406C993.488 355.386 993.131 356.337 992.211 357.257ZM986.053 351.1C985.489 351.664 985.311 352.258 985.509 352.872C985.707 353.506 986.281 354.278 987.221 355.218C988.172 356.169 988.973 356.772 989.627 356.99C990.28 357.208 990.884 357.04 991.438 356.485C991.993 355.931 992.151 355.337 991.933 354.684C991.716 354.03 991.122 353.218 990.171 352.268C989.231 351.328 988.449 350.763 987.825 350.555C987.201 350.367 986.607 350.546 986.053 351.1Z" fill="#878787"/>
<path d="M1288.66 373.129L1291.92 369.872L1292.64 370.792L1288.28 375.148L1287.46 374.326C1287.85 372.139 1288 370.515 1287.94 369.436C1287.88 368.367 1287.57 367.545 1287.02 366.991C1286.12 366.1 1285.17 366.14 1284.19 367.12C1283.61 367.704 1283.23 368.456 1283.04 369.367L1282.15 368.486C1282.46 367.605 1282.96 366.813 1283.65 366.12C1284.32 365.447 1285.04 365.07 1285.79 364.991C1286.54 364.912 1287.28 365.239 1288.01 365.971C1288.27 366.229 1288.48 366.516 1288.65 366.823C1288.82 367.129 1288.94 367.466 1288.99 367.842C1289.06 368.228 1289.1 368.604 1289.12 368.941C1289.14 369.297 1289.12 369.733 1289.06 370.228C1289 370.743 1288.95 371.198 1288.88 371.584C1288.82 371.98 1288.73 372.485 1288.62 373.089L1288.66 373.129ZM1296.38 367.249C1295.45 368.179 1294.51 368.526 1293.53 368.298C1292.56 368.08 1291.5 367.397 1290.35 366.249C1289.22 365.12 1288.55 364.091 1288.35 363.14C1288.15 362.19 1288.52 361.25 1289.45 360.319C1290.37 359.398 1291.32 359.042 1292.27 359.24C1293.22 359.438 1294.26 360.101 1295.38 361.22C1296.52 362.358 1297.2 363.418 1297.43 364.398C1297.66 365.378 1297.3 366.328 1296.38 367.249ZM1290.22 361.091C1289.66 361.656 1289.48 362.25 1289.68 362.863C1289.88 363.497 1290.45 364.269 1291.39 365.209C1292.34 366.16 1293.14 366.764 1293.8 366.982C1294.45 367.199 1295.05 367.031 1295.61 366.477C1296.16 365.922 1296.32 365.328 1296.1 364.675C1295.88 364.022 1295.29 363.21 1294.34 362.259C1293.4 361.319 1292.62 360.755 1291.99 360.547C1291.37 360.359 1290.78 360.537 1290.22 361.091ZM1300.1 361.682L1303.36 358.425L1304.08 359.346L1299.73 363.702L1298.91 362.88C1299.29 360.692 1299.45 359.069 1299.38 357.99C1299.32 356.921 1299.02 356.099 1298.46 355.545C1297.57 354.654 1296.62 354.693 1295.64 355.673C1295.06 356.257 1294.68 357.01 1294.48 357.92L1293.6 357.039C1293.91 356.158 1294.4 355.366 1295.1 354.673C1295.77 354 1296.48 353.624 1297.23 353.545C1297.99 353.466 1298.73 353.792 1299.46 354.525C1299.72 354.782 1299.93 355.069 1300.09 355.376C1300.26 355.683 1300.38 356.02 1300.44 356.396C1300.51 356.782 1300.55 357.158 1300.57 357.495C1300.59 357.851 1300.57 358.287 1300.51 358.782C1300.45 359.296 1300.39 359.752 1300.32 360.138C1300.26 360.534 1300.17 361.039 1300.07 361.643L1300.1 361.682ZM1305.99 357.436L1300.08 351.526L1299.09 352.516L1298.47 351.892L1299.72 350.15L1300.2 349.665L1306.98 356.446L1305.99 357.436Z" fill="#878787"/>
<path d="M45 50.2725L359.535 41.7148L674.069 63.634L988.604 114.656L1304 225.715" stroke="#45A1BA" stroke-width="3"/>
<path d="M1300.25 225.715C1300.25 224.985 1300.54 224.286 1301.06 223.77C1301.57 223.255 1302.27 222.965 1303 222.965C1303.73 222.965 1304.43 223.255 1304.94 223.77C1305.46 224.286 1305.75 224.985 1305.75 225.715C1305.75 226.444 1305.46 227.144 1304.94 227.659C1304.43 228.175 1303.73 228.465 1303 228.465C1302.27 228.465 1301.57 228.175 1301.06 227.659C1300.54 227.144 1300.25 226.444 1300.25 225.715Z" fill="white" stroke="#45A1BA" stroke-width="2.5"/>
<path d="M986.25 114.715C986.25 113.985 986.54 113.286 987.055 112.77C987.571 112.255 988.271 111.965 989 111.965C989.729 111.965 990.429 112.255 990.945 112.77C991.46 113.286 991.75 113.985 991.75 114.715C991.75 115.444 991.46 116.144 990.945 116.659C990.429 117.175 989.729 117.465 989 117.465C988.271 117.465 987.571 117.175 987.055 116.659C986.54 116.144 986.25 115.444 986.25 114.715Z" fill="white" stroke="#45A1BA" stroke-width="2.5"/>
<path d="M667.25 62.7148C667.25 61.9855 667.54 61.286 668.055 60.7703C668.571 60.2546 669.271 59.9648 670 59.9648C670.729 59.9648 671.429 60.2546 671.945 60.7703C672.46 61.286 672.75 61.9855 672.75 62.7148C672.75 63.4442 672.46 64.1437 671.945 64.6594C671.429 65.1751 670.729 65.4648 670 65.4648C669.271 65.4648 668.571 65.1751 668.055 64.6594C667.54 64.1437 667.25 63.4442 667.25 62.7148Z" fill="white" stroke="#45A1BA" stroke-width="2.5"/>
<path d="M357.25 41.7148C357.25 40.9855 357.54 40.286 358.055 39.7703C358.571 39.2546 359.271 38.9648 360 38.9648C360.729 38.9648 361.429 39.2546 361.945 39.7703C362.46 40.286 362.75 40.9855 362.75 41.7148C362.75 42.4442 362.46 43.1437 361.945 43.6594C361.429 44.1751 360.729 44.4648 360 44.4648C359.271 44.4648 358.571 44.1751 358.055 43.6594C357.54 43.1437 357.25 42.4442 357.25 41.7148Z" fill="white" stroke="#45A1BA" stroke-width="2.5"/>
<path d="M43.25 50.7148C43.25 49.9855 43.5397 49.286 44.0555 48.7703C44.5712 48.2546 45.2707 47.9648 46 47.9648C46.7293 47.9648 47.4288 48.2546 47.9445 48.7703C48.4603 49.286 48.75 49.9855 48.75 50.7148C48.75 51.4442 48.4603 52.1437 47.9445 52.6594C47.4288 53.1751 46.7293 53.4648 46 53.4648C45.2707 53.4648 44.5712 53.1751 44.0555 52.6594C43.5397 52.1437 43.25 51.4442 43.25 50.7148Z" fill="white" stroke="#45A1BA" stroke-width="2.5"/>
</g>
<defs>
<clipPath id="clip0_1610_48335">
<rect width="1312" height="380" fill="white"/>
</clipPath>
</defs>
</svg>
