<svg width="48" height="48" viewBox="0 0 48 48" fill="none" xmlns="http://www.w3.org/2000/svg">
<path d="M43.2016 23.9816C44.4016 22.6973 44.4016 17.9512 44.4016 17.9512C44.4016 10.2056 40.1107 1.2001 24.0016 1.2002C7.89247 1.2003 3.60156 11.9208 3.60156 19.2913C3.60156 19.2913 3.60156 21.3945 4.80156 24.0002C5.41974 22.6601 6.07429 23.3118 7.31065 23.3118C7.31065 20.8701 9.61604 19.2913 11.0197 19.2913C14.7288 19.2913 15.0016 21.3945 24.0016 21.3945C33.6016 21.3945 37.0644 19.2913 37.0644 19.2913C39.4351 19.2913 40.5555 21.892 40.7288 23.3115C40.7288 23.3115 42.5834 23.3115 43.2016 23.9816Z" fill="#97D9FC"/>
<path fill-rule="evenodd" clip-rule="evenodd" d="M7.19922 28.5572V23.1936C7.19922 20.9733 8.91915 19.2002 11.0247 19.2002C11.0247 19.2002 17.9463 21.3058 23.9993 21.3347C30.0523 21.3636 36.926 19.2002 36.926 19.2002C39.0585 19.2002 40.7992 20.9307 40.7992 23.1936V28.5572C40.7992 30.689 40.3507 32.7719 39.4894 34.7009C38.1848 37.6233 36.0142 40.023 33.3982 41.691C30.5689 43.4951 27.3027 44.4002 23.9993 44.4002C20.6959 44.4002 17.4297 43.495 14.6002 41.6909C11.9842 40.0228 9.81365 37.623 8.50894 34.7007C7.6477 32.7718 7.19922 30.6889 7.19922 28.5572Z" stroke="#042B60" stroke-width="2" stroke-miterlimit="22.9256" stroke-linecap="round" stroke-linejoin="round"/>
<path d="M7.19844 30.0003H5.80698C3.92454 30.0003 2.39844 28.3886 2.39844 26.4003C2.39844 24.412 3.92445 22.8003 5.80698 22.8003H6.75947" stroke="#042B60" stroke-width="2" stroke-miterlimit="22.9256" stroke-linecap="round" stroke-linejoin="round"/>
<path d="M40.7969 30.0003H42.1883C44.0709 30.0003 45.5969 28.3886 45.5969 26.4003C45.5969 24.412 44.0709 22.8003 42.1883 22.8003H41.2358" stroke="#042B60" stroke-width="2" stroke-miterlimit="22.9256" stroke-linecap="round" stroke-linejoin="round"/>
<path d="M22.1914 33.5664C22.5274 34.0647 23.2224 34.3802 23.9834 34.3802C24.7715 34.3802 25.4859 34.0421 25.8071 33.5171" stroke="#042B60" stroke-width="2" stroke-miterlimit="22.9256" stroke-linecap="round" stroke-linejoin="round"/>
<path d="M31.293 26.5815V28.0988" stroke="#042B60" stroke-width="2" stroke-miterlimit="22.9256" stroke-linecap="round" stroke-linejoin="round"/>
<path d="M16.7031 26.5815V28.0988" stroke="#042B60" stroke-width="2" stroke-miterlimit="22.9256" stroke-linecap="round" stroke-linejoin="round"/>
</svg>
