<svg width="48" height="48" viewBox="0 0 48 48" fill="none" xmlns="http://www.w3.org/2000/svg">
<path d="M24 44.0625C33.075 44.0625 40.5 36.4936 40.5 27.2427V25.0626C40.5 16.226 33.3366 9.0626 24.5001 9.06257L23.5001 9.06256C14.6635 9.06253 7.5 16.226 7.5 25.0626V27.2427C7.5 36.4936 14.925 44.0625 24 44.0625Z" stroke="#042B60" stroke-width="2" stroke-miterlimit="22.926" stroke-linecap="round" stroke-linejoin="round"/>
<path d="M22.5 35.0428C22.8485 35.4757 23.5693 35.75 24.3586 35.75C25.1759 35.75 25.9169 35.4562 26.25 35" stroke="#042B60" stroke-width="2" stroke-miterlimit="22.9256" stroke-linecap="round" stroke-linejoin="round"/>
<path d="M8 33H6.28756C4.47194 33 3 31.433 3 29.5C3 27.567 4.47185 26 6.28756 26H7.85439" stroke="#042B60" stroke-width="2" stroke-miterlimit="22.9256" stroke-linecap="round" stroke-linejoin="round"/>
<path d="M40 33H41.7124C43.5281 33 45 31.433 45 29.5C45 27.567 43.5282 26 41.7124 26H40.1456" stroke="#042B60" stroke-width="2" stroke-miterlimit="22.9256" stroke-linecap="round" stroke-linejoin="round"/>
<path d="M31.8398 28.0039V29.5212" stroke="#042B60" stroke-width="2" stroke-miterlimit="22.9256" stroke-linecap="round" stroke-linejoin="round"/>
<path d="M17.25 28.0039V29.5212" stroke="#042B60" stroke-width="2" stroke-miterlimit="22.9256" stroke-linecap="round" stroke-linejoin="round"/>
<path d="M8 26.0625C12.0519 26.0625 11.8442 24.5894 14.5455 21.6431C17.2468 18.6968 24 21.6431 24 14.7684V10.0625" stroke="#042B60" stroke-width="2" stroke-miterlimit="22.926" stroke-linecap="round" stroke-linejoin="round"/>
<path d="M40 26.0625C35.9481 26.0625 36.6234 24.0625 33.9221 21.5625C31.2208 19.0625 25.7143 20.5625 24 17.0625" stroke="#042B60" stroke-width="2" stroke-miterlimit="22.926" stroke-linecap="round" stroke-linejoin="round"/>
<path d="M18.4938 9.35081L18.7945 8.05405C18.9996 7.16966 18.5833 6.25807 17.7806 5.83392L17.2909 5.57515C16.8488 5.34156 16.5103 4.95087 16.342 4.48008L16.1555 3.95851C15.8499 3.10364 15.0069 2.56183 14.1023 2.63898L13.5504 2.68605C13.0523 2.72853 12.5562 2.58289 12.1601 2.27782L11.7213 1.93985C11.002 1.38591 9.99989 1.38591 9.28062 1.93985L8.84179 2.27782C8.44567 2.58289 7.94966 2.72853 7.4515 2.68605L6.89961 2.63898C5.99504 2.56183 5.15198 3.10364 4.84638 3.95851L4.65993 4.48008C4.49163 4.95087 4.1531 5.34156 3.71105 5.57515L3.22132 5.83392C2.41864 6.25807 2.00233 7.16966 2.20743 8.05405L2.33256 8.59362C2.44551 9.08067 2.37194 9.59236 2.12634 10.0279L1.85427 10.5103C1.40832 11.3011 1.55094 12.293 2.20161 12.9262L2.59859 13.3124C2.95693 13.6611 3.17168 14.1313 3.20052 14.6305L3.23248 15.1834C3.28485 16.0898 3.94112 16.8471 4.83079 17.028L5.50514 17.165C5.91047 17.2474 6.27024 17.4786 6.51357 17.8131L6.67851 18.0399C7.24919 18.8243 8.41512 18.8357 9.00098 18.0625V18.0625" stroke="#042B60" stroke-width="2" stroke-miterlimit="22.926" stroke-linecap="round" stroke-linejoin="round"/>
<path d="M29.6469 9.35081L29.3461 8.05405C29.141 7.16966 29.5573 6.25807 30.36 5.83392L30.8498 5.57515C31.2918 5.34156 31.6303 4.95087 31.7986 4.48008L31.9851 3.95851C32.2907 3.10364 33.1337 2.56183 34.0383 2.63898L34.5902 2.68605C35.0884 2.72853 35.5844 2.58289 35.9805 2.27782L36.4193 1.93985C37.1386 1.38591 38.1407 1.38591 38.86 1.93985L39.2988 2.27782C39.695 2.58289 40.191 2.72853 40.6891 2.68605L41.241 2.63898C42.1456 2.56183 42.9886 3.10364 43.2942 3.95851L43.4807 4.48008C43.649 4.95087 43.9875 5.34156 44.4296 5.57515L44.9193 5.83392C45.722 6.25807 46.1383 7.16966 45.9332 8.05405L45.8081 8.59362C45.6951 9.08067 45.7687 9.59236 46.0143 10.0279L46.2864 10.5103C46.7323 11.3011 46.5897 12.293 45.939 12.9262L45.542 13.3124C45.1837 13.6611 44.9689 14.1313 44.9401 14.6305L44.9081 15.1834C44.8558 16.0898 44.1995 16.8471 43.3098 17.028L42.6355 17.165C42.2302 17.2474 41.8704 17.4786 41.6271 17.8131L41.4621 18.0399C40.8914 18.8243 39.7255 18.8357 39.1396 18.0625V18.0625" stroke="#042B60" stroke-width="2" stroke-miterlimit="22.926" stroke-linecap="round" stroke-linejoin="round"/>
<circle cx="33.5" cy="11.5625" r="3.5" fill="#B1D6E4"/>
<circle cx="14.5" cy="11.5625" r="3.5" fill="#B1D6E4"/>
<circle cx="37" cy="15.0625" r="3" fill="#B1D6E4"/>
<circle cx="10" cy="15.0625" r="3" fill="#B1D6E4"/>
</svg>
