<svg width="48" height="48" viewBox="0 0 48 48" fill="none" xmlns="http://www.w3.org/2000/svg">
<path fill-rule="evenodd" clip-rule="evenodd" d="M3.18936 21.7349C4.7856 12.0369 9.58775 1.19922 23.9985 1.19922C38.2402 1.19922 43.0974 12.049 44.7501 21.6773C44.0487 21.0235 43.1076 20.6234 42.0731 20.6234H40.6526V20.3511C40.6526 18.2172 38.9272 16.5855 36.8134 16.5855H31.8001L29.4 11.3984L27 16.5855H11.1395C9.05253 16.5855 7.34771 18.2575 7.34771 20.3511V20.6234H5.92689C4.86229 20.6234 3.89666 21.0471 3.18936 21.7349ZM2.61167 26.6559C2.39202 29.5822 2.39622 32.1613 2.39916 33.9721C2.39948 34.1695 2.39979 34.3577 2.39979 34.5362C2.39976 47.3581 11.4939 47.9992 24.5668 47.9992C37.6397 47.9992 45.5971 47.3581 45.5971 34.5362C45.5971 34.3738 45.5974 34.2012 45.5977 34.0189C45.6007 32.2873 45.6053 29.6849 45.3672 26.6888C44.6669 27.7654 43.4531 28.4772 42.0731 28.4772H40.3007C40.0832 29.4117 39.7664 30.3236 39.3543 31.2016C38.0612 33.9572 35.9097 36.2199 33.3166 37.7928C30.5121 39.4939 27.2746 40.3474 24.0002 40.3474C20.7258 40.3474 17.4883 39.4938 14.6837 37.7927C12.0907 36.2198 9.93918 33.957 8.64592 31.2014C8.23385 30.3235 7.9171 29.4117 7.69967 28.4772H5.92689C4.53291 28.4772 3.30854 27.7508 2.61167 26.6559Z" fill="#B1D6E4"/>
<path fill-rule="evenodd" clip-rule="evenodd" d="M7.34766 25.4086V20.3511C7.34766 18.2575 9.05248 16.5855 11.1395 16.5855H27L29.4 11.3984L31.8 16.5855C31.8 16.5855 35.8685 16.5855 36.8134 16.5855C38.9271 16.5855 40.6526 18.2172 40.6526 20.3511V25.4086C40.6526 27.4187 40.208 29.3827 39.3543 31.2016C38.0611 33.9572 35.9096 36.2199 33.3166 37.7928C30.5121 39.4939 27.2746 40.3474 24.0002 40.3474C20.7258 40.3474 17.4883 39.4938 14.6837 37.7927C12.0906 36.2198 9.93913 33.957 8.64588 31.2014C7.7922 29.3826 7.34766 27.4186 7.34766 25.4086Z" stroke="#042B60" stroke-width="2" stroke-miterlimit="22.9256" stroke-linecap="round" stroke-linejoin="round"/>
<path d="M7.52995 28.4788H5.92689C3.75819 28.4788 2 26.7207 2 24.5519C2 22.3831 3.75808 20.625 5.92689 20.625H7.02423" stroke="#042B60" stroke-width="2" stroke-miterlimit="22.9256" stroke-linecap="round" stroke-linejoin="round"/>
<path d="M40.4688 28.4788H42.0718C44.2406 28.4788 45.9987 26.7207 45.9987 24.5519C45.9987 22.3831 44.2406 20.625 42.0718 20.625H40.9745" stroke="#042B60" stroke-width="2" stroke-miterlimit="22.9256" stroke-linecap="round" stroke-linejoin="round"/>
<path d="M20.5703 29.2933C21.2076 30.2829 22.5256 30.9096 23.9688 30.9096C25.4634 30.9096 26.8183 30.2382 27.4275 29.1953" stroke="#042B60" stroke-width="2" stroke-miterlimit="22.9256" stroke-linecap="round" stroke-linejoin="round"/>
<path d="M14.5703 24.0057C14.8889 23.5109 15.5479 23.1975 16.2696 23.1975C17.0168 23.1975 17.6943 23.5332 17.9989 24.0547" stroke="#042B60" stroke-width="2" stroke-miterlimit="22.9256" stroke-linecap="round" stroke-linejoin="round"/>
<path d="M30 24.0057C30.3186 23.5109 30.9776 23.1975 31.6993 23.1975C32.4465 23.1975 33.124 23.5332 33.4286 24.0547" stroke="#042B60" stroke-width="2" stroke-miterlimit="22.9256" stroke-linecap="round" stroke-linejoin="round"/>
</svg>
