<svg width="48" height="48" viewBox="0 0 48 48" fill="none" xmlns="http://www.w3.org/2000/svg">
<g clip-path="url(#clip0_1571_47538)">
<path d="M6.58594 28.2344H41.4158V43.2962H6.58594V28.2344Z" fill="#FFEF8A"/>
<path d="M47.5825 27.4558L42.3433 23.9631C42.5661 17.9865 38.1973 13.1785 32.9426 13.1785C29.3975 13.1785 26.2085 15.3725 24.6101 18.7177C24.1717 18.0639 23.6556 17.4571 23.0677 16.9094C24.9188 14.4985 25.67 11.5462 25.3272 9.02865C27.024 8.30003 28.1823 6.60532 28.1823 4.70539C28.1823 2.11087 26.0714 9.37496e-05 23.4769 9.37496e-05C21.762 9.37496e-05 20.2207 0.919309 19.3955 2.36277C17.2866 1.72546 14.7359 1.71796 12.602 2.36277C11.777 0.919215 10.2356 0 8.52063 0C5.92611 0 3.81543 2.11087 3.81543 4.70529C3.81543 6.60532 4.97371 8.29994 6.67048 9.02856C6.32755 11.5474 7.07998 14.4999 8.92994 16.9094C6.95689 18.7473 5.79177 21.2517 5.66127 23.9601L0.417571 27.4558C-0.0133021 27.743 -0.129645 28.325 0.157603 28.7558C0.445696 29.188 1.02807 29.3022 1.45763 29.0158L5.64758 26.2225V44.2498C5.64758 46.3176 7.32982 47.9998 9.39757 47.9998H38.6025C40.6702 47.9998 42.3524 46.3176 42.3524 44.2498V26.2225L46.5424 29.0158C46.9713 29.3017 47.554 29.1885 47.8424 28.7558C48.1297 28.3251 48.0133 27.743 47.5825 27.4558ZM40.4769 23.5329H36.7039C36.7039 21.0445 36.4037 17.8186 35.4641 15.5423C38.3356 16.693 40.4769 19.7953 40.4769 23.5329ZM31.0562 23.5329C31.0562 21.5652 31.2481 19.2746 31.7744 17.3822C32.2604 15.6345 32.7979 15.1182 32.9426 15.0568C33.0873 15.1181 33.6247 15.6345 34.1108 17.3822C34.6372 19.2752 34.829 21.5641 34.829 23.5329H31.0562ZM30.4191 15.5469C29.4811 17.8229 29.1812 21.0482 29.1812 23.5329H26.3076C26.2295 22.6553 26.0424 21.802 25.7537 20.9893C26.4712 18.4158 28.2324 16.4257 30.4191 15.5469ZM24.4232 23.5329H22.3745C22.7582 21.8342 22.6131 20.0323 21.9607 18.4452C23.392 19.8556 24.2187 21.6591 24.4232 23.5329ZM11.5578 23.5329C11.1681 22.2229 11.1971 20.7416 11.6675 19.4269C14.3967 21.125 17.5956 21.1283 20.33 19.4269C20.8009 20.7427 20.8291 22.2236 20.4397 23.5329H11.5578ZM15.9988 15.0612C15.3611 15.0612 14.6154 13.8667 14.5839 13.2163C14.8919 13.1492 17.098 13.1477 17.4135 13.2163C17.3821 13.8667 16.6364 15.0612 15.9988 15.0612ZM23.4769 1.87499C25.0376 1.87499 26.3073 3.14464 26.3073 4.70529C26.3073 5.74816 25.7276 6.68838 24.8512 7.17747C24.1664 5.42267 22.8795 4.01033 21.1557 3.08708C21.6742 2.34083 22.531 1.87499 23.4769 1.87499ZM5.69033 4.70529C5.69033 3.14464 6.95998 1.87499 8.52054 1.87499C9.46647 1.87499 10.3233 2.34083 10.8418 3.08718C9.1181 4.01052 7.8312 5.42276 7.14645 7.17756C6.26999 6.68838 5.69033 5.74816 5.69033 4.70529ZM15.9988 3.75767C27.2989 3.75767 24.4037 17.5384 16.9363 18.7502V16.7489C18.3435 16.1802 19.2896 14.4276 19.2896 13.1746C19.2896 12.518 19.0203 12.1125 18.7945 11.8881C17.9476 11.0465 14.0527 11.0439 13.2031 11.8881C12.9772 12.1126 12.708 12.518 12.708 13.1746C12.708 14.4276 13.654 16.1802 15.0613 16.7489V18.7502C7.59083 17.5379 4.69865 3.75767 15.9988 3.75767ZM10.0369 18.4452C9.38529 20.0305 9.23894 21.8323 9.62304 23.533H7.57442C7.78582 21.5954 8.64973 19.812 10.0369 18.4452ZM40.4774 44.2498C40.4774 45.2837 39.6363 46.1248 38.6025 46.1248H9.39757C8.3637 46.1248 7.52257 45.2837 7.52257 44.2498V25.4079H40.4774V44.2498Z" fill="#042B60"/>
<path d="M26.3474 31.0993C25.3857 31.0795 24.6029 31.4221 24.0461 31.8191C23.5042 31.4022 22.7344 31.0336 21.7725 31.0162C19.9724 30.9825 18.5202 32.4664 18.485 34.41C18.462 35.6741 19.0803 38.13 23.4795 40.3754C23.7364 40.5065 24.0396 40.5122 24.3013 40.3903C28.7793 38.3065 29.4864 35.8746 29.5094 34.6105C29.5437 32.7318 28.2179 31.1334 26.3474 31.0993ZM23.9249 38.4903C21.6285 37.2348 20.3355 35.7739 20.3597 34.4441C20.3743 33.6403 20.8857 32.8816 21.7386 32.8908C22.6849 32.9081 23.1878 33.5712 23.2405 33.6443C23.6002 34.2227 24.4062 34.2351 24.7852 33.6724C25.09 33.2802 25.6658 32.9645 26.3136 32.9741C27.1478 32.9893 27.6498 33.7519 27.635 34.5764C27.6106 35.9062 26.2654 37.3192 23.9249 38.4903Z" fill="#042B60"/>
<path d="M18.8203 9.40609C19.3381 9.40609 19.7578 8.98628 19.7578 8.46859V7.52734C19.7578 7.00966 19.3381 6.58984 18.8203 6.58984C18.3026 6.58984 17.8828 7.00966 17.8828 7.52734V8.46859C17.8828 8.98638 18.3026 9.40609 18.8203 9.40609Z" fill="#042B60"/>
<path d="M13.1719 9.40609C13.6896 9.40609 14.1094 8.98628 14.1094 8.46859V7.52734C14.1094 7.00966 13.6896 6.58984 13.1719 6.58984C12.6542 6.58984 12.2344 7.00966 12.2344 7.52734V8.46859C12.2344 8.98638 12.6542 9.40609 13.1719 9.40609Z" fill="#042B60"/>
</g>
<defs>
<clipPath id="clip0_1571_47538">
<rect width="48" height="48" fill="white"/>
</clipPath>
</defs>
</svg>
