<svg width="48" height="48" viewBox="0 0 48 48" fill="none" xmlns="http://www.w3.org/2000/svg">
<g clip-path="url(#clip0_1594_48204)">
<path d="M6.58594 28.2356H41.4158V43.2974H6.58594V28.2356Z" fill="#B1D6E4"/>
<path d="M47.5825 27.4559L42.3433 23.9632C42.5661 17.9866 38.1973 13.1786 32.9426 13.1786C29.3975 13.1786 26.2085 15.3726 24.6101 18.7178C24.1717 18.064 23.6556 17.4572 23.0677 16.9096C24.9188 14.4986 25.67 11.5463 25.3272 9.02877C27.024 8.30015 28.1823 6.60544 28.1823 4.70551C28.1823 2.11099 26.0714 0.00021582 23.4769 0.00021582C21.762 0.00021582 20.2207 0.919431 19.3955 2.36289C17.2866 1.72558 14.7359 1.71808 12.602 2.36289C11.777 0.919337 10.2356 0.00012207 8.52063 0.00012207C5.92611 0.00012207 3.81543 2.11099 3.81543 4.70542C3.81543 6.60544 4.97371 8.30006 6.67048 9.02868C6.32755 11.5475 7.07998 14.5 8.92994 16.9096C6.95689 18.7474 5.79177 21.2518 5.66127 23.9602L0.417571 27.4559C-0.0133021 27.7432 -0.129645 28.3252 0.157603 28.7559C0.445696 29.1881 1.02807 29.3023 1.45763 29.0159L5.64758 26.2226V44.2499C5.64758 46.3177 7.32982 47.9999 9.39757 47.9999H38.6025C40.6702 47.9999 42.3524 46.3177 42.3524 44.2499V26.2226L46.5424 29.0159C46.9713 29.3018 47.554 29.1886 47.8424 28.7559C48.1297 28.3253 48.0133 27.7432 47.5825 27.4559ZM40.4769 23.5331H36.7039C36.7039 21.0447 36.4037 17.8187 35.4641 15.5424C38.3356 16.6931 40.4769 19.7954 40.4769 23.5331ZM31.0562 23.5331C31.0562 21.5653 31.2481 19.2748 31.7744 17.3823C32.2604 15.6347 32.7979 15.1183 32.9426 15.0569C33.0873 15.1182 33.6247 15.6347 34.1108 17.3823C34.6372 19.2753 34.829 21.5642 34.829 23.5331H31.0562ZM30.4191 15.547C29.4811 17.8231 29.1812 21.0483 29.1812 23.5331H26.3076C26.2295 22.6555 26.0424 21.8022 25.7537 20.9894C26.4712 18.4159 28.2324 16.4258 30.4191 15.547ZM24.4232 23.5331H22.3745C22.7582 21.8343 22.6131 20.0324 21.9607 18.4454C23.392 19.8557 24.2187 21.6592 24.4232 23.5331ZM11.5578 23.5331C11.1681 22.223 11.1971 20.7418 11.6675 19.427C14.3967 21.1251 17.5956 21.1284 20.33 19.427C20.8009 20.7428 20.8291 22.2238 20.4397 23.5331H11.5578ZM15.9988 15.0613C15.3611 15.0613 14.6154 13.8668 14.5839 13.2164C14.8919 13.1494 17.098 13.1479 17.4135 13.2164C17.3821 13.8668 16.6364 15.0613 15.9988 15.0613ZM23.4769 1.87511C25.0376 1.87511 26.3073 3.14477 26.3073 4.70542C26.3073 5.74829 25.7276 6.6885 24.8512 7.17759C24.1664 5.42279 22.8795 4.01045 21.1557 3.0872C21.6742 2.34096 22.531 1.87511 23.4769 1.87511ZM5.69033 4.70542C5.69033 3.14477 6.95998 1.87511 8.52054 1.87511C9.46647 1.87511 10.3233 2.34096 10.8418 3.0873C9.1181 4.01064 7.8312 5.42288 7.14645 7.17769C6.26999 6.6885 5.69033 5.74829 5.69033 4.70542ZM15.9988 3.75779C27.2989 3.75779 24.4037 17.5385 16.9363 18.7503V16.7491C18.3435 16.1804 19.2896 14.4277 19.2896 13.1748C19.2896 12.5181 19.0203 12.1127 18.7945 11.8882C17.9476 11.0466 14.0527 11.044 13.2031 11.8882C12.9772 12.1128 12.708 12.5181 12.708 13.1748C12.708 14.4277 13.654 16.1804 15.0613 16.7491V18.7503C7.59083 17.5381 4.69865 3.75779 15.9988 3.75779ZM10.0369 18.4454C9.38529 20.0307 9.23894 21.8324 9.62304 23.5332H7.57442C7.78582 21.5955 8.64973 19.8121 10.0369 18.4454ZM40.4774 44.2499C40.4774 45.2838 39.6363 46.1249 38.6025 46.1249H9.39757C8.3637 46.1249 7.52257 45.2838 7.52257 44.2499V25.4081H40.4774V44.2499Z" fill="#042B60"/>
<path d="M26.3513 31.0978C25.3896 31.0779 24.6068 31.4205 24.05 31.8175C23.5081 31.4006 22.7383 31.032 21.7764 31.0146C19.9763 30.9809 18.5241 32.4648 18.4889 34.4084C18.4659 35.6725 19.0842 38.1284 23.4834 40.3738C23.7403 40.5049 24.0435 40.5106 24.3052 40.3888C28.7832 38.3049 29.4903 35.873 29.5133 34.6089C29.5476 32.7302 28.2218 31.1318 26.3513 31.0978ZM23.9288 38.4887C21.6324 37.2332 20.3394 35.7723 20.3636 34.4425C20.3782 33.6388 20.8896 32.88 21.7425 32.8892C22.6888 32.9065 23.1918 33.5697 23.2444 33.6427C23.6041 34.2211 24.4101 34.2335 24.7891 33.6708C25.0939 33.2786 25.6698 32.9629 26.3175 32.9725C27.1517 32.9878 27.6537 33.7503 27.6389 34.5748C27.6145 35.9046 26.2693 37.3176 23.9288 38.4887Z" fill="#042B60"/>
<path d="M18.8242 9.40561C19.342 9.40561 19.7617 8.98579 19.7617 8.46811V7.52686C19.7617 7.00917 19.342 6.58936 18.8242 6.58936C18.3065 6.58936 17.8867 7.00917 17.8867 7.52686V8.46811C17.8867 8.98589 18.3065 9.40561 18.8242 9.40561Z" fill="#042B60"/>
<path d="M13.1758 9.40561C13.6935 9.40561 14.1133 8.98579 14.1133 8.46811V7.52686C14.1133 7.00917 13.6935 6.58936 13.1758 6.58936C12.6581 6.58936 12.2383 7.00917 12.2383 7.52686V8.46811C12.2383 8.98589 12.6581 9.40561 13.1758 9.40561Z" fill="#042B60"/>
</g>
<defs>
<clipPath id="clip0_1594_48204">
<rect width="48" height="48" fill="white"/>
</clipPath>
</defs>
</svg>
