<svg width="104" height="48" viewBox="0 0 104 48" fill="none" xmlns="http://www.w3.org/2000/svg">
<path d="M11.079 23.6502V17.6524C11.079 9.52556 17.659 2.9375 25.7758 2.9375C33.8926 2.9375 40.4727 9.52555 40.4727 17.6523V23.6501C32.1197 19.2555 19.4362 19.2682 11.079 23.6502Z" fill="#B1D6E4"/>
<path d="M6.88515 19.8955H10.7188C10.7188 16.6395 8.08368 14 4.83307 14H0.999473C0.999473 17.2559 3.63454 19.8955 6.88515 19.8955Z" fill="#B1D6E4" stroke="#042B60" stroke-width="2" stroke-miterlimit="10" stroke-linecap="round" stroke-linejoin="round"/>
<path d="M0.999473 25.7911H4.83307C8.08368 25.7911 10.7188 23.1516 10.7188 19.8955H6.88515C3.63454 19.8955 0.999473 22.535 0.999473 25.7911Z" fill="#B1D6E4" stroke="#042B60" stroke-width="2" stroke-miterlimit="10" stroke-linecap="round" stroke-linejoin="round"/>
<path d="M31.8164 26.292V27.9866" stroke="#042B60" stroke-width="2" stroke-miterlimit="10" stroke-linecap="round" stroke-linejoin="round"/>
<path d="M19.7383 26.292V27.9866" stroke="#042B60" stroke-width="2" stroke-miterlimit="10" stroke-linecap="round" stroke-linejoin="round"/>
<path d="M27.8242 34.6279C27.4326 35.2096 26.6225 35.578 25.7355 35.578C24.8169 35.578 23.9842 35.1833 23.6097 34.5703" stroke="#042B60" stroke-width="2" stroke-miterlimit="22.9256" stroke-linecap="round" stroke-linejoin="round"/>
<path d="M10.8617 23.6018V17.6919C10.8617 9.57778 17.5135 3 25.7188 3C33.9241 3 40.5759 9.57778 40.5759 17.6918V23.6017C42.6018 23.6838 44.2188 25.3338 44.2188 27.3574C44.2188 29.388 42.5904 31.0425 40.5545 31.1138C39.7188 38.5 34.2188 44.5 25.5734 44.5C16.7361 44.5 11.2188 38 10.883 31.1138C8.84714 31.0425 7.21875 29.388 7.21875 27.3574C7.21886 25.3339 8.83588 23.6838 10.8617 23.6018Z" stroke="#042B60" stroke-width="2" stroke-miterlimit="10" stroke-linecap="round" stroke-linejoin="round"/>
<path d="M92.1397 24.6502V18.6524C92.1397 10.5256 85.5597 3.9375 77.443 3.9375C69.3261 3.9375 62.7461 10.5256 62.7461 18.6523V24.6501C71.2555 16.5922 83.9253 16.584 92.1397 24.6502Z" fill="#B1D6E4"/>
<path d="M74.5 33.098C75.1373 34.0876 76.4553 34.7143 77.8985 34.7143C79.3931 34.7143 80.7479 34.0429 81.3571 33" stroke="#042B60" stroke-width="2" stroke-miterlimit="22.9256" stroke-linecap="round" stroke-linejoin="round"/>
<path d="M68.5 27.8081C68.8186 27.3134 69.4776 27 70.1993 27C70.9465 27 71.624 27.3357 71.9286 27.8571" stroke="#042B60" stroke-width="2" stroke-miterlimit="22.9256" stroke-linecap="round" stroke-linejoin="round"/>
<path d="M83.9297 27.8081C84.2483 27.3134 84.9073 27 85.6289 27C86.3762 27 87.0537 27.3357 87.3583 27.8571" stroke="#042B60" stroke-width="2" stroke-miterlimit="22.9256" stroke-linecap="round" stroke-linejoin="round"/>
<path d="M92.357 24.6018V18.6919C92.357 10.5778 85.7053 4 77.5 4C69.2946 4 62.6429 10.5778 62.6429 18.6918V24.6017C60.6169 24.6838 59 26.3338 59 28.3574C59 30.388 60.6284 32.0425 62.6643 32.1138C63 39 69 44.5 77.6453 44.5C86.4827 44.5 92 38.5 92.3357 32.1138C94.3716 32.0425 96 30.388 96 28.3574C95.9999 26.3339 94.3829 24.6838 92.357 24.6018Z" stroke="#042B60" stroke-width="2" stroke-miterlimit="10" stroke-linecap="round" stroke-linejoin="round"/>
<path d="M96.3336 20.8955H92.5C92.5 17.6395 95.1351 15 98.3857 15H102.219C102.219 18.2559 99.5842 20.8955 96.3336 20.8955Z" fill="#B1D6E4" stroke="#042B60" stroke-width="2" stroke-miterlimit="10" stroke-linecap="round" stroke-linejoin="round"/>
<path d="M102.219 26.7911H98.3857C95.1351 26.7911 92.5 24.1516 92.5 20.8955H96.3336C99.5842 20.8955 102.219 23.535 102.219 26.7911Z" fill="#B1D6E4" stroke="#042B60" stroke-width="2" stroke-miterlimit="10" stroke-linecap="round" stroke-linejoin="round"/>
</svg>
