<svg width="48" height="48" viewBox="0 0 48 48" fill="none" xmlns="http://www.w3.org/2000/svg">
<path fill-rule="evenodd" clip-rule="evenodd" d="M7.62954 24.1477C12.0513 24.1477 18.4711 22.4259 24.6016 14.4293C30.732 22.4259 37.1519 24.1477 41.5736 24.1477H43.2336C44.1586 24.1477 44.9984 24.5515 45.6016 25.2V25.1629C45.5978 20.3742 44.8654 16.1937 43.4943 12.6862C43.4943 12.6862 40.8016 15 37.8016 12.6C33.0016 15.6 29.2592 10.006 33.0016 7.8C29.4016 5.4 33.6217 1.82021 33.6217 1.82021C30.9782 0.621478 27.9526 0 24.6016 0C11.6927 0 3.61406 9.2172 3.60156 25.1628V25.2C4.20472 24.5515 5.04451 24.1477 5.96954 24.1477H7.62954Z" fill="#97D9FC"/>
<path fill-rule="evenodd" clip-rule="evenodd" d="M11.7155 39.4514C9.81842 37.2826 8.25843 34.7025 7.17628 31.8119L5.08792 32.306C5.08389 32.307 5.07974 32.308 5.07571 32.3089L5.06341 32.3322C0.290271 37.4446 1.93013 43.5952 3.78815 47.3276C6.53838 46.8675 10.3231 44.2617 11.5446 39.776L11.7155 39.4514Z" fill="#97D9FC"/>
<path fill-rule="evenodd" clip-rule="evenodd" d="M36.1478 39.4514C38.0449 37.2826 39.6049 34.7025 40.687 31.8119L42.7754 32.306C42.7794 32.307 42.7835 32.308 42.7876 32.3089L42.7999 32.3322C47.573 37.4446 45.9331 43.5952 44.0751 47.3276C41.3249 46.8675 37.5402 44.2617 36.3187 39.776L36.1478 39.4514Z" fill="#97D9FC"/>
<path fill-rule="evenodd" clip-rule="evenodd" d="M7.34766 29.01V23.9999C7.8 23.9999 19.8 23.9999 24.6 14.3999C30.6 23.9999 40.6526 23.9999 40.6526 23.9999V29.01C40.6526 31.0201 40.208 32.9841 39.3543 34.8031C38.0611 37.5587 35.9096 39.8214 33.3166 41.3943C30.5121 43.0954 27.2746 43.9488 24.0002 43.9488C20.7258 43.9488 17.4883 43.0953 14.6837 41.3941C12.0906 39.8213 9.93913 37.5585 8.64588 34.8029C7.7922 32.984 7.34766 31.02 7.34766 29.01Z" stroke="#042B60" stroke-width="2" stroke-miterlimit="22.9256" stroke-linecap="round" stroke-linejoin="round"/>
<path d="M7.52995 31.8538H5.92689C3.75819 31.8538 2 30.0957 2 27.9269C2 25.7581 3.75808 24 5.92689 24H7.02423" stroke="#042B60" stroke-width="2" stroke-miterlimit="22.9256" stroke-linecap="round" stroke-linejoin="round"/>
<path d="M40.4688 31.8538H42.0718C44.2406 31.8538 45.9987 30.0957 45.9987 27.9269C45.9987 25.7581 44.2406 24 42.0718 24H40.9745" stroke="#042B60" stroke-width="2" stroke-miterlimit="22.9256" stroke-linecap="round" stroke-linejoin="round"/>
<path d="M22.1914 32.3658C22.5274 32.864 23.2224 33.1795 23.9834 33.1795C24.7715 33.1795 25.4859 32.8415 25.8071 32.3164" stroke="#042B60" stroke-width="2" stroke-miterlimit="22.9256" stroke-linecap="round" stroke-linejoin="round"/>
<path d="M31.2969 27.7812V29.2985" stroke="#042B60" stroke-width="2" stroke-miterlimit="22.9256" stroke-linecap="round" stroke-linejoin="round"/>
<path d="M16.7031 27.7812V29.2985" stroke="#042B60" stroke-width="2" stroke-miterlimit="22.9256" stroke-linecap="round" stroke-linejoin="round"/>
<circle cx="37.7984" cy="7.7999" r="2.4" fill="#97D9FC"/>
<path d="M33.3147 2.68602L32.687 3.31369C31.41 4.5907 31.74 7.18267 33.4372 7.79984C31.74 8.41701 31.41 11.009 32.687 12.286L33.3147 12.9137C34.5917 14.1907 37.1836 13.8607 37.8008 12.1635C38.418 13.8607 41.01 14.1907 42.287 12.9137L42.9146 12.286C44.1916 11.009 43.8617 8.41701 42.1644 7.79984C43.8617 7.18267 44.1916 4.5907 42.9146 3.31369L42.287 2.68602C41.01 1.40901 38.418 1.73899 37.8008 3.43622C37.1836 1.73899 34.5917 1.40901 33.3147 2.68602Z" stroke="#042B60" stroke-width="2" stroke-miterlimit="22.9256" stroke-linecap="round" stroke-linejoin="round"/>
</svg>
