<svg width="48" height="48" viewBox="0 0 48 48" fill="none" xmlns="http://www.w3.org/2000/svg">
<path d="M26.1094 12.6562C25.5917 12.6562 25.1719 12.2365 25.1719 11.7188V3.04688C25.1719 2.40075 24.6462 1.875 24 1.875C23.3538 1.875 22.8281 2.40066 22.8281 3.04688V11.7188C22.8281 12.2365 22.4084 12.6562 21.8906 12.6562C21.3728 12.6562 20.9531 12.2365 20.9531 11.7188V3.04688C20.9531 1.36678 22.32 0 24 0C25.68 0 27.0469 1.36678 27.0469 3.04688V11.7188C27.0469 12.2365 26.6272 12.6562 26.1094 12.6562Z" fill="#042B60"/>
<path fill-rule="evenodd" clip-rule="evenodd" d="M5.25 42.75H42.75V41.3438C42.75 39.7453 41.4422 38.4375 39.8438 38.4375H8.15625C6.55781 38.4375 5.25 39.7453 5.25 41.3438V42.75Z" fill="#FFEF8A"/>
<path fill-rule="evenodd" clip-rule="evenodd" d="M19.3125 19.6875H28.6875C31.2656 19.6875 33.375 17.5781 33.375 15C33.375 12.4219 31.2656 10.3125 28.6875 10.3125H26.1094H21.8906H19.3125C16.7344 10.3125 14.625 12.4219 14.625 15C14.625 17.5781 16.7344 19.6875 19.3125 19.6875Z" fill="#FFEF8A"/>
<path d="M39.896 37.5004C40.7948 36.5011 41.3438 35.1832 41.3438 33.75C41.3438 31.2112 39.6532 29.0599 37.3385 28.3627C38.3641 27.3432 39 25.9318 39 24.375C39 21.2734 36.4766 18.75 33.375 18.75H14.625C11.5234 18.75 9 21.2734 9 24.375C9 25.9318 9.63591 27.3432 10.6614 28.3627C8.34684 29.0599 6.65625 31.2112 6.65625 33.75C6.65625 35.1419 7.16606 36.465 8.09644 37.5005C6.0045 37.5325 4.3125 39.2443 4.3125 41.3438V44.1562C4.3125 46.2757 6.03684 48 8.15625 48H39.8438C41.9632 48 43.6875 46.2757 43.6875 44.1562V41.3438C43.6875 39.2417 41.9915 37.5284 39.896 37.5004ZM14.625 20.625H33.375C35.4427 20.625 37.125 22.3073 37.125 24.375C37.125 26.4427 35.4427 28.125 33.375 28.125C33.3345 28.125 33.2947 28.1275 33.2556 28.1325C33.2165 28.1275 33.1765 28.125 33.1361 28.125H14.9428C14.8886 28.125 14.8356 28.1297 14.7839 28.1385C14.7323 28.1297 14.6792 28.125 14.625 28.125C12.5573 28.125 10.875 26.4427 10.875 24.375C10.875 22.3073 12.5573 20.625 14.625 20.625ZM12.2812 30H14.625C14.6792 30 14.7323 29.9953 14.7839 29.9865C14.8356 29.9953 14.8886 30 14.9428 30H33.1361C33.1766 30 33.2165 29.9975 33.2556 29.9925C33.2947 29.9975 33.3346 30 33.375 30H35.7188C37.7865 30 39.4688 31.6823 39.4688 33.75C39.4688 35.7785 37.819 37.4604 35.7913 37.4993C35.7841 37.4994 35.777 37.4997 35.7698 37.5H12.2016C12.1903 37.4992 12.1791 37.4987 12.1677 37.4983C10.1626 37.438 8.53125 35.7565 8.53125 33.75C8.53125 31.6823 10.2135 30 12.2812 30ZM41.8125 44.1562C41.8125 45.2419 40.9293 46.125 39.8438 46.125H8.15625C7.07063 46.125 6.1875 45.2419 6.1875 44.1562V41.3438C6.1875 40.2581 7.07072 39.375 8.15625 39.375H39.8438C40.9293 39.375 41.8125 40.2581 41.8125 41.3438V44.1562Z" fill="#042B60"/>
</svg>
