<svg width="48" height="48" viewBox="0 0 48 48" fill="none" xmlns="http://www.w3.org/2000/svg">
<g clip-path="url(#clip0_1594_48222)">
<path fill-rule="evenodd" clip-rule="evenodd" d="M7.83203 25.0975L22.8933 40.1588L24.907 38.145L26.9208 36.1338L11.8595 21.0725L9.84578 23.0838L7.83203 25.0975Z" fill="#B1D6E4"/>
<mask id="mask0_1594_48222" style="mask-type:luminance" maskUnits="userSpaceOnUse" x="0" y="0" width="48" height="48">
<path d="M48 0H0V48H48V0Z" fill="white"/>
</mask>
<g mask="url(#mask0_1594_48222)">
<path fill-rule="evenodd" clip-rule="evenodd" d="M21.0755 11.8612L36.1367 26.9225L38.148 24.9087L40.1605 22.895L25.0992 7.83374L23.0855 9.84749L21.0742 11.8612H21.0755Z" fill="#B1D6E4"/>
<path d="M45.2487 19.0775C49.1175 14.53 48.9062 7.67625 44.6125 3.38C42.4325 1.20125 39.5225 0 36.4188 0C33.6313 0 31.0013 0.96875 28.915 2.745L27.445 1.27375C26.3437 0.1725 24.5512 0.1725 23.4487 1.27375L20.315 4.4075C19.7838 4.93875 19.4912 5.64875 19.4912 6.405C19.4912 7.16125 19.7838 7.87125 20.315 8.4025L21.7588 9.84625L9.8475 21.7563L8.40375 20.3125C7.3025 19.2112 5.51 19.2112 4.40875 20.3125L1.27375 23.4475C0.7425 23.9788 0.45 24.6887 0.45 25.445C0.45 26.2012 0.7425 26.9112 1.27375 27.4425L2.745 28.9137C0.96875 31.0012 0 33.6313 0 36.4188C0 39.5225 1.20125 42.4325 3.38 44.6125C5.64 46.8712 8.6075 48 11.575 48C14.2487 48 16.9225 47.0825 19.0775 45.2487L20.5487 46.72C21.1 47.2713 21.8238 47.5462 22.5475 47.5462C23.2713 47.5462 23.995 47.27 24.5462 46.72L27.6775 43.5887C28.2112 43.055 28.505 42.3438 28.5037 41.5875C28.5037 40.8313 28.2087 40.1237 27.6775 39.5938L26.2325 38.1475L38.1437 26.235L39.5887 27.6787C40.12 28.2112 40.8288 28.505 41.5838 28.5063H41.5863C42.3425 28.5063 43.0512 28.2138 43.585 27.68L46.7163 24.5487C47.2488 24.0162 47.5425 23.3062 47.5425 22.55C47.5425 21.7937 47.2488 21.0838 46.7163 20.5513L45.245 19.0812L45.2487 19.0775ZM21.64 7.0775C21.4625 6.9 21.365 6.66125 21.365 6.405C21.365 6.14875 21.4625 5.91 21.64 5.7325L24.7738 2.5975C25.1375 2.23375 25.7538 2.23375 26.1175 2.5975L27.5613 4.04125L23.0825 8.52L21.6388 7.07625L21.64 7.0775ZM2.6 26.1187C2.4225 25.9412 2.325 25.7025 2.325 25.4463C2.325 25.19 2.4225 24.9525 2.6 24.7738L5.73375 21.64C6.0975 21.275 6.71375 21.2762 7.0775 21.64L8.52125 23.0837L4.0425 27.5625L2.59875 26.1187H2.6ZM26.3538 40.9188C26.5313 41.095 26.63 41.3338 26.63 41.5875C26.63 41.8425 26.5313 42.0825 26.3525 42.2612L23.2213 45.3925C22.85 45.7638 22.2463 45.7638 21.875 45.3925L20.4312 43.9487L24.9088 39.4712L26.3538 40.9188ZM18.4425 43.2875C14.6562 47.0737 8.495 47.0737 4.70625 43.2875C0.91875 39.5012 0.91875 33.3387 4.70625 29.5525L29.5513 4.70625C33.3388 0.91875 39.5 0.91875 43.2863 4.70625C47.0725 8.49375 47.0725 14.6562 43.2863 18.4425L18.4412 43.2875H18.4425ZM45.3937 23.2213L42.2625 26.3525C42.0838 26.5313 41.845 26.63 41.59 26.63C41.3363 26.63 41.0987 26.5313 40.92 26.3525L39.4738 24.9088L43.9512 20.4312L45.395 21.875C45.5738 22.0537 45.6725 22.2925 45.6725 22.5487C45.6725 22.805 45.5738 23.0425 45.395 23.2213H45.3937Z" fill="#042B60"/>
</g>
<path d="M37.8033 12.69H37.7983C37.2808 12.69 36.8633 13.11 36.8633 13.6275C36.8633 14.145 37.2858 14.565 37.8033 14.565C38.3208 14.565 38.7408 14.145 38.7408 13.6275C38.7408 13.11 38.3208 12.69 37.8033 12.69Z" fill="#042B60"/>
<path d="M37.8033 5.82373H37.7983C37.2808 5.82373 36.8633 6.24373 36.8633 6.76123C36.8633 7.27873 37.2858 7.69873 37.8033 7.69873C38.3208 7.69873 38.7408 7.27873 38.7408 6.76123C38.7408 6.24373 38.3208 5.82373 37.8033 5.82373Z" fill="#042B60"/>
<path d="M34.3672 9.25873C33.8497 9.25873 33.4297 9.68123 33.4297 10.1987C33.4297 10.7162 33.8497 11.1362 34.3672 11.1362C34.8847 11.1362 35.3047 10.7162 35.3047 10.1987V10.1937C35.3047 9.67623 34.8847 9.25873 34.3672 9.25873Z" fill="#042B60"/>
<path d="M41.2344 9.25873C40.7169 9.25873 40.2969 9.68123 40.2969 10.1987C40.2969 10.7162 40.7169 11.1362 41.2344 11.1362C41.7519 11.1362 42.1719 10.7162 42.1719 10.1987V10.1937C42.1719 9.67623 41.7519 9.25873 41.2344 9.25873Z" fill="#042B60"/>
<path d="M13.6289 36.8625C13.1114 36.8625 12.6914 37.285 12.6914 37.8025C12.6914 38.32 13.1114 38.74 13.6289 38.74C14.1464 38.74 14.5664 38.32 14.5664 37.8025V37.7975C14.5664 37.28 14.1464 36.8625 13.6289 36.8625Z" fill="#042B60"/>
<path d="M6.76172 36.8625C6.24422 36.8625 5.82422 37.285 5.82422 37.8025C5.82422 38.32 6.24422 38.74 6.76172 38.74C7.27922 38.74 7.69922 38.32 7.69922 37.8025V37.7975C7.69922 37.28 7.27922 36.8625 6.76172 36.8625Z" fill="#042B60"/>
<path d="M10.1978 33.4288H10.1928C9.67531 33.4288 9.25781 33.8488 9.25781 34.3663C9.25781 34.8838 9.68031 35.3038 10.1978 35.3038C10.7153 35.3038 11.1353 34.8838 11.1353 34.3663C11.1353 33.8488 10.7153 33.4288 10.1978 33.4288Z" fill="#042B60"/>
<path d="M10.1978 40.295H10.1928C9.67531 40.295 9.25781 40.715 9.25781 41.2325C9.25781 41.75 9.68031 42.17 10.1978 42.17C10.7153 42.17 11.1353 41.75 11.1353 41.2325C11.1353 40.715 10.7153 40.295 10.1978 40.295Z" fill="#042B60"/>
</g>
<defs>
<clipPath id="clip0_1594_48222">
<rect width="48" height="48" fill="white"/>
</clipPath>
</defs>
</svg>
